<svg width="390" height="187" viewBox="0 0 390 187" fill="none" xmlns="http://www.w3.org/2000/svg">
<path opacity="0.9" d="M0 0H390V137C390 164.614 367.614 187 340 187H50C22.3858 187 0 164.614 0 137V0Z" fill="#54AFE6"/>
<path d="M154.975 57.1058V73.8578H151.615V62.9618L147.127 73.8578H144.583L140.071 62.9618V73.8578H136.711V57.1058H140.527L145.855 69.5618L151.183 57.1058H154.975ZM171.017 60.5618L162.785 80.1458H159.209L162.089 73.5218L156.761 60.5618H160.529L163.961 69.8498L167.441 60.5618H171.017ZM190.763 62.2898C190.763 63.1858 190.547 64.0258 190.115 64.8098C189.699 65.5938 189.035 66.2258 188.123 66.7058C187.227 67.1858 186.091 67.4258 184.715 67.4258H181.907V73.8578H178.547V57.1058H184.715C186.011 57.1058 187.115 57.3298 188.027 57.7778C188.939 58.2258 189.619 58.8418 190.067 59.6258C190.531 60.4098 190.763 61.2978 190.763 62.2898ZM184.571 64.7138C185.499 64.7138 186.187 64.5058 186.635 64.0898C187.083 63.6578 187.307 63.0578 187.307 62.2898C187.307 60.6578 186.395 59.8418 184.571 59.8418H181.907V64.7138H184.571ZM196.508 62.6258C196.94 61.9218 197.5 61.3698 198.188 60.9698C198.892 60.5698 199.692 60.3698 200.588 60.3698V63.8978H199.7C198.644 63.8978 197.844 64.1458 197.3 64.6418C196.772 65.1378 196.508 66.0018 196.508 67.2338V73.8578H193.148V60.5618H196.508V62.6258ZM208.755 74.0738C207.475 74.0738 206.323 73.7938 205.299 73.2338C204.275 72.6578 203.467 71.8498 202.875 70.8098C202.299 69.7698 202.011 68.5698 202.011 67.2098C202.011 65.8498 202.307 64.6498 202.899 63.6098C203.507 62.5698 204.331 61.7698 205.371 61.2098C206.411 60.6338 207.571 60.3458 208.851 60.3458C210.131 60.3458 211.291 60.6338 212.331 61.2098C213.371 61.7698 214.187 62.5698 214.779 63.6098C215.387 64.6498 215.691 65.8498 215.691 67.2098C215.691 68.5698 215.379 69.7698 214.755 70.8098C214.147 71.8498 213.315 72.6578 212.259 73.2338C211.219 73.7938 210.051 74.0738 208.755 74.0738ZM208.755 71.1458C209.363 71.1458 209.931 71.0018 210.459 70.7138C211.003 70.4098 211.435 69.9618 211.755 69.3698C212.075 68.7778 212.235 68.0578 212.235 67.2098C212.235 65.9458 211.899 64.9778 211.227 64.3058C210.571 63.6178 209.763 63.2738 208.803 63.2738C207.843 63.2738 207.035 63.6178 206.379 64.3058C205.739 64.9778 205.419 65.9458 205.419 67.2098C205.419 68.4738 205.731 69.4498 206.355 70.1378C206.995 70.8098 207.795 71.1458 208.755 71.1458ZM224.252 63.3218H221.924V73.8578H218.516V63.3218H217.004V60.5618H218.516V59.8898C218.516 58.2578 218.98 57.0578 219.908 56.2898C220.836 55.5218 222.236 55.1618 224.108 55.2098V58.0418C223.292 58.0258 222.724 58.1618 222.404 58.4498C222.084 58.7378 221.924 59.2578 221.924 60.0098V60.5618H224.252V63.3218ZM228.133 58.9778C227.541 58.9778 227.045 58.7938 226.645 58.4258C226.261 58.0418 226.069 57.5698 226.069 57.0098C226.069 56.4498 226.261 55.9858 226.645 55.6178C227.045 55.2338 227.541 55.0418 228.133 55.0418C228.725 55.0418 229.213 55.2338 229.597 55.6178C229.997 55.9858 230.197 56.4498 230.197 57.0098C230.197 57.5698 229.997 58.0418 229.597 58.4258C229.213 58.7938 228.725 58.9778 228.133 58.9778ZM229.789 60.5618V73.8578H226.429V60.5618H229.789ZM236.469 56.0978V73.8578H233.109V56.0978H236.469ZM252.149 66.9218C252.149 67.4018 252.117 67.8338 252.053 68.2178H242.333C242.413 69.1778 242.749 69.9298 243.341 70.4738C243.933 71.0178 244.661 71.2898 245.525 71.2898C246.773 71.2898 247.661 70.7538 248.189 69.6818H251.813C251.429 70.9618 250.693 72.0178 249.605 72.8498C248.517 73.6658 247.181 74.0738 245.597 74.0738C244.317 74.0738 243.165 73.7938 242.141 73.2338C241.133 72.6578 240.341 71.8498 239.765 70.8098C239.205 69.7698 238.925 68.5698 238.925 67.2098C238.925 65.8338 239.205 64.6258 239.765 63.5858C240.325 62.5458 241.109 61.7458 242.117 61.1858C243.125 60.6258 244.285 60.3458 245.597 60.3458C246.861 60.3458 247.989 60.6178 248.981 61.1618C249.989 61.7058 250.765 62.4818 251.309 63.4898C251.869 64.4818 252.149 65.6258 252.149 66.9218ZM248.669 65.9618C248.653 65.0978 248.341 64.4098 247.733 63.8978C247.125 63.3698 246.381 63.1058 245.501 63.1058C244.669 63.1058 243.965 63.3618 243.389 63.8738C242.829 64.3698 242.485 65.0658 242.357 65.9618H248.669Z" fill="#03466E"/>
<path d="M149.88 164.907V167.167H146.16V178.867H143.36V167.167H139.64V164.907H149.88ZM162.223 173.087C162.223 173.487 162.196 173.847 162.143 174.167H154.043C154.11 174.967 154.39 175.594 154.883 176.047C155.376 176.501 155.983 176.727 156.703 176.727C157.743 176.727 158.483 176.281 158.923 175.387H161.943C161.623 176.454 161.01 177.334 160.103 178.027C159.196 178.707 158.083 179.047 156.763 179.047C155.696 179.047 154.736 178.814 153.883 178.347C153.043 177.867 152.383 177.194 151.903 176.327C151.436 175.461 151.203 174.461 151.203 173.327C151.203 172.181 151.436 171.174 151.903 170.307C152.37 169.441 153.023 168.774 153.863 168.307C154.703 167.841 155.67 167.607 156.763 167.607C157.816 167.607 158.756 167.834 159.583 168.287C160.423 168.741 161.07 169.387 161.523 170.227C161.99 171.054 162.223 172.007 162.223 173.087ZM159.323 172.287C159.31 171.567 159.05 170.994 158.543 170.567C158.036 170.127 157.416 169.907 156.683 169.907C155.99 169.907 155.403 170.121 154.923 170.547C154.456 170.961 154.17 171.541 154.063 172.287H159.323ZM178.027 167.627C179.387 167.627 180.48 168.047 181.307 168.887C182.147 169.714 182.567 170.874 182.567 172.367V178.867H179.767V172.747C179.767 171.881 179.547 171.221 179.107 170.767C178.667 170.301 178.067 170.067 177.307 170.067C176.547 170.067 175.94 170.301 175.487 170.767C175.047 171.221 174.827 171.881 174.827 172.747V178.867H172.027V172.747C172.027 171.881 171.807 171.221 171.367 170.767C170.927 170.301 170.327 170.067 169.567 170.067C168.793 170.067 168.18 170.301 167.727 170.767C167.287 171.221 167.067 171.881 167.067 172.747V178.867H164.267V167.787H167.067V169.127C167.427 168.661 167.887 168.294 168.447 168.027C169.02 167.761 169.647 167.627 170.327 167.627C171.193 167.627 171.967 167.814 172.647 168.187C173.327 168.547 173.853 169.067 174.227 169.747C174.587 169.107 175.107 168.594 175.787 168.207C176.48 167.821 177.227 167.627 178.027 167.627ZM186.644 166.467C186.15 166.467 185.737 166.314 185.404 166.007C185.084 165.687 184.924 165.294 184.924 164.827C184.924 164.361 185.084 163.974 185.404 163.667C185.737 163.347 186.15 163.187 186.644 163.187C187.137 163.187 187.544 163.347 187.864 163.667C188.197 163.974 188.364 164.361 188.364 164.827C188.364 165.294 188.197 165.687 187.864 166.007C187.544 166.314 187.137 166.467 186.644 166.467ZM188.024 167.787V178.867H185.224V167.787H188.024ZM194.05 170.087V175.447C194.05 175.821 194.137 176.094 194.31 176.267C194.497 176.427 194.803 176.507 195.23 176.507H196.53V178.867H194.77C192.41 178.867 191.23 177.721 191.23 175.427V170.087H189.91V167.787H191.23V165.047H194.05V167.787H196.53V170.087H194.05ZM203.464 179.047C202.397 179.047 201.437 178.814 200.584 178.347C199.731 177.867 199.057 177.194 198.564 176.327C198.084 175.461 197.844 174.461 197.844 173.327C197.844 172.194 198.091 171.194 198.584 170.327C199.091 169.461 199.777 168.794 200.644 168.327C201.511 167.847 202.477 167.607 203.544 167.607C204.611 167.607 205.577 167.847 206.444 168.327C207.311 168.794 207.991 169.461 208.484 170.327C208.991 171.194 209.244 172.194 209.244 173.327C209.244 174.461 208.984 175.461 208.464 176.327C207.957 177.194 207.264 177.867 206.384 178.347C205.517 178.814 204.544 179.047 203.464 179.047ZM203.464 176.607C203.971 176.607 204.444 176.487 204.884 176.247C205.337 175.994 205.697 175.621 205.964 175.127C206.231 174.634 206.364 174.034 206.364 173.327C206.364 172.274 206.084 171.467 205.524 170.907C204.977 170.334 204.304 170.047 203.504 170.047C202.704 170.047 202.031 170.334 201.484 170.907C200.951 171.467 200.684 172.274 200.684 173.327C200.684 174.381 200.944 175.194 201.464 175.767C201.997 176.327 202.664 176.607 203.464 176.607ZM214.098 169.387C214.458 168.881 214.951 168.461 215.578 168.127C216.218 167.781 216.945 167.607 217.758 167.607C218.705 167.607 219.558 167.841 220.318 168.307C221.091 168.774 221.698 169.441 222.138 170.307C222.591 171.161 222.818 172.154 222.818 173.287C222.818 174.421 222.591 175.427 222.138 176.307C221.698 177.174 221.091 177.847 220.318 178.327C219.558 178.807 218.705 179.047 217.758 179.047C216.945 179.047 216.225 178.881 215.598 178.547C214.985 178.214 214.485 177.794 214.098 177.287V184.147H211.298V167.787H214.098V169.387ZM219.958 173.287C219.958 172.621 219.818 172.047 219.538 171.567C219.271 171.074 218.911 170.701 218.458 170.447C218.018 170.194 217.538 170.067 217.018 170.067C216.511 170.067 216.031 170.201 215.578 170.467C215.138 170.721 214.778 171.094 214.498 171.587C214.231 172.081 214.098 172.661 214.098 173.327C214.098 173.994 214.231 174.574 214.498 175.067C214.778 175.561 215.138 175.941 215.578 176.207C216.031 176.461 216.511 176.587 217.018 176.587C217.538 176.587 218.018 176.454 218.458 176.187C218.911 175.921 219.271 175.541 219.538 175.047C219.818 174.554 219.958 173.967 219.958 173.287ZM235.153 173.087C235.153 173.487 235.126 173.847 235.073 174.167H226.973C227.039 174.967 227.319 175.594 227.813 176.047C228.306 176.501 228.913 176.727 229.633 176.727C230.673 176.727 231.413 176.281 231.853 175.387H234.873C234.553 176.454 233.939 177.334 233.033 178.027C232.126 178.707 231.013 179.047 229.693 179.047C228.626 179.047 227.666 178.814 226.813 178.347C225.973 177.867 225.313 177.194 224.833 176.327C224.366 175.461 224.133 174.461 224.133 173.327C224.133 172.181 224.366 171.174 224.833 170.307C225.299 169.441 225.953 168.774 226.793 168.307C227.633 167.841 228.599 167.607 229.693 167.607C230.746 167.607 231.686 167.834 232.513 168.287C233.353 168.741 233.999 169.387 234.453 170.227C234.919 171.054 235.153 172.007 235.153 173.087ZM232.253 172.287C232.239 171.567 231.979 170.994 231.473 170.567C230.966 170.127 230.346 169.907 229.613 169.907C228.919 169.907 228.333 170.121 227.853 170.547C227.386 170.961 227.099 171.541 226.993 172.287H232.253Z" fill="#03466E"/>
<path fill-rule="evenodd" clip-rule="evenodd" d="M304 20H305C305.552 20 306 20.4477 306 21V27C306 27.5523 305.552 28 305 28H304C303.448 28 303 27.5523 303 27V21C303 20.4477 303.448 20 304 20Z" fill="#D1D1D6"/>
<path fill-rule="evenodd" clip-rule="evenodd" d="M299.5 22H300.5C301.052 22 301.5 22.4477 301.5 23V27C301.5 27.5523 301.052 28 300.5 28H299.5C298.948 28 298.5 27.5523 298.5 27V23C298.5 22.4477 298.948 22 299.5 22Z" fill="#D1D1D6"/>
<path fill-rule="evenodd" clip-rule="evenodd" d="M295 23.5H296C296.552 23.5 297 23.9477 297 24.5V27C297 27.5523 296.552 28 296 28H295C294.448 28 294 27.5523 294 27V24.5C294 23.9477 294.448 23.5 295 23.5Z" fill="#D1D1D6"/>
<path fill-rule="evenodd" clip-rule="evenodd" d="M308.5 18H309.5C310.052 18 310.5 18.4477 310.5 19V27C310.5 27.5523 310.052 28 309.5 28H308.5C307.948 28 307.5 27.5523 307.5 27V19C307.5 18.4477 307.948 18 308.5 18Z" fill="#3C3C43" fill-opacity="0.18"/>
<path fill-rule="evenodd" clip-rule="evenodd" d="M304 20H305C305.552 20 306 20.4477 306 21V27C306 27.5523 305.552 28 305 28H304C303.448 28 303 27.5523 303 27V21C303 20.4477 303.448 20 304 20Z" fill="black"/>
<path fill-rule="evenodd" clip-rule="evenodd" d="M299.5 22H300.5C301.052 22 301.5 22.4477 301.5 23V27C301.5 27.5523 301.052 28 300.5 28H299.5C298.948 28 298.5 27.5523 298.5 27V23C298.5 22.4477 298.948 22 299.5 22Z" fill="black"/>
<path fill-rule="evenodd" clip-rule="evenodd" d="M295 23.5H296C296.552 23.5 297 23.9477 297 24.5V27C297 27.5523 296.552 28 296 28H295C294.448 28 294 27.5523 294 27V24.5C294 23.9477 294.448 23.5 295 23.5Z" fill="black"/>
<path d="M324.133 24.9396C324.772 24.9396 325.394 25.1076 325.941 25.428L326.163 25.5579C326.331 25.6563 326.361 25.8866 326.223 26.0242L324.329 27.913C324.212 28.029 324.024 28.029 323.907 27.913L322.026 26.0363C321.888 25.8994 321.917 25.6702 322.084 25.5711L322.303 25.4406C322.855 25.1121 323.485 24.9396 324.133 24.9396Z" fill="black"/>
<path d="M324.133 21.4698C325.724 21.4698 327.251 21.9976 328.495 22.9749L328.671 23.113C328.811 23.2232 328.824 23.4306 328.697 23.5565L327.567 24.6841C327.462 24.7884 327.297 24.8004 327.178 24.7123L327.04 24.6098C326.2 23.9852 325.186 23.6502 324.133 23.6502C323.073 23.6502 322.053 23.9894 321.21 24.6211L321.072 24.7245C320.953 24.8134 320.787 24.8017 320.682 24.6971L319.552 23.5699C319.426 23.4443 319.438 23.2373 319.578 23.127L319.753 22.9888C321 22.0027 322.534 21.4698 324.133 21.4698Z" fill="black"/>
<path d="M324.133 18C326.657 18 329.072 18.8906 330.983 20.5229L331.146 20.6623C331.278 20.7749 331.285 20.9756 331.163 21.098L330.036 22.2219C329.926 22.3308 329.752 22.3385 329.634 22.2395L329.494 22.1228C327.989 20.8647 326.104 20.1804 324.133 20.1804C322.155 20.1804 320.263 20.8694 318.756 22.1354L318.617 22.2527C318.498 22.3521 318.324 22.3447 318.214 22.2356L317.087 21.1118C316.965 20.9895 316.972 20.7892 317.104 20.6765L317.266 20.5371C319.18 18.8959 321.601 18 324.133 18Z" fill="black"/>
<path d="M360 21V21C360.552 21 361 21.4477 361 22V24C361 24.5523 360.552 25 360 25V25V21Z" fill="#3C3C43" fill-opacity="0.6"/>
<path fill-rule="evenodd" clip-rule="evenodd" d="M339 17H356C357.657 17 359 18.3431 359 20V26C359 27.6569 357.657 29 356 29H339C337.343 29 336 27.6569 336 26V20C336 18.3431 337.343 17 339 17ZM339 18C337.895 18 337 18.8954 337 20V26C337 27.1046 337.895 28 339 28H356C357.105 28 358 27.1046 358 26V20C358 18.8954 357.105 18 356 18H339Z" fill="#3C3C43" fill-opacity="0.6"/>
<rect x="338" y="19" width="19" height="8" rx="1" fill="black"/>
<path d="M37.8672 28.0889C40.5552 28.0889 42.1519 25.9868 42.1519 22.4272C42.1519 21.0869 41.8955 19.959 41.4048 19.0874C40.6943 17.7324 39.4712 17 37.9258 17C35.626 17 34 18.5454 34 20.7134C34 22.7495 35.4648 24.229 37.479 24.229C38.7168 24.229 39.7202 23.6504 40.2183 22.647H40.2402C40.2402 22.647 40.2695 22.647 40.2769 22.647C40.2915 22.647 40.3428 22.647 40.3428 22.647C40.3428 25.064 39.4272 26.5068 37.8818 26.5068C36.9736 26.5068 36.2705 26.0088 36.0288 25.2104H34.1465C34.4614 26.9463 35.9336 28.0889 37.8672 28.0889ZM37.9331 22.7275C36.7173 22.7275 35.853 21.8633 35.853 20.6548C35.853 19.4756 36.7612 18.5747 37.9404 18.5747C39.1196 18.5747 40.0278 19.4902 40.0278 20.6841C40.0278 21.8633 39.1416 22.7275 37.9331 22.7275Z" fill="black"/>
<path d="M45.243 27.9863C45.9388 27.9863 46.4148 27.4883 46.4148 26.8291C46.4148 26.1626 45.9388 25.6719 45.243 25.6719C44.5545 25.6719 44.0711 26.1626 44.0711 26.8291C44.0711 27.4883 44.5545 27.9863 45.243 27.9863ZM45.243 22.4932C45.9388 22.4932 46.4148 22.0024 46.4148 21.3433C46.4148 20.6768 45.9388 20.186 45.243 20.186C44.5545 20.186 44.0711 20.6768 44.0711 21.3433C44.0711 22.0024 44.5545 22.4932 45.243 22.4932Z" fill="black"/>
<path d="M53.2706 27.8325H55.0797V25.8623H56.5079V24.2656H55.0797V17.2637H52.4137C50.546 20.0762 49.0592 22.4272 48.107 24.1777V25.8623H53.2706V27.8325ZM49.8575 24.1997C51.088 22.0317 52.1866 20.2959 53.1974 18.8018H53.2999V24.3096H49.8575V24.1997Z" fill="black"/>
<path d="M60.5365 27.8325H62.4262V17.2637H60.5438L57.7826 19.1973V21.0137L60.412 19.168H60.5365V27.8325Z" fill="black"/>
</svg>
