<svg width="322" height="18" viewBox="0 0 322 18" fill="none" xmlns="http://www.w3.org/2000/svg">
<path d="M12.6667 8.33331H3.33333C2.59695 8.33331 2 8.93027 2 9.66665V14.3333C2 15.0697 2.59695 15.6666 3.33333 15.6666H12.6667C13.403 15.6666 14 15.0697 14 14.3333V9.66665C14 8.93027 13.403 8.33331 12.6667 8.33331Z" stroke="#1E1E1E" stroke-width="2" stroke-linecap="round" stroke-linejoin="round"/>
<path d="M4.66669 8.33331V5.66665C4.66669 4.78259 5.01788 3.93475 5.643 3.30962C6.26812 2.6845 7.11597 2.33331 8.00002 2.33331C8.88408 2.33331 9.73192 2.6845 10.357 3.30962C10.9822 3.93475 11.3334 4.78259 11.3334 5.66665V8.33331" stroke="#1E1E1E" stroke-width="2" stroke-linecap="round" stroke-linejoin="round"/>
<path d="M27.78 4.636L25.056 9.844V13H23.964V9.844L21.228 4.636H22.44L24.504 8.872L26.568 4.636H27.78ZM31.7998 13.108C31.1838 13.108 30.6238 12.968 30.1198 12.688C29.6238 12.408 29.2318 12.012 28.9438 11.5C28.6638 10.98 28.5238 10.38 28.5238 9.7C28.5238 9.028 28.6678 8.436 28.9558 7.924C29.2518 7.404 29.6518 7.008 30.1558 6.736C30.6598 6.456 31.2238 6.316 31.8478 6.316C32.4718 6.316 33.0358 6.456 33.5398 6.736C34.0438 7.008 34.4398 7.4 34.7278 7.912C35.0238 8.424 35.1718 9.02 35.1718 9.7C35.1718 10.38 35.0198 10.98 34.7158 11.5C34.4198 12.012 34.0158 12.408 33.5038 12.688C32.9918 12.968 32.4238 13.108 31.7998 13.108ZM31.7998 12.148C32.1918 12.148 32.5598 12.056 32.9038 11.872C33.2478 11.688 33.5238 11.412 33.7318 11.044C33.9478 10.676 34.0558 10.228 34.0558 9.7C34.0558 9.172 33.9518 8.724 33.7438 8.356C33.5358 7.988 33.2638 7.716 32.9278 7.54C32.5918 7.356 32.2278 7.264 31.8358 7.264C31.4358 7.264 31.0678 7.356 30.7318 7.54C30.4038 7.716 30.1398 7.988 29.9398 8.356C29.7398 8.724 29.6398 9.172 29.6398 9.7C29.6398 10.236 29.7358 10.688 29.9278 11.056C30.1278 11.424 30.3918 11.7 30.7198 11.884C31.0478 12.06 31.4078 12.148 31.7998 12.148ZM42.4396 6.424V13H41.3476V12.028C41.1396 12.364 40.8476 12.628 40.4716 12.82C40.1036 13.004 39.6956 13.096 39.2476 13.096C38.7356 13.096 38.2756 12.992 37.8676 12.784C37.4596 12.568 37.1356 12.248 36.8956 11.824C36.6636 11.4 36.5476 10.884 36.5476 10.276V6.424H37.6276V10.132C37.6276 10.78 37.7916 11.28 38.1196 11.632C38.4476 11.976 38.8956 12.148 39.4636 12.148C40.0476 12.148 40.5076 11.968 40.8436 11.608C41.1796 11.248 41.3476 10.724 41.3476 10.036V6.424H42.4396ZM45.3754 7.492C45.5674 7.116 45.8394 6.824 46.1914 6.616C46.5514 6.408 46.9874 6.304 47.4994 6.304V7.432H47.2114C45.9874 7.432 45.3754 8.096 45.3754 9.424V13H44.2834V6.424H45.3754V7.492ZM52.5232 5.356C52.3152 5.356 52.1392 5.284 51.9952 5.14C51.8512 4.996 51.7792 4.82 51.7792 4.612C51.7792 4.404 51.8512 4.228 51.9952 4.084C52.1392 3.94 52.3152 3.868 52.5232 3.868C52.7232 3.868 52.8912 3.94 53.0272 4.084C53.1712 4.228 53.2432 4.404 53.2432 4.612C53.2432 4.82 53.1712 4.996 53.0272 5.14C52.8912 5.284 52.7232 5.356 52.5232 5.356ZM53.0512 6.424V13H51.9592V6.424H53.0512ZM58.1163 6.304C58.9163 6.304 59.5643 6.548 60.0603 7.036C60.5563 7.516 60.8043 8.212 60.8043 9.124V13H59.7243V9.28C59.7243 8.624 59.5603 8.124 59.2323 7.78C58.9043 7.428 58.4563 7.252 57.8883 7.252C57.3123 7.252 56.8523 7.432 56.5083 7.792C56.1723 8.152 56.0043 8.676 56.0043 9.364V13H54.9123V6.424H56.0043V7.36C56.2203 7.024 56.5123 6.764 56.8803 6.58C57.2563 6.396 57.6683 6.304 58.1163 6.304ZM65.2641 7.324H63.8841V13H62.7921V7.324H61.9401V6.424H62.7921V5.956C62.7921 5.22 62.9801 4.684 63.3561 4.348C63.7401 4.004 64.3521 3.832 65.1921 3.832V4.744C64.7121 4.744 64.3721 4.84 64.1721 5.032C63.9801 5.216 63.8841 5.524 63.8841 5.956V6.424H65.2641V7.324ZM69.4053 13.108C68.7893 13.108 68.2293 12.968 67.7253 12.688C67.2293 12.408 66.8373 12.012 66.5493 11.5C66.2693 10.98 66.1293 10.38 66.1293 9.7C66.1293 9.028 66.2733 8.436 66.5613 7.924C66.8573 7.404 67.2573 7.008 67.7613 6.736C68.2653 6.456 68.8293 6.316 69.4533 6.316C70.0773 6.316 70.6413 6.456 71.1453 6.736C71.6493 7.008 72.0453 7.4 72.3333 7.912C72.6293 8.424 72.7773 9.02 72.7773 9.7C72.7773 10.38 72.6253 10.98 72.3213 11.5C72.0253 12.012 71.6213 12.408 71.1093 12.688C70.5973 12.968 70.0293 13.108 69.4053 13.108ZM69.4053 12.148C69.7973 12.148 70.1653 12.056 70.5093 11.872C70.8533 11.688 71.1293 11.412 71.3373 11.044C71.5533 10.676 71.6613 10.228 71.6613 9.7C71.6613 9.172 71.5573 8.724 71.3493 8.356C71.1413 7.988 70.8693 7.716 70.5333 7.54C70.1973 7.356 69.8333 7.264 69.4413 7.264C69.0413 7.264 68.6733 7.356 68.3373 7.54C68.0093 7.716 67.7453 7.988 67.5453 8.356C67.3453 8.724 67.2453 9.172 67.2453 9.7C67.2453 10.236 67.3413 10.688 67.5333 11.056C67.7333 11.424 67.9973 11.7 68.3253 11.884C68.6533 12.06 69.0133 12.148 69.4053 12.148ZM76.5411 13.108C76.0371 13.108 75.5851 13.024 75.1851 12.856C74.7851 12.68 74.4691 12.44 74.2371 12.136C74.0051 11.824 73.8771 11.468 73.8531 11.068H74.9811C75.0131 11.396 75.1651 11.664 75.4371 11.872C75.7171 12.08 76.0811 12.184 76.5291 12.184C76.9451 12.184 77.2731 12.092 77.5131 11.908C77.7531 11.724 77.8731 11.492 77.8731 11.212C77.8731 10.924 77.7451 10.712 77.4891 10.576C77.2331 10.432 76.8371 10.292 76.3011 10.156C75.8131 10.028 75.4131 9.9 75.1011 9.772C74.7971 9.636 74.5331 9.44 74.3091 9.184C74.0931 8.92 73.9851 8.576 73.9851 8.152C73.9851 7.816 74.0851 7.508 74.2851 7.228C74.4851 6.948 74.7691 6.728 75.1371 6.568C75.5051 6.4 75.9251 6.316 76.3971 6.316C77.1251 6.316 77.7131 6.5 78.1611 6.868C78.6091 7.236 78.8491 7.74 78.8811 8.38H77.7891C77.7651 8.036 77.6251 7.76 77.3691 7.552C77.1211 7.344 76.7851 7.24 76.3611 7.24C75.9691 7.24 75.6571 7.324 75.4251 7.492C75.1931 7.66 75.0771 7.88 75.0771 8.152C75.0771 8.368 75.1451 8.548 75.2811 8.692C75.4251 8.828 75.6011 8.94 75.8091 9.028C76.0251 9.108 76.3211 9.2 76.6971 9.304C77.1691 9.432 77.5531 9.56 77.8491 9.688C78.1451 9.808 78.3971 9.992 78.6051 10.24C78.8211 10.488 78.9331 10.812 78.9411 11.212C78.9411 11.572 78.8411 11.896 78.6411 12.184C78.4411 12.472 78.1571 12.7 77.7891 12.868C77.4291 13.028 77.0131 13.108 76.5411 13.108ZM92.4418 6.424L90.3898 13H89.2618L87.6778 7.78L86.0938 13H84.9658L82.9018 6.424H84.0178L85.5298 11.944L87.1618 6.424H88.2778L89.8738 11.956L91.3618 6.424H92.4418ZM94.0896 5.356C93.8816 5.356 93.7056 5.284 93.5616 5.14C93.4176 4.996 93.3456 4.82 93.3456 4.612C93.3456 4.404 93.4176 4.228 93.5616 4.084C93.7056 3.94 93.8816 3.868 94.0896 3.868C94.2896 3.868 94.4576 3.94 94.5936 4.084C94.7376 4.228 94.8096 4.404 94.8096 4.612C94.8096 4.82 94.7376 4.996 94.5936 5.14C94.4576 5.284 94.2896 5.356 94.0896 5.356ZM94.6176 6.424V13H93.5256V6.424H94.6176ZM97.5707 4.12V13H96.4787V4.12H97.5707ZM100.524 4.12V13H99.4318V4.12H100.524ZM106.676 7.648C106.9 7.256 107.228 6.936 107.66 6.688C108.092 6.44 108.584 6.316 109.136 6.316C109.728 6.316 110.26 6.456 110.732 6.736C111.204 7.016 111.576 7.412 111.848 7.924C112.12 8.428 112.256 9.016 112.256 9.688C112.256 10.352 112.12 10.944 111.848 11.464C111.576 11.984 111.2 12.388 110.72 12.676C110.248 12.964 109.72 13.108 109.136 13.108C108.568 13.108 108.068 12.984 107.636 12.736C107.212 12.488 106.892 12.172 106.676 11.788V13H105.584V4.12H106.676V7.648ZM111.14 9.688C111.14 9.192 111.04 8.76 110.84 8.392C110.64 8.024 110.368 7.744 110.024 7.552C109.688 7.36 109.316 7.264 108.908 7.264C108.508 7.264 108.136 7.364 107.792 7.564C107.456 7.756 107.184 8.04 106.976 8.416C106.776 8.784 106.676 9.212 106.676 9.7C106.676 10.196 106.776 10.632 106.976 11.008C107.184 11.376 107.456 11.66 107.792 11.86C108.136 12.052 108.508 12.148 108.908 12.148C109.316 12.148 109.688 12.052 110.024 11.86C110.368 11.66 110.64 11.376 110.84 11.008C111.04 10.632 111.14 10.192 111.14 9.688ZM119.694 9.46C119.694 9.668 119.682 9.888 119.658 10.12H114.402C114.442 10.768 114.662 11.276 115.062 11.644C115.47 12.004 115.962 12.184 116.538 12.184C117.01 12.184 117.402 12.076 117.714 11.86C118.034 11.636 118.258 11.34 118.386 10.972H119.562C119.386 11.604 119.034 12.12 118.506 12.52C117.978 12.912 117.322 13.108 116.538 13.108C115.914 13.108 115.354 12.968 114.858 12.688C114.37 12.408 113.986 12.012 113.706 11.5C113.426 10.98 113.286 10.38 113.286 9.7C113.286 9.02 113.422 8.424 113.694 7.912C113.966 7.4 114.346 7.008 114.834 6.736C115.33 6.456 115.898 6.316 116.538 6.316C117.162 6.316 117.714 6.452 118.194 6.724C118.674 6.996 119.042 7.372 119.298 7.852C119.562 8.324 119.694 8.86 119.694 9.46ZM118.566 9.232C118.566 8.816 118.474 8.46 118.29 8.164C118.106 7.86 117.854 7.632 117.534 7.48C117.222 7.32 116.874 7.24 116.49 7.24C115.938 7.24 115.466 7.416 115.074 7.768C114.69 8.12 114.47 8.608 114.414 9.232H118.566ZM130.334 9.46C130.334 9.668 130.322 9.888 130.298 10.12H125.042C125.082 10.768 125.302 11.276 125.702 11.644C126.11 12.004 126.602 12.184 127.178 12.184C127.65 12.184 128.042 12.076 128.354 11.86C128.674 11.636 128.898 11.34 129.026 10.972H130.202C130.026 11.604 129.674 12.12 129.146 12.52C128.618 12.912 127.962 13.108 127.178 13.108C126.554 13.108 125.994 12.968 125.498 12.688C125.01 12.408 124.626 12.012 124.346 11.5C124.066 10.98 123.926 10.38 123.926 9.7C123.926 9.02 124.062 8.424 124.334 7.912C124.606 7.4 124.986 7.008 125.474 6.736C125.97 6.456 126.538 6.316 127.178 6.316C127.802 6.316 128.354 6.452 128.834 6.724C129.314 6.996 129.682 7.372 129.938 7.852C130.202 8.324 130.334 8.86 130.334 9.46ZM129.206 9.232C129.206 8.816 129.114 8.46 128.93 8.164C128.746 7.86 128.494 7.632 128.174 7.48C127.862 7.32 127.514 7.24 127.13 7.24C126.578 7.24 126.106 7.416 125.714 7.768C125.33 8.12 125.11 8.608 125.054 9.232H129.206ZM134.98 6.304C135.78 6.304 136.428 6.548 136.924 7.036C137.42 7.516 137.668 8.212 137.668 9.124V13H136.588V9.28C136.588 8.624 136.424 8.124 136.096 7.78C135.768 7.428 135.32 7.252 134.752 7.252C134.176 7.252 133.716 7.432 133.372 7.792C133.036 8.152 132.868 8.676 132.868 9.364V13H131.776V6.424H132.868V7.36C133.084 7.024 133.376 6.764 133.744 6.58C134.12 6.396 134.532 6.304 134.98 6.304ZM139.043 9.7C139.043 9.02 139.179 8.428 139.451 7.924C139.723 7.412 140.099 7.016 140.579 6.736C141.067 6.456 141.623 6.316 142.247 6.316C143.055 6.316 143.719 6.512 144.239 6.904C144.767 7.296 145.115 7.84 145.283 8.536H144.107C143.995 8.136 143.775 7.82 143.447 7.588C143.127 7.356 142.727 7.24 142.247 7.24C141.623 7.24 141.119 7.456 140.735 7.888C140.351 8.312 140.159 8.916 140.159 9.7C140.159 10.492 140.351 11.104 140.735 11.536C141.119 11.968 141.623 12.184 142.247 12.184C142.727 12.184 143.127 12.072 143.447 11.848C143.767 11.624 143.987 11.304 144.107 10.888H145.283C145.107 11.56 144.755 12.1 144.227 12.508C143.699 12.908 143.039 13.108 142.247 13.108C141.623 13.108 141.067 12.968 140.579 12.688C140.099 12.408 139.723 12.012 139.451 11.5C139.179 10.988 139.043 10.388 139.043 9.7ZM147.832 7.492C148.024 7.116 148.296 6.824 148.648 6.616C149.008 6.408 149.444 6.304 149.956 6.304V7.432H149.668C148.444 7.432 147.832 8.096 147.832 9.424V13H146.74V6.424H147.832V7.492ZM156.881 6.424L152.921 16.096H151.793L153.089 12.928L150.437 6.424H151.649L153.713 11.752L155.753 6.424H156.881ZM159.071 7.636C159.287 7.26 159.607 6.948 160.031 6.7C160.463 6.444 160.963 6.316 161.531 6.316C162.115 6.316 162.643 6.456 163.115 6.736C163.595 7.016 163.971 7.412 164.243 7.924C164.515 8.428 164.651 9.016 164.651 9.688C164.651 10.352 164.515 10.944 164.243 11.464C163.971 11.984 163.595 12.388 163.115 12.676C162.643 12.964 162.115 13.108 161.531 13.108C160.971 13.108 160.475 12.984 160.043 12.736C159.619 12.48 159.295 12.164 159.071 11.788V16.12H157.979V6.424H159.071V7.636ZM163.535 9.688C163.535 9.192 163.435 8.76 163.235 8.392C163.035 8.024 162.763 7.744 162.419 7.552C162.083 7.36 161.711 7.264 161.303 7.264C160.903 7.264 160.531 7.364 160.187 7.564C159.851 7.756 159.579 8.04 159.371 8.416C159.171 8.784 159.071 9.212 159.071 9.7C159.071 10.196 159.171 10.632 159.371 11.008C159.579 11.376 159.851 11.66 160.187 11.86C160.531 12.052 160.903 12.148 161.303 12.148C161.711 12.148 162.083 12.052 162.419 11.86C162.763 11.66 163.035 11.376 163.235 11.008C163.435 10.632 163.535 10.192 163.535 9.688ZM167.42 7.324V11.2C167.42 11.52 167.488 11.748 167.624 11.884C167.76 12.012 167.996 12.076 168.332 12.076H169.136V13H168.152C167.544 13 167.088 12.86 166.784 12.58C166.48 12.3 166.328 11.84 166.328 11.2V7.324H165.476V6.424H166.328V4.768H167.42V6.424H169.136V7.324H167.42ZM176.459 9.46C176.459 9.668 176.447 9.888 176.423 10.12H171.167C171.207 10.768 171.427 11.276 171.827 11.644C172.235 12.004 172.727 12.184 173.303 12.184C173.775 12.184 174.167 12.076 174.479 11.86C174.799 11.636 175.023 11.34 175.151 10.972H176.327C176.151 11.604 175.799 12.12 175.271 12.52C174.743 12.912 174.087 13.108 173.303 13.108C172.679 13.108 172.119 12.968 171.623 12.688C171.135 12.408 170.751 12.012 170.471 11.5C170.191 10.98 170.051 10.38 170.051 9.7C170.051 9.02 170.187 8.424 170.459 7.912C170.731 7.4 171.111 7.008 171.599 6.736C172.095 6.456 172.663 6.316 173.303 6.316C173.927 6.316 174.479 6.452 174.959 6.724C175.439 6.996 175.807 7.372 176.063 7.852C176.327 8.324 176.459 8.86 176.459 9.46ZM175.331 9.232C175.331 8.816 175.239 8.46 175.055 8.164C174.871 7.86 174.619 7.632 174.299 7.48C173.987 7.32 173.639 7.24 173.255 7.24C172.703 7.24 172.231 7.416 171.839 7.768C171.455 8.12 171.235 8.608 171.179 9.232H175.331ZM177.493 9.688C177.493 9.016 177.629 8.428 177.901 7.924C178.173 7.412 178.545 7.016 179.017 6.736C179.497 6.456 180.033 6.316 180.625 6.316C181.137 6.316 181.613 6.436 182.053 6.676C182.493 6.908 182.829 7.216 183.061 7.6V4.12H184.165V13H183.061V11.764C182.845 12.156 182.525 12.48 182.101 12.736C181.677 12.984 181.181 13.108 180.613 13.108C180.029 13.108 179.497 12.964 179.017 12.676C178.545 12.388 178.173 11.984 177.901 11.464C177.629 10.944 177.493 10.352 177.493 9.688ZM183.061 9.7C183.061 9.204 182.961 8.772 182.761 8.404C182.561 8.036 182.289 7.756 181.945 7.564C181.609 7.364 181.237 7.264 180.829 7.264C180.421 7.264 180.049 7.36 179.713 7.552C179.377 7.744 179.109 8.024 178.909 8.392C178.709 8.76 178.609 9.192 178.609 9.688C178.609 10.192 178.709 10.632 178.909 11.008C179.109 11.376 179.377 11.66 179.713 11.86C180.049 12.052 180.421 12.148 180.829 12.148C181.237 12.148 181.609 12.052 181.945 11.86C182.289 11.66 182.561 11.376 182.761 11.008C182.961 10.632 183.061 10.196 183.061 9.7ZM188.801 9.688C188.801 9.016 188.937 8.428 189.209 7.924C189.481 7.412 189.853 7.016 190.325 6.736C190.805 6.456 191.337 6.316 191.921 6.316C192.497 6.316 192.997 6.44 193.421 6.688C193.845 6.936 194.161 7.248 194.369 7.624V6.424H195.473V13H194.369V11.776C194.153 12.16 193.829 12.48 193.397 12.736C192.973 12.984 192.477 13.108 191.909 13.108C191.325 13.108 190.797 12.964 190.325 12.676C189.853 12.388 189.481 11.984 189.209 11.464C188.937 10.944 188.801 10.352 188.801 9.688ZM194.369 9.7C194.369 9.204 194.269 8.772 194.069 8.404C193.869 8.036 193.597 7.756 193.253 7.564C192.917 7.364 192.545 7.264 192.137 7.264C191.729 7.264 191.357 7.36 191.021 7.552C190.685 7.744 190.417 8.024 190.217 8.392C190.017 8.76 189.917 9.192 189.917 9.688C189.917 10.192 190.017 10.632 190.217 11.008C190.417 11.376 190.685 11.66 191.021 11.86C191.357 12.052 191.729 12.148 192.137 12.148C192.545 12.148 192.917 12.052 193.253 11.86C193.597 11.66 193.869 11.376 194.069 11.008C194.269 10.632 194.369 10.196 194.369 9.7ZM200.523 6.304C201.323 6.304 201.971 6.548 202.467 7.036C202.963 7.516 203.211 8.212 203.211 9.124V13H202.131V9.28C202.131 8.624 201.967 8.124 201.639 7.78C201.311 7.428 200.863 7.252 200.295 7.252C199.719 7.252 199.259 7.432 198.915 7.792C198.579 8.152 198.411 8.676 198.411 9.364V13H197.319V6.424H198.411V7.36C198.627 7.024 198.919 6.764 199.287 6.58C199.663 6.396 200.075 6.304 200.523 6.304ZM204.586 9.688C204.586 9.016 204.722 8.428 204.994 7.924C205.266 7.412 205.638 7.016 206.11 6.736C206.59 6.456 207.126 6.316 207.718 6.316C208.23 6.316 208.706 6.436 209.146 6.676C209.586 6.908 209.922 7.216 210.154 7.6V4.12H211.258V13H210.154V11.764C209.938 12.156 209.618 12.48 209.194 12.736C208.77 12.984 208.274 13.108 207.706 13.108C207.122 13.108 206.59 12.964 206.11 12.676C205.638 12.388 205.266 11.984 204.994 11.464C204.722 10.944 204.586 10.352 204.586 9.688ZM210.154 9.7C210.154 9.204 210.054 8.772 209.854 8.404C209.654 8.036 209.382 7.756 209.038 7.564C208.702 7.364 208.33 7.264 207.922 7.264C207.514 7.264 207.142 7.36 206.806 7.552C206.47 7.744 206.202 8.024 206.002 8.392C205.802 8.76 205.702 9.192 205.702 9.688C205.702 10.192 205.802 10.632 206.002 11.008C206.202 11.376 206.47 11.66 206.806 11.86C207.142 12.052 207.514 12.148 207.922 12.148C208.33 12.148 208.702 12.052 209.038 11.86C209.382 11.66 209.654 11.376 209.854 11.008C210.054 10.632 210.154 10.196 210.154 9.7ZM218.631 13.108C218.127 13.108 217.675 13.024 217.275 12.856C216.875 12.68 216.559 12.44 216.327 12.136C216.095 11.824 215.967 11.468 215.943 11.068H217.071C217.103 11.396 217.255 11.664 217.527 11.872C217.807 12.08 218.171 12.184 218.619 12.184C219.035 12.184 219.363 12.092 219.603 11.908C219.843 11.724 219.963 11.492 219.963 11.212C219.963 10.924 219.835 10.712 219.579 10.576C219.323 10.432 218.927 10.292 218.391 10.156C217.903 10.028 217.503 9.9 217.191 9.772C216.887 9.636 216.623 9.44 216.399 9.184C216.183 8.92 216.075 8.576 216.075 8.152C216.075 7.816 216.175 7.508 216.375 7.228C216.575 6.948 216.859 6.728 217.227 6.568C217.595 6.4 218.015 6.316 218.487 6.316C219.215 6.316 219.803 6.5 220.251 6.868C220.699 7.236 220.939 7.74 220.971 8.38H219.879C219.855 8.036 219.715 7.76 219.459 7.552C219.211 7.344 218.875 7.24 218.451 7.24C218.059 7.24 217.747 7.324 217.515 7.492C217.283 7.66 217.167 7.88 217.167 8.152C217.167 8.368 217.235 8.548 217.371 8.692C217.515 8.828 217.691 8.94 217.899 9.028C218.115 9.108 218.411 9.2 218.787 9.304C219.259 9.432 219.643 9.56 219.939 9.688C220.235 9.808 220.487 9.992 220.695 10.24C220.911 10.488 221.023 10.812 221.031 11.212C221.031 11.572 220.931 11.896 220.731 12.184C220.531 12.472 220.247 12.7 219.879 12.868C219.519 13.028 219.103 13.108 218.631 13.108ZM223.904 7.324V11.2C223.904 11.52 223.972 11.748 224.108 11.884C224.244 12.012 224.48 12.076 224.816 12.076H225.62V13H224.636C224.028 13 223.572 12.86 223.268 12.58C222.964 12.3 222.812 11.84 222.812 11.2V7.324H221.96V6.424H222.812V4.768H223.904V6.424H225.62V7.324H223.904ZM229.812 13.108C229.196 13.108 228.636 12.968 228.132 12.688C227.636 12.408 227.244 12.012 226.956 11.5C226.676 10.98 226.536 10.38 226.536 9.7C226.536 9.028 226.68 8.436 226.968 7.924C227.264 7.404 227.664 7.008 228.168 6.736C228.672 6.456 229.236 6.316 229.86 6.316C230.484 6.316 231.048 6.456 231.552 6.736C232.056 7.008 232.452 7.4 232.74 7.912C233.036 8.424 233.184 9.02 233.184 9.7C233.184 10.38 233.032 10.98 232.728 11.5C232.432 12.012 232.028 12.408 231.516 12.688C231.004 12.968 230.436 13.108 229.812 13.108ZM229.812 12.148C230.204 12.148 230.572 12.056 230.916 11.872C231.26 11.688 231.536 11.412 231.744 11.044C231.96 10.676 232.068 10.228 232.068 9.7C232.068 9.172 231.964 8.724 231.756 8.356C231.548 7.988 231.276 7.716 230.94 7.54C230.604 7.356 230.24 7.264 229.848 7.264C229.448 7.264 229.08 7.356 228.744 7.54C228.416 7.716 228.152 7.988 227.952 8.356C227.752 8.724 227.652 9.172 227.652 9.7C227.652 10.236 227.748 10.688 227.94 11.056C228.14 11.424 228.404 11.7 228.732 11.884C229.06 12.06 229.42 12.148 229.812 12.148ZM235.711 7.492C235.903 7.116 236.175 6.824 236.527 6.616C236.887 6.408 237.323 6.304 237.835 6.304V7.432H237.547C236.323 7.432 235.711 8.096 235.711 9.424V13H234.619V6.424H235.711V7.492ZM245.096 9.46C245.096 9.668 245.084 9.888 245.06 10.12H239.804C239.844 10.768 240.064 11.276 240.464 11.644C240.872 12.004 241.364 12.184 241.94 12.184C242.412 12.184 242.804 12.076 243.116 11.86C243.436 11.636 243.66 11.34 243.788 10.972H244.964C244.788 11.604 244.436 12.12 243.908 12.52C243.38 12.912 242.724 13.108 241.94 13.108C241.316 13.108 240.756 12.968 240.26 12.688C239.772 12.408 239.388 12.012 239.108 11.5C238.828 10.98 238.688 10.38 238.688 9.7C238.688 9.02 238.824 8.424 239.096 7.912C239.368 7.4 239.748 7.008 240.236 6.736C240.732 6.456 241.3 6.316 241.94 6.316C242.564 6.316 243.116 6.452 243.596 6.724C244.076 6.996 244.444 7.372 244.7 7.852C244.964 8.324 245.096 8.86 245.096 9.46ZM243.968 9.232C243.968 8.816 243.876 8.46 243.692 8.164C243.508 7.86 243.256 7.632 242.936 7.48C242.624 7.32 242.276 7.24 241.892 7.24C241.34 7.24 240.868 7.416 240.476 7.768C240.092 8.12 239.872 8.608 239.816 9.232H243.968ZM246.129 9.688C246.129 9.016 246.265 8.428 246.537 7.924C246.809 7.412 247.181 7.016 247.653 6.736C248.133 6.456 248.669 6.316 249.261 6.316C249.773 6.316 250.249 6.436 250.689 6.676C251.129 6.908 251.465 7.216 251.697 7.6V4.12H252.801V13H251.697V11.764C251.481 12.156 251.161 12.48 250.737 12.736C250.313 12.984 249.817 13.108 249.249 13.108C248.665 13.108 248.133 12.964 247.653 12.676C247.181 12.388 246.809 11.984 246.537 11.464C246.265 10.944 246.129 10.352 246.129 9.688ZM251.697 9.7C251.697 9.204 251.597 8.772 251.397 8.404C251.197 8.036 250.925 7.756 250.581 7.564C250.245 7.364 249.873 7.264 249.465 7.264C249.057 7.264 248.685 7.36 248.349 7.552C248.013 7.744 247.745 8.024 247.545 8.392C247.345 8.76 247.245 9.192 247.245 9.688C247.245 10.192 247.345 10.632 247.545 11.008C247.745 11.376 248.013 11.66 248.349 11.86C248.685 12.052 249.057 12.148 249.465 12.148C249.873 12.148 250.245 12.052 250.581 11.86C250.925 11.66 251.197 11.376 251.397 11.008C251.597 10.632 251.697 10.196 251.697 9.7ZM260.174 13.108C259.67 13.108 259.218 13.024 258.818 12.856C258.418 12.68 258.102 12.44 257.87 12.136C257.638 11.824 257.51 11.468 257.486 11.068H258.614C258.646 11.396 258.798 11.664 259.07 11.872C259.35 12.08 259.714 12.184 260.162 12.184C260.578 12.184 260.906 12.092 261.146 11.908C261.386 11.724 261.506 11.492 261.506 11.212C261.506 10.924 261.378 10.712 261.122 10.576C260.866 10.432 260.47 10.292 259.934 10.156C259.446 10.028 259.046 9.9 258.734 9.772C258.43 9.636 258.166 9.44 257.942 9.184C257.726 8.92 257.618 8.576 257.618 8.152C257.618 7.816 257.718 7.508 257.918 7.228C258.118 6.948 258.402 6.728 258.77 6.568C259.138 6.4 259.558 6.316 260.03 6.316C260.758 6.316 261.346 6.5 261.794 6.868C262.242 7.236 262.482 7.74 262.514 8.38H261.422C261.398 8.036 261.258 7.76 261.002 7.552C260.754 7.344 260.418 7.24 259.994 7.24C259.602 7.24 259.29 7.324 259.058 7.492C258.826 7.66 258.71 7.88 258.71 8.152C258.71 8.368 258.778 8.548 258.914 8.692C259.058 8.828 259.234 8.94 259.442 9.028C259.658 9.108 259.954 9.2 260.33 9.304C260.802 9.432 261.186 9.56 261.482 9.688C261.778 9.808 262.03 9.992 262.238 10.24C262.454 10.488 262.566 10.812 262.574 11.212C262.574 11.572 262.474 11.896 262.274 12.184C262.074 12.472 261.79 12.7 261.422 12.868C261.062 13.028 260.646 13.108 260.174 13.108ZM270.115 9.46C270.115 9.668 270.103 9.888 270.079 10.12H264.823C264.863 10.768 265.083 11.276 265.483 11.644C265.891 12.004 266.383 12.184 266.959 12.184C267.431 12.184 267.823 12.076 268.135 11.86C268.455 11.636 268.679 11.34 268.807 10.972H269.983C269.807 11.604 269.455 12.12 268.927 12.52C268.399 12.912 267.743 13.108 266.959 13.108C266.335 13.108 265.775 12.968 265.279 12.688C264.791 12.408 264.407 12.012 264.127 11.5C263.847 10.98 263.707 10.38 263.707 9.7C263.707 9.02 263.843 8.424 264.115 7.912C264.387 7.4 264.767 7.008 265.255 6.736C265.751 6.456 266.319 6.316 266.959 6.316C267.583 6.316 268.135 6.452 268.615 6.724C269.095 6.996 269.463 7.372 269.719 7.852C269.983 8.324 270.115 8.86 270.115 9.46ZM268.987 9.232C268.987 8.816 268.895 8.46 268.711 8.164C268.527 7.86 268.275 7.632 267.955 7.48C267.643 7.32 267.295 7.24 266.911 7.24C266.359 7.24 265.887 7.416 265.495 7.768C265.111 8.12 264.891 8.608 264.835 9.232H268.987ZM271.149 9.7C271.149 9.02 271.285 8.428 271.557 7.924C271.829 7.412 272.205 7.016 272.685 6.736C273.173 6.456 273.729 6.316 274.353 6.316C275.161 6.316 275.825 6.512 276.345 6.904C276.873 7.296 277.221 7.84 277.389 8.536H276.213C276.101 8.136 275.881 7.82 275.553 7.588C275.233 7.356 274.833 7.24 274.353 7.24C273.729 7.24 273.225 7.456 272.841 7.888C272.457 8.312 272.265 8.916 272.265 9.7C272.265 10.492 272.457 11.104 272.841 11.536C273.225 11.968 273.729 12.184 274.353 12.184C274.833 12.184 275.233 12.072 275.553 11.848C275.873 11.624 276.093 11.304 276.213 10.888H277.389C277.213 11.56 276.861 12.1 276.333 12.508C275.805 12.908 275.145 13.108 274.353 13.108C273.729 13.108 273.173 12.968 272.685 12.688C272.205 12.408 271.829 12.012 271.557 11.5C271.285 10.988 271.149 10.388 271.149 9.7ZM284.678 6.424V13H283.586V12.028C283.378 12.364 283.086 12.628 282.71 12.82C282.342 13.004 281.934 13.096 281.486 13.096C280.974 13.096 280.514 12.992 280.106 12.784C279.698 12.568 279.374 12.248 279.134 11.824C278.902 11.4 278.786 10.884 278.786 10.276V6.424H279.866V10.132C279.866 10.78 280.03 11.28 280.358 11.632C280.686 11.976 281.134 12.148 281.702 12.148C282.286 12.148 282.746 11.968 283.082 11.608C283.418 11.248 283.586 10.724 283.586 10.036V6.424H284.678ZM287.614 7.492C287.806 7.116 288.078 6.824 288.43 6.616C288.79 6.408 289.226 6.304 289.738 6.304V7.432H289.45C288.226 7.432 287.614 8.096 287.614 9.424V13H286.522V6.424H287.614V7.492ZM296.998 9.46C296.998 9.668 296.986 9.888 296.962 10.12H291.706C291.746 10.768 291.966 11.276 292.366 11.644C292.774 12.004 293.266 12.184 293.842 12.184C294.314 12.184 294.706 12.076 295.018 11.86C295.338 11.636 295.562 11.34 295.69 10.972H296.866C296.69 11.604 296.338 12.12 295.81 12.52C295.282 12.912 294.626 13.108 293.842 13.108C293.218 13.108 292.658 12.968 292.162 12.688C291.674 12.408 291.29 12.012 291.01 11.5C290.73 10.98 290.59 10.38 290.59 9.7C290.59 9.02 290.726 8.424 290.998 7.912C291.27 7.4 291.65 7.008 292.138 6.736C292.634 6.456 293.202 6.316 293.842 6.316C294.466 6.316 295.018 6.452 295.498 6.724C295.978 6.996 296.346 7.372 296.602 7.852C296.866 8.324 296.998 8.86 296.998 9.46ZM295.87 9.232C295.87 8.816 295.778 8.46 295.594 8.164C295.41 7.86 295.158 7.632 294.838 7.48C294.526 7.32 294.178 7.24 293.794 7.24C293.242 7.24 292.77 7.416 292.378 7.768C291.994 8.12 291.774 8.608 291.718 9.232H295.87ZM299.532 4.12V13H298.44V4.12H299.532ZM307.057 6.424L303.097 16.096H301.969L303.265 12.928L300.613 6.424H301.825L303.889 11.752L305.929 6.424H307.057ZM308.502 13.072C308.294 13.072 308.118 13 307.974 12.856C307.83 12.712 307.758 12.536 307.758 12.328C307.758 12.12 307.83 11.944 307.974 11.8C308.118 11.656 308.294 11.584 308.502 11.584C308.702 11.584 308.87 11.656 309.006 11.8C309.15 11.944 309.222 12.12 309.222 12.328C309.222 12.536 309.15 12.712 309.006 12.856C308.87 13 308.702 13.072 308.502 13.072Z" fill="#1E1E1E"/>
</svg>
