<svg width="334" height="44" viewBox="0 0 334 44" fill="none" xmlns="http://www.w3.org/2000/svg">
<g filter="url(#filter0_d_105_782)">
<rect x="4" width="326" height="36" rx="5" fill="white"/>
<rect x="4.5" y="0.5" width="325" height="35" rx="4.5" stroke="#03466E"/>
</g>
<path d="M306.573 23.4867L307.855 24.6667L315.098 18L307.855 11.3334L306.573 12.5134L312.534 18L306.573 23.4867Z" fill="#03466E"/>
<path d="M56.646 14.558V17.414H60.006V18.716H56.646V21.698H60.426V23H55.05V13.256H60.426V14.558H56.646ZM61.8598 19.108C61.8598 18.3333 62.0185 17.6473 62.3358 17.05C62.6625 16.4527 63.1011 15.9907 63.6518 15.664C64.2118 15.328 64.8325 15.16 65.5138 15.16C66.0178 15.16 66.5125 15.272 66.9978 15.496C67.4925 15.7107 67.8845 16 68.1738 16.364V12.64H69.7838V23H68.1738V21.838C67.9125 22.2113 67.5485 22.5193 67.0818 22.762C66.6245 23.0047 66.0971 23.126 65.4998 23.126C64.8278 23.126 64.2118 22.958 63.6518 22.622C63.1011 22.2767 62.6625 21.8007 62.3358 21.194C62.0185 20.578 61.8598 19.8827 61.8598 19.108ZM68.1738 19.136C68.1738 18.604 68.0618 18.142 67.8378 17.75C67.6231 17.358 67.3385 17.0593 66.9838 16.854C66.6291 16.6487 66.2465 16.546 65.8358 16.546C65.4251 16.546 65.0425 16.6487 64.6878 16.854C64.3331 17.05 64.0438 17.344 63.8198 17.736C63.6051 18.1187 63.4978 18.576 63.4978 19.108C63.4978 19.64 63.6051 20.1067 63.8198 20.508C64.0438 20.9093 64.3331 21.2173 64.6878 21.432C65.0518 21.6373 65.4345 21.74 65.8358 21.74C66.2465 21.74 66.6291 21.6373 66.9838 21.432C67.3385 21.2267 67.6231 20.928 67.8378 20.536C68.0618 20.1347 68.1738 19.668 68.1738 19.136ZM72.6921 14.264C72.4027 14.264 72.1601 14.166 71.9641 13.97C71.7681 13.774 71.6701 13.5313 71.6701 13.242C71.6701 12.9527 71.7681 12.71 71.9641 12.514C72.1601 12.318 72.4027 12.22 72.6921 12.22C72.9721 12.22 73.2101 12.318 73.4061 12.514C73.6021 12.71 73.7001 12.9527 73.7001 13.242C73.7001 13.5313 73.6021 13.774 73.4061 13.97C73.2101 14.166 72.9721 14.264 72.6921 14.264ZM73.4761 15.286V23H71.8801V15.286H73.4761ZM77.4335 16.588V20.858C77.4335 21.1473 77.4988 21.3573 77.6295 21.488C77.7695 21.6093 78.0028 21.67 78.3295 21.67H79.3095V23H78.0495C77.3308 23 76.7802 22.832 76.3975 22.496C76.0148 22.16 75.8235 21.614 75.8235 20.858V16.588H74.9135V15.286H75.8235V13.368H77.4335V15.286H79.3095V16.588H77.4335ZM91.2212 16.168C91.2212 16.6627 91.1045 17.1293 90.8712 17.568C90.6379 18.0067 90.2645 18.366 89.7512 18.646C89.2379 18.9167 88.5799 19.052 87.7772 19.052H86.0132V23H84.4172V13.27H87.7772C88.5239 13.27 89.1539 13.4007 89.6672 13.662C90.1899 13.914 90.5772 14.2593 90.8292 14.698C91.0905 15.1367 91.2212 15.6267 91.2212 16.168ZM87.7772 17.75C88.3839 17.75 88.8365 17.6147 89.1352 17.344C89.4339 17.064 89.5832 16.672 89.5832 16.168C89.5832 15.104 88.9812 14.572 87.7772 14.572H86.0132V17.75H87.7772ZM94.3394 16.406C94.5727 16.014 94.8807 15.7107 95.2634 15.496C95.6554 15.272 96.1174 15.16 96.6494 15.16V16.812H96.2434C95.618 16.812 95.142 16.9707 94.8154 17.288C94.498 17.6053 94.3394 18.156 94.3394 18.94V23H92.7434V15.286H94.3394V16.406ZM101.462 23.126C100.734 23.126 100.076 22.9627 99.4884 22.636C98.9004 22.3 98.4384 21.8333 98.1024 21.236C97.7664 20.6293 97.5984 19.9293 97.5984 19.136C97.5984 18.352 97.7711 17.6567 98.1164 17.05C98.4617 16.4433 98.9331 15.9767 99.5304 15.65C100.128 15.3233 100.795 15.16 101.532 15.16C102.27 15.16 102.937 15.3233 103.534 15.65C104.132 15.9767 104.603 16.4433 104.948 17.05C105.294 17.6567 105.466 18.352 105.466 19.136C105.466 19.92 105.289 20.6153 104.934 21.222C104.58 21.8287 104.094 22.3 103.478 22.636C102.872 22.9627 102.2 23.126 101.462 23.126ZM101.462 21.74C101.873 21.74 102.256 21.642 102.61 21.446C102.974 21.25 103.268 20.956 103.492 20.564C103.716 20.172 103.828 19.696 103.828 19.136C103.828 18.576 103.721 18.1047 103.506 17.722C103.292 17.33 103.007 17.036 102.652 16.84C102.298 16.644 101.915 16.546 101.504 16.546C101.094 16.546 100.711 16.644 100.356 16.84C100.011 17.036 99.7357 17.33 99.5304 17.722C99.3251 18.1047 99.2224 18.576 99.2224 19.136C99.2224 19.9667 99.4324 20.6107 99.8524 21.068C100.282 21.516 100.818 21.74 101.462 21.74ZM110.278 16.588H108.85V23H107.24V16.588H106.33V15.286H107.24V14.74C107.24 13.8533 107.473 13.2093 107.94 12.808C108.416 12.3973 109.158 12.192 110.166 12.192V13.522C109.681 13.522 109.34 13.6153 109.144 13.802C108.948 13.9793 108.85 14.292 108.85 14.74V15.286H110.278V16.588ZM112.505 14.264C112.215 14.264 111.973 14.166 111.777 13.97C111.581 13.774 111.483 13.5313 111.483 13.242C111.483 12.9527 111.581 12.71 111.777 12.514C111.973 12.318 112.215 12.22 112.505 12.22C112.785 12.22 113.023 12.318 113.219 12.514C113.415 12.71 113.513 12.9527 113.513 13.242C113.513 13.5313 113.415 13.774 113.219 13.97C113.023 14.166 112.785 14.264 112.505 14.264ZM113.289 15.286V23H111.693V15.286H113.289ZM116.98 12.64V23H115.384V12.64H116.98ZM126.145 18.954C126.145 19.2433 126.127 19.5047 126.089 19.738H120.195C120.242 20.354 120.471 20.8487 120.881 21.222C121.292 21.5953 121.796 21.782 122.393 21.782C123.252 21.782 123.859 21.4227 124.213 20.704H125.935C125.702 21.4133 125.277 21.9967 124.661 22.454C124.055 22.902 123.299 23.126 122.393 23.126C121.656 23.126 120.993 22.9627 120.405 22.636C119.827 22.3 119.369 21.8333 119.033 21.236C118.707 20.6293 118.543 19.9293 118.543 19.136C118.543 18.3427 118.702 17.6473 119.019 17.05C119.346 16.4433 119.799 15.9767 120.377 15.65C120.965 15.3233 121.637 15.16 122.393 15.16C123.121 15.16 123.77 15.3187 124.339 15.636C124.909 15.9533 125.352 16.4013 125.669 16.98C125.987 17.5493 126.145 18.2073 126.145 18.954ZM124.479 18.45C124.47 17.862 124.26 17.3907 123.849 17.036C123.439 16.6813 122.93 16.504 122.323 16.504C121.773 16.504 121.301 16.6813 120.909 17.036C120.517 17.3813 120.284 17.8527 120.209 18.45H124.479Z" fill="#03466E"/>
<path d="M39 27V25C39 23.9391 38.5786 22.9217 37.8284 22.1716C37.0783 21.4214 36.0609 21 35 21H27C25.9391 21 24.9217 21.4214 24.1716 22.1716C23.4214 22.9217 23 23.9391 23 25V27" stroke="#03466E" stroke-width="2" stroke-linecap="round" stroke-linejoin="round"/>
<path d="M31 17C33.2091 17 35 15.2091 35 13C35 10.7909 33.2091 9 31 9C28.7909 9 27 10.7909 27 13C27 15.2091 28.7909 17 31 17Z" stroke="#03466E" stroke-width="2" stroke-linecap="round" stroke-linejoin="round"/>
<defs>
<filter id="filter0_d_105_782" x="0" y="0" width="334" height="44" filterUnits="userSpaceOnUse" color-interpolation-filters="sRGB">
<feFlood flood-opacity="0" result="BackgroundImageFix"/>
<feColorMatrix in="SourceAlpha" type="matrix" values="0 0 0 0 0 0 0 0 0 0 0 0 0 0 0 0 0 0 127 0" result="hardAlpha"/>
<feOffset dy="4"/>
<feGaussianBlur stdDeviation="2"/>
<feComposite in2="hardAlpha" operator="out"/>
<feColorMatrix type="matrix" values="0 0 0 0 0 0 0 0 0 0 0 0 0 0 0 0 0 0 0.25 0"/>
<feBlend mode="normal" in2="BackgroundImageFix" result="effect1_dropShadow_105_782"/>
<feBlend mode="normal" in="SourceGraphic" in2="effect1_dropShadow_105_782" result="shape"/>
</filter>
</defs>
</svg>
