<svg width="334" height="44" viewBox="0 0 334 44" fill="none" xmlns="http://www.w3.org/2000/svg">
<g filter="url(#filter0_d_105_763)">
<rect x="4" width="326" height="36" rx="5" fill="white"/>
<rect x="4.5" y="0.5" width="325" height="35" rx="4.5" stroke="#03466E"/>
</g>
<path d="M305.548 23.4867L306.781 24.6667L313.746 18L306.781 11.3334L305.548 12.5134L311.281 18L305.548 23.4867Z" fill="#03466E"/>
<path d="M60.412 23L56.646 18.646V23H55.05V13.27H56.646V17.708L60.426 13.27H62.428L58.2 18.142L62.498 23H60.412ZM71.1194 13.27L67.8994 19.472V23H66.3034V19.472L63.0694 13.27H64.8474L67.1014 18.044L69.3554 13.27H71.1194ZM71.8539 18.114C71.8539 17.162 72.0733 16.308 72.5119 15.552C72.9599 14.796 73.5619 14.208 74.3179 13.788C75.0833 13.3587 75.9186 13.144 76.8239 13.144C77.8599 13.144 78.7793 13.4007 79.5819 13.914C80.3939 14.418 80.9819 15.1367 81.3459 16.07H79.4279C79.1759 15.5567 78.8259 15.174 78.3779 14.922C77.9299 14.67 77.4119 14.544 76.8239 14.544C76.1799 14.544 75.6059 14.6887 75.1019 14.978C74.5979 15.2673 74.2013 15.6827 73.9119 16.224C73.6319 16.7653 73.4919 17.3953 73.4919 18.114C73.4919 18.8327 73.6319 19.4627 73.9119 20.004C74.2013 20.5453 74.5979 20.9653 75.1019 21.264C75.6059 21.5533 76.1799 21.698 76.8239 21.698C77.4119 21.698 77.9299 21.572 78.3779 21.32C78.8259 21.068 79.1759 20.6853 79.4279 20.172H81.3459C80.9819 21.1053 80.3939 21.824 79.5819 22.328C78.7793 22.832 77.8599 23.084 76.8239 23.084C75.9093 23.084 75.0739 22.874 74.3179 22.454C73.5619 22.0247 72.9599 21.432 72.5119 20.676C72.0733 19.92 71.8539 19.066 71.8539 18.114ZM95.2368 13.27L91.5828 23H89.7348L86.0668 13.27H87.7748L90.6588 21.362L93.5568 13.27H95.2368ZM103.641 18.954C103.641 19.2433 103.623 19.5047 103.585 19.738H97.6915C97.7382 20.354 97.9668 20.8487 98.3775 21.222C98.7882 21.5953 99.2922 21.782 99.8895 21.782C100.748 21.782 101.355 21.4227 101.709 20.704H103.431C103.198 21.4133 102.773 21.9967 102.157 22.454C101.551 22.902 100.795 23.126 99.8895 23.126C99.1522 23.126 98.4895 22.9627 97.9015 22.636C97.3228 22.3 96.8655 21.8333 96.5295 21.236C96.2028 20.6293 96.0395 19.9293 96.0395 19.136C96.0395 18.3427 96.1982 17.6473 96.5155 17.05C96.8422 16.4433 97.2948 15.9767 97.8735 15.65C98.4615 15.3233 99.1335 15.16 99.8895 15.16C100.617 15.16 101.266 15.3187 101.835 15.636C102.405 15.9533 102.848 16.4013 103.165 16.98C103.483 17.5493 103.641 18.2073 103.641 18.954ZM101.975 18.45C101.966 17.862 101.756 17.3907 101.345 17.036C100.935 16.6813 100.426 16.504 99.8195 16.504C99.2688 16.504 98.7975 16.6813 98.4055 17.036C98.0135 17.3813 97.7802 17.8527 97.7055 18.45H101.975ZM106.808 16.406C107.041 16.014 107.349 15.7107 107.732 15.496C108.124 15.272 108.586 15.16 109.118 15.16V16.812H108.712C108.087 16.812 107.611 16.9707 107.284 17.288C106.967 17.6053 106.808 18.156 106.808 18.94V23H105.212V15.286H106.808V16.406ZM111.397 14.264C111.108 14.264 110.865 14.166 110.669 13.97C110.473 13.774 110.375 13.5313 110.375 13.242C110.375 12.9527 110.473 12.71 110.669 12.514C110.865 12.318 111.108 12.22 111.397 12.22C111.677 12.22 111.915 12.318 112.111 12.514C112.307 12.71 112.405 12.9527 112.405 13.242C112.405 13.5313 112.307 13.774 112.111 13.97C111.915 14.166 111.677 14.264 111.397 14.264ZM112.181 15.286V23H110.585V15.286H112.181ZM117.511 16.588H116.083V23H114.473V16.588H113.563V15.286H114.473V14.74C114.473 13.8533 114.706 13.2093 115.173 12.808C115.649 12.3973 116.391 12.192 117.399 12.192V13.522C116.913 13.522 116.573 13.6153 116.377 13.802C116.181 13.9793 116.083 14.292 116.083 14.74V15.286H117.511V16.588ZM119.737 14.264C119.448 14.264 119.205 14.166 119.009 13.97C118.813 13.774 118.715 13.5313 118.715 13.242C118.715 12.9527 118.813 12.71 119.009 12.514C119.205 12.318 119.448 12.22 119.737 12.22C120.017 12.22 120.255 12.318 120.451 12.514C120.647 12.71 120.745 12.9527 120.745 13.242C120.745 13.5313 120.647 13.774 120.451 13.97C120.255 14.166 120.017 14.264 119.737 14.264ZM120.521 15.286V23H118.925V15.286H120.521ZM122.084 19.136C122.084 18.3427 122.243 17.6473 122.56 17.05C122.887 16.4433 123.335 15.9767 123.904 15.65C124.474 15.3233 125.127 15.16 125.864 15.16C126.798 15.16 127.568 15.384 128.174 15.832C128.79 16.2707 129.206 16.9007 129.42 17.722H127.698C127.558 17.3393 127.334 17.0407 127.026 16.826C126.718 16.6113 126.331 16.504 125.864 16.504C125.211 16.504 124.688 16.7373 124.296 17.204C123.914 17.6613 123.722 18.3053 123.722 19.136C123.722 19.9667 123.914 20.6153 124.296 21.082C124.688 21.5487 125.211 21.782 125.864 21.782C126.788 21.782 127.4 21.376 127.698 20.564H129.42C129.196 21.348 128.776 21.9733 128.16 22.44C127.544 22.8973 126.779 23.126 125.864 23.126C125.127 23.126 124.474 22.9627 123.904 22.636C123.335 22.3 122.887 21.8333 122.56 21.236C122.243 20.6293 122.084 19.9293 122.084 19.136ZM130.479 19.108C130.479 18.3333 130.638 17.6473 130.955 17.05C131.282 16.4527 131.72 15.9907 132.271 15.664C132.831 15.328 133.447 15.16 134.119 15.16C134.726 15.16 135.253 15.2813 135.701 15.524C136.158 15.7573 136.522 16.0513 136.793 16.406V15.286H138.403V23H136.793V21.852C136.522 22.216 136.154 22.5193 135.687 22.762C135.22 23.0047 134.688 23.126 134.091 23.126C133.428 23.126 132.822 22.958 132.271 22.622C131.72 22.2767 131.282 21.8007 130.955 21.194C130.638 20.578 130.479 19.8827 130.479 19.108ZM136.793 19.136C136.793 18.604 136.681 18.142 136.457 17.75C136.242 17.358 135.958 17.0593 135.603 16.854C135.248 16.6487 134.866 16.546 134.455 16.546C134.044 16.546 133.662 16.6487 133.307 16.854C132.952 17.05 132.663 17.344 132.439 17.736C132.224 18.1187 132.117 18.576 132.117 19.108C132.117 19.64 132.224 20.1067 132.439 20.508C132.663 20.9093 132.952 21.2173 133.307 21.432C133.671 21.6373 134.054 21.74 134.455 21.74C134.866 21.74 135.248 21.6373 135.603 21.432C135.958 21.2267 136.242 20.928 136.457 20.536C136.681 20.1347 136.793 19.668 136.793 19.136ZM142.361 16.588V20.858C142.361 21.1473 142.427 21.3573 142.557 21.488C142.697 21.6093 142.931 21.67 143.257 21.67H144.237V23H142.977C142.259 23 141.708 22.832 141.325 22.496C140.943 22.16 140.751 21.614 140.751 20.858V16.588H139.841V15.286H140.751V13.368H142.361V15.286H144.237V16.588H142.361ZM146.52 14.264C146.231 14.264 145.988 14.166 145.792 13.97C145.596 13.774 145.498 13.5313 145.498 13.242C145.498 12.9527 145.596 12.71 145.792 12.514C145.988 12.318 146.231 12.22 146.52 12.22C146.8 12.22 147.038 12.318 147.234 12.514C147.43 12.71 147.528 12.9527 147.528 13.242C147.528 13.5313 147.43 13.774 147.234 13.97C147.038 14.166 146.8 14.264 146.52 14.264ZM147.304 15.286V23H145.708V15.286H147.304ZM152.746 23.126C152.018 23.126 151.36 22.9627 150.772 22.636C150.184 22.3 149.722 21.8333 149.386 21.236C149.05 20.6293 148.882 19.9293 148.882 19.136C148.882 18.352 149.054 17.6567 149.4 17.05C149.745 16.4433 150.216 15.9767 150.814 15.65C151.411 15.3233 152.078 15.16 152.816 15.16C153.553 15.16 154.22 15.3233 154.818 15.65C155.415 15.9767 155.886 16.4433 156.232 17.05C156.577 17.6567 156.75 18.352 156.75 19.136C156.75 19.92 156.572 20.6153 156.218 21.222C155.863 21.8287 155.378 22.3 154.762 22.636C154.155 22.9627 153.483 23.126 152.746 23.126ZM152.746 21.74C153.156 21.74 153.539 21.642 153.894 21.446C154.258 21.25 154.552 20.956 154.776 20.564C155 20.172 155.112 19.696 155.112 19.136C155.112 18.576 155.004 18.1047 154.79 17.722C154.575 17.33 154.29 17.036 153.936 16.84C153.581 16.644 153.198 16.546 152.788 16.546C152.377 16.546 151.994 16.644 151.64 16.84C151.294 17.036 151.019 17.33 150.814 17.722C150.608 18.1047 150.506 18.576 150.506 19.136C150.506 19.9667 150.716 20.6107 151.136 21.068C151.565 21.516 152.102 21.74 152.746 21.74ZM162.219 15.16C162.826 15.16 163.367 15.286 163.843 15.538C164.329 15.79 164.707 16.1633 164.977 16.658C165.248 17.1527 165.383 17.75 165.383 18.45V23H163.801V18.688C163.801 17.9973 163.629 17.47 163.283 17.106C162.938 16.7327 162.467 16.546 161.869 16.546C161.272 16.546 160.796 16.7327 160.441 17.106C160.096 17.47 159.923 17.9973 159.923 18.688V23H158.327V15.286H159.923V16.168C160.185 15.8507 160.516 15.6033 160.917 15.426C161.328 15.2487 161.762 15.16 162.219 15.16Z" fill="#03466E"/>
<path d="M30 8H23C22.4696 8 21.9609 8.21071 21.5858 8.58579C21.2107 8.96086 21 9.46957 21 10V26C21 26.5304 21.2107 27.0391 21.5858 27.4142C21.9609 27.7893 22.4696 28 23 28H35C35.5304 28 36.0391 27.7893 36.4142 27.4142C36.7893 27.0391 37 26.5304 37 26V15L30 8Z" stroke="#03466E" stroke-width="2" stroke-linecap="round" stroke-linejoin="round"/>
<path d="M30 8V15H37" stroke="#03466E" stroke-width="2" stroke-linecap="round" stroke-linejoin="round"/>
<defs>
<filter id="filter0_d_105_763" x="0" y="0" width="334" height="44" filterUnits="userSpaceOnUse" color-interpolation-filters="sRGB">
<feFlood flood-opacity="0" result="BackgroundImageFix"/>
<feColorMatrix in="SourceAlpha" type="matrix" values="0 0 0 0 0 0 0 0 0 0 0 0 0 0 0 0 0 0 127 0" result="hardAlpha"/>
<feOffset dy="4"/>
<feGaussianBlur stdDeviation="2"/>
<feComposite in2="hardAlpha" operator="out"/>
<feColorMatrix type="matrix" values="0 0 0 0 0 0 0 0 0 0 0 0 0 0 0 0 0 0 0.25 0"/>
<feBlend mode="normal" in2="BackgroundImageFix" result="effect1_dropShadow_105_763"/>
<feBlend mode="normal" in="SourceGraphic" in2="effect1_dropShadow_105_763" result="shape"/>
</filter>
</defs>
</svg>
