<svg width="334" height="44" viewBox="0 0 334 44" fill="none" xmlns="http://www.w3.org/2000/svg">
<g filter="url(#filter0_d_106_783)">
<rect x="4" width="326" height="36" rx="5" fill="white"/>
<rect x="4.5" y="0.5" width="325" height="35" rx="4.5" stroke="#03466E"/>
</g>
<path d="M305.548 23.4866L306.781 24.6666L313.746 18L306.781 11.3333L305.548 12.5133L311.281 18L305.548 23.4866Z" fill="#03466E"/>
<path d="M60.916 21.012H56.842L56.142 23H54.476L57.962 13.256H59.81L63.296 23H61.616L60.916 21.012ZM60.468 19.71L58.886 15.188L57.29 19.71H60.468ZM66.4077 16.42C66.6784 16.0653 67.0471 15.7667 67.5137 15.524C67.9804 15.2813 68.5077 15.16 69.0957 15.16C69.7677 15.16 70.3791 15.328 70.9297 15.664C71.4897 15.9907 71.9284 16.4527 72.2457 17.05C72.5631 17.6473 72.7217 18.3333 72.7217 19.108C72.7217 19.8827 72.5631 20.578 72.2457 21.194C71.9284 21.8007 71.4897 22.2767 70.9297 22.622C70.3791 22.958 69.7677 23.126 69.0957 23.126C68.5077 23.126 67.9851 23.0093 67.5277 22.776C67.0704 22.5333 66.6971 22.2347 66.4077 21.88V26.668H64.8117V15.286H66.4077V16.42ZM71.0977 19.108C71.0977 18.576 70.9857 18.1187 70.7617 17.736C70.5471 17.344 70.2577 17.05 69.8937 16.854C69.5391 16.6487 69.1564 16.546 68.7457 16.546C68.3444 16.546 67.9617 16.6487 67.5977 16.854C67.2431 17.0593 66.9537 17.358 66.7297 17.75C66.5151 18.142 66.4077 18.604 66.4077 19.136C66.4077 19.668 66.5151 20.1347 66.7297 20.536C66.9537 20.928 67.2431 21.2267 67.5977 21.432C67.9617 21.6373 68.3444 21.74 68.7457 21.74C69.1564 21.74 69.5391 21.6373 69.8937 21.432C70.2577 21.2173 70.5471 20.9093 70.7617 20.508C70.9857 20.1067 71.0977 19.64 71.0977 19.108ZM75.896 16.42C76.1667 16.0653 76.5353 15.7667 77.002 15.524C77.4687 15.2813 77.996 15.16 78.584 15.16C79.256 15.16 79.8673 15.328 80.418 15.664C80.978 15.9907 81.4167 16.4527 81.734 17.05C82.0513 17.6473 82.21 18.3333 82.21 19.108C82.21 19.8827 82.0513 20.578 81.734 21.194C81.4167 21.8007 80.978 22.2767 80.418 22.622C79.8673 22.958 79.256 23.126 78.584 23.126C77.996 23.126 77.4733 23.0093 77.016 22.776C76.5587 22.5333 76.1853 22.2347 75.896 21.88V26.668H74.3V15.286H75.896V16.42ZM80.586 19.108C80.586 18.576 80.474 18.1187 80.25 17.736C80.0353 17.344 79.746 17.05 79.382 16.854C79.0273 16.6487 78.6447 16.546 78.234 16.546C77.8327 16.546 77.45 16.6487 77.086 16.854C76.7313 17.0593 76.442 17.358 76.218 17.75C76.0033 18.142 75.896 18.604 75.896 19.136C75.896 19.668 76.0033 20.1347 76.218 20.536C76.442 20.928 76.7313 21.2267 77.086 21.432C77.45 21.6373 77.8327 21.74 78.234 21.74C78.6447 21.74 79.0273 21.6373 79.382 21.432C79.746 21.2173 80.0353 20.9093 80.25 20.508C80.474 20.1067 80.586 19.64 80.586 19.108ZM90.631 23.098C89.9777 23.098 89.3897 22.986 88.867 22.762C88.3443 22.5287 87.9337 22.202 87.635 21.782C87.3363 21.362 87.187 20.872 87.187 20.312H88.895C88.9323 20.732 89.0957 21.0773 89.385 21.348C89.6837 21.6187 90.099 21.754 90.631 21.754C91.1817 21.754 91.611 21.6233 91.919 21.362C92.227 21.0913 92.381 20.746 92.381 20.326C92.381 19.9993 92.283 19.7333 92.087 19.528C91.9003 19.3227 91.6623 19.164 91.373 19.052C91.093 18.94 90.701 18.8187 90.197 18.688C89.5623 18.52 89.0443 18.352 88.643 18.184C88.251 18.0067 87.915 17.736 87.635 17.372C87.355 17.008 87.215 16.5227 87.215 15.916C87.215 15.356 87.355 14.866 87.635 14.446C87.915 14.026 88.307 13.704 88.811 13.48C89.315 13.256 89.8983 13.144 90.561 13.144C91.5037 13.144 92.2737 13.382 92.871 13.858C93.4777 14.3247 93.8137 14.9687 93.879 15.79H92.115C92.087 15.4353 91.919 15.132 91.611 14.88C91.303 14.628 90.897 14.502 90.393 14.502C89.9357 14.502 89.5623 14.6187 89.273 14.852C88.9837 15.0853 88.839 15.4213 88.839 15.86C88.839 16.1587 88.9277 16.406 89.105 16.602C89.2917 16.7887 89.525 16.938 89.805 17.05C90.085 17.162 90.4677 17.2833 90.953 17.414C91.597 17.5913 92.1197 17.7687 92.521 17.946C92.9317 18.1233 93.277 18.3987 93.557 18.772C93.8463 19.136 93.991 19.626 93.991 20.242C93.991 20.7367 93.8557 21.2033 93.585 21.642C93.3237 22.0807 92.9363 22.4353 92.423 22.706C91.919 22.9673 91.3217 23.098 90.631 23.098ZM102.944 18.954C102.944 19.2433 102.926 19.5047 102.888 19.738H96.9942C97.0409 20.354 97.2696 20.8487 97.6802 21.222C98.0909 21.5953 98.5949 21.782 99.1922 21.782C100.051 21.782 100.658 21.4227 101.012 20.704H102.734C102.501 21.4133 102.076 21.9967 101.46 22.454C100.854 22.902 100.098 23.126 99.1922 23.126C98.4549 23.126 97.7922 22.9627 97.2042 22.636C96.6256 22.3 96.1682 21.8333 95.8322 21.236C95.5056 20.6293 95.3422 19.9293 95.3422 19.136C95.3422 18.3427 95.5009 17.6473 95.8182 17.05C96.1449 16.4433 96.5976 15.9767 97.1762 15.65C97.7642 15.3233 98.4362 15.16 99.1922 15.16C99.9202 15.16 100.569 15.3187 101.138 15.636C101.708 15.9533 102.151 16.4013 102.468 16.98C102.786 17.5493 102.944 18.2073 102.944 18.954ZM101.278 18.45C101.269 17.862 101.059 17.3907 100.648 17.036C100.238 16.6813 99.7289 16.504 99.1222 16.504C98.5716 16.504 98.1002 16.6813 97.7082 17.036C97.3162 17.3813 97.0829 17.8527 97.0082 18.45H101.278ZM106.377 16.588V20.858C106.377 21.1473 106.442 21.3573 106.573 21.488C106.713 21.6093 106.946 21.67 107.273 21.67H108.253V23H106.993C106.274 23 105.724 22.832 105.341 22.496C104.958 22.16 104.767 21.614 104.767 20.858V16.588H103.857V15.286H104.767V13.368H106.377V15.286H108.253V16.588H106.377ZM111.586 16.588V20.858C111.586 21.1473 111.651 21.3573 111.782 21.488C111.922 21.6093 112.155 21.67 112.482 21.67H113.462V23H112.202C111.483 23 110.932 22.832 110.55 22.496C110.167 22.16 109.976 21.614 109.976 20.858V16.588H109.066V15.286H109.976V13.368H111.586V15.286H113.462V16.588H111.586ZM115.745 14.264C115.455 14.264 115.213 14.166 115.017 13.97C114.821 13.774 114.723 13.5313 114.723 13.242C114.723 12.9527 114.821 12.71 115.017 12.514C115.213 12.318 115.455 12.22 115.745 12.22C116.025 12.22 116.263 12.318 116.459 12.514C116.655 12.71 116.753 12.9527 116.753 13.242C116.753 13.5313 116.655 13.774 116.459 13.97C116.263 14.166 116.025 14.264 115.745 14.264ZM116.529 15.286V23H114.933V15.286H116.529ZM122.516 15.16C123.123 15.16 123.664 15.286 124.14 15.538C124.626 15.79 125.004 16.1633 125.274 16.658C125.545 17.1527 125.68 17.75 125.68 18.45V23H124.098V18.688C124.098 17.9973 123.926 17.47 123.58 17.106C123.235 16.7327 122.764 16.546 122.166 16.546C121.569 16.546 121.093 16.7327 120.738 17.106C120.393 17.47 120.22 17.9973 120.22 18.688V23H118.624V15.286H120.22V16.168C120.482 15.8507 120.813 15.6033 121.214 15.426C121.625 15.2487 122.059 15.16 122.516 15.16ZM130.824 15.16C131.421 15.16 131.949 15.2813 132.406 15.524C132.873 15.7573 133.237 16.0513 133.498 16.406V15.286H135.108V23.126C135.108 23.8353 134.959 24.4653 134.66 25.016C134.361 25.576 133.927 26.0147 133.358 26.332C132.798 26.6493 132.126 26.808 131.342 26.808C130.297 26.808 129.429 26.5607 128.738 26.066C128.047 25.5807 127.655 24.918 127.562 24.078H129.144C129.265 24.4793 129.522 24.8013 129.914 25.044C130.315 25.296 130.791 25.422 131.342 25.422C131.986 25.422 132.504 25.226 132.896 24.834C133.297 24.442 133.498 23.8727 133.498 23.126V21.838C133.227 22.202 132.859 22.51 132.392 22.762C131.935 23.0047 131.412 23.126 130.824 23.126C130.152 23.126 129.536 22.958 128.976 22.622C128.425 22.2767 127.987 21.8007 127.66 21.194C127.343 20.578 127.184 19.8827 127.184 19.108C127.184 18.3333 127.343 17.6473 127.66 17.05C127.987 16.4527 128.425 15.9907 128.976 15.664C129.536 15.328 130.152 15.16 130.824 15.16ZM133.498 19.136C133.498 18.604 133.386 18.142 133.162 17.75C132.947 17.358 132.663 17.0593 132.308 16.854C131.953 16.6487 131.571 16.546 131.16 16.546C130.749 16.546 130.367 16.6487 130.012 16.854C129.657 17.05 129.368 17.344 129.144 17.736C128.929 18.1187 128.822 18.576 128.822 19.108C128.822 19.64 128.929 20.1067 129.144 20.508C129.368 20.9093 129.657 21.2173 130.012 21.432C130.376 21.6373 130.759 21.74 131.16 21.74C131.571 21.74 131.953 21.6373 132.308 21.432C132.663 21.2267 132.947 20.928 133.162 20.536C133.386 20.1347 133.498 19.668 133.498 19.136ZM140.004 23.126C139.398 23.126 138.852 23.0187 138.366 22.804C137.89 22.58 137.512 22.2813 137.232 21.908C136.952 21.5253 136.803 21.1007 136.784 20.634H138.436C138.464 20.9607 138.618 21.236 138.898 21.46C139.188 21.6747 139.547 21.782 139.976 21.782C140.424 21.782 140.77 21.698 141.012 21.53C141.264 21.3527 141.39 21.1287 141.39 20.858C141.39 20.5687 141.25 20.354 140.97 20.214C140.7 20.074 140.266 19.92 139.668 19.752C139.09 19.5933 138.618 19.4393 138.254 19.29C137.89 19.1407 137.573 18.912 137.302 18.604C137.041 18.296 136.91 17.89 136.91 17.386C136.91 16.9753 137.032 16.602 137.274 16.266C137.517 15.9207 137.862 15.65 138.31 15.454C138.768 15.258 139.29 15.16 139.878 15.16C140.756 15.16 141.46 15.384 141.992 15.832C142.534 16.2707 142.823 16.8727 142.86 17.638H141.264C141.236 17.2927 141.096 17.0173 140.844 16.812C140.592 16.6067 140.252 16.504 139.822 16.504C139.402 16.504 139.08 16.5833 138.856 16.742C138.632 16.9007 138.52 17.1107 138.52 17.372C138.52 17.5773 138.595 17.75 138.744 17.89C138.894 18.03 139.076 18.142 139.29 18.226C139.505 18.3007 139.822 18.3987 140.242 18.52C140.802 18.6693 141.26 18.8233 141.614 18.982C141.978 19.1313 142.291 19.3553 142.552 19.654C142.814 19.9527 142.949 20.3493 142.958 20.844C142.958 21.2827 142.837 21.6747 142.594 22.02C142.352 22.3653 142.006 22.636 141.558 22.832C141.12 23.028 140.602 23.126 140.004 23.126Z" fill="#03466E"/>
<g clip-path="url(#clip0_106_783)">
<path d="M33 21C34.6569 21 36 19.6569 36 18C36 16.3431 34.6569 15 33 15C31.3431 15 30 16.3431 30 18C30 19.6569 31.3431 21 33 21Z" stroke="#03466E" stroke-width="2" stroke-linecap="round" stroke-linejoin="round"/>
<path d="M40.4 21C40.2669 21.3016 40.2272 21.6362 40.286 21.9606C40.3448 22.285 40.4995 22.5843 40.73 22.82L40.79 22.88C40.976 23.0657 41.1235 23.2863 41.2241 23.5291C41.3248 23.7719 41.3766 24.0322 41.3766 24.295C41.3766 24.5578 41.3248 24.8181 41.2241 25.0609C41.1235 25.3037 40.976 25.5243 40.79 25.71C40.6043 25.896 40.3837 26.0435 40.1409 26.1441C39.8981 26.2448 39.6378 26.2966 39.375 26.2966C39.1122 26.2966 38.8519 26.2448 38.6091 26.1441C38.3663 26.0435 38.1457 25.896 37.96 25.71L37.9 25.65C37.6643 25.4195 37.365 25.2648 37.0406 25.206C36.7162 25.1472 36.3816 25.1869 36.08 25.32C35.7842 25.4468 35.532 25.6572 35.3543 25.9255C35.1766 26.1938 35.0813 26.5082 35.08 26.83V27C35.08 27.5304 34.8693 28.0391 34.4942 28.4142C34.1191 28.7893 33.6104 29 33.08 29C32.5496 29 32.0409 28.7893 31.6658 28.4142C31.2907 28.0391 31.08 27.5304 31.08 27V26.91C31.0723 26.579 30.9651 26.258 30.7725 25.9887C30.5799 25.7194 30.3107 25.5143 30 25.4C29.6984 25.2669 29.3638 25.2272 29.0394 25.286C28.715 25.3448 28.4157 25.4995 28.18 25.73L28.12 25.79C27.9343 25.976 27.7137 26.1235 27.4709 26.2241C27.2281 26.3248 26.9678 26.3766 26.705 26.3766C26.4422 26.3766 26.1819 26.3248 25.9391 26.2241C25.6963 26.1235 25.4757 25.976 25.29 25.79C25.104 25.6043 24.9565 25.3837 24.8559 25.1409C24.7552 24.8981 24.7034 24.6378 24.7034 24.375C24.7034 24.1122 24.7552 23.8519 24.8559 23.6091C24.9565 23.3663 25.104 23.1457 25.29 22.96L25.35 22.9C25.5805 22.6643 25.7352 22.365 25.794 22.0406C25.8528 21.7162 25.8131 21.3816 25.68 21.08C25.5532 20.7842 25.3428 20.532 25.0745 20.3543C24.8062 20.1766 24.4918 20.0813 24.17 20.08H24C23.4696 20.08 22.9609 19.8693 22.5858 19.4942C22.2107 19.1191 22 18.6104 22 18.08C22 17.5496 22.2107 17.0409 22.5858 16.6658C22.9609 16.2907 23.4696 16.08 24 16.08H24.09C24.421 16.0723 24.742 15.9651 25.0113 15.7725C25.2806 15.5799 25.4857 15.3107 25.6 15C25.7331 14.6984 25.7728 14.3638 25.714 14.0394C25.6552 13.715 25.5005 13.4157 25.27 13.18L25.21 13.12C25.024 12.9343 24.8765 12.7137 24.7759 12.4709C24.6752 12.2281 24.6234 11.9678 24.6234 11.705C24.6234 11.4422 24.6752 11.1819 24.7759 10.9391C24.8765 10.6963 25.024 10.4757 25.21 10.29C25.3957 10.104 25.6163 9.95653 25.8591 9.85588C26.1019 9.75523 26.3622 9.70343 26.625 9.70343C26.8878 9.70343 27.1481 9.75523 27.3909 9.85588C27.6337 9.95653 27.8543 10.104 28.04 10.29L28.1 10.35C28.3357 10.5805 28.635 10.7352 28.9594 10.794C29.2838 10.8528 29.6184 10.8131 29.92 10.68H30C30.2958 10.5532 30.548 10.3428 30.7257 10.0745C30.9034 9.80618 30.9987 9.49179 31 9.17V9C31 8.46957 31.2107 7.96086 31.5858 7.58579C31.9609 7.21071 32.4696 7 33 7C33.5304 7 34.0391 7.21071 34.4142 7.58579C34.7893 7.96086 35 8.46957 35 9V9.09C35.0013 9.41179 35.0966 9.72618 35.2743 9.99447C35.452 10.2628 35.7042 10.4732 36 10.6C36.3016 10.7331 36.6362 10.7728 36.9606 10.714C37.285 10.6552 37.5843 10.5005 37.82 10.27L37.88 10.21C38.0657 10.024 38.2863 9.87653 38.5291 9.77588C38.7719 9.67523 39.0322 9.62343 39.295 9.62343C39.5578 9.62343 39.8181 9.67523 40.0609 9.77588C40.3037 9.87653 40.5243 10.024 40.71 10.21C40.896 10.3957 41.0435 10.6163 41.1441 10.8591C41.2448 11.1019 41.2966 11.3622 41.2966 11.625C41.2966 11.8878 41.2448 12.1481 41.1441 12.3909C41.0435 12.6337 40.896 12.8543 40.71 13.04L40.65 13.1C40.4195 13.3357 40.2648 13.635 40.206 13.9594C40.1472 14.2838 40.1869 14.6184 40.32 14.92V15C40.4468 15.2958 40.6572 15.548 40.9255 15.7257C41.1938 15.9034 41.5082 15.9987 41.83 16H42C42.5304 16 43.0391 16.2107 43.4142 16.5858C43.7893 16.9609 44 17.4696 44 18C44 18.5304 43.7893 19.0391 43.4142 19.4142C43.0391 19.7893 42.5304 20 42 20H41.91C41.5882 20.0013 41.2738 20.0966 41.0055 20.2743C40.7372 20.452 40.5268 20.7042 40.4 21Z" stroke="#03466E" stroke-width="2" stroke-linecap="round" stroke-linejoin="round"/>
</g>
<defs>
<filter id="filter0_d_106_783" x="0" y="0" width="334" height="44" filterUnits="userSpaceOnUse" color-interpolation-filters="sRGB">
<feFlood flood-opacity="0" result="BackgroundImageFix"/>
<feColorMatrix in="SourceAlpha" type="matrix" values="0 0 0 0 0 0 0 0 0 0 0 0 0 0 0 0 0 0 127 0" result="hardAlpha"/>
<feOffset dy="4"/>
<feGaussianBlur stdDeviation="2"/>
<feComposite in2="hardAlpha" operator="out"/>
<feColorMatrix type="matrix" values="0 0 0 0 0 0 0 0 0 0 0 0 0 0 0 0 0 0 0.25 0"/>
<feBlend mode="normal" in2="BackgroundImageFix" result="effect1_dropShadow_106_783"/>
<feBlend mode="normal" in="SourceGraphic" in2="effect1_dropShadow_106_783" result="shape"/>
</filter>
<clipPath id="clip0_106_783">
<rect width="24" height="24" fill="white" transform="translate(21 6)"/>
</clipPath>
</defs>
</svg>
