<svg width="334" height="44" viewBox="0 0 334 44" fill="none" xmlns="http://www.w3.org/2000/svg">
<g filter="url(#filter0_d_106_818)">
<rect x="4" width="326" height="36" rx="5" fill="white"/>
<rect x="4.5" y="0.5" width="325" height="35" rx="4.5" stroke="#03466E"/>
</g>
<path d="M305.548 23.4866L306.781 24.6666L313.746 18L306.781 11.3333L305.548 12.5133L311.281 18L305.548 23.4866Z" fill="#03466E"/>
<path d="M54.518 18.114C54.518 17.162 54.7373 16.308 55.176 15.552C55.624 14.796 56.226 14.208 56.982 13.788C57.7473 13.3587 58.5827 13.144 59.488 13.144C60.524 13.144 61.4433 13.4007 62.246 13.914C63.058 14.418 63.646 15.1367 64.01 16.07H62.092C61.84 15.5567 61.49 15.174 61.042 14.922C60.594 14.67 60.076 14.544 59.488 14.544C58.844 14.544 58.27 14.6887 57.766 14.978C57.262 15.2673 56.8653 15.6827 56.576 16.224C56.296 16.7653 56.156 17.3953 56.156 18.114C56.156 18.8327 56.296 19.4627 56.576 20.004C56.8653 20.5453 57.262 20.9653 57.766 21.264C58.27 21.5533 58.844 21.698 59.488 21.698C60.076 21.698 60.594 21.572 61.042 21.32C61.49 21.068 61.84 20.6853 62.092 20.172H64.01C63.646 21.1053 63.058 21.824 62.246 22.328C61.4433 22.832 60.524 23.084 59.488 23.084C58.5733 23.084 57.738 22.874 56.982 22.454C56.226 22.0247 55.624 21.432 55.176 20.676C54.7373 19.92 54.518 19.066 54.518 18.114ZM69.8681 15.16C70.4561 15.16 70.9788 15.286 71.4361 15.538C71.9028 15.79 72.2668 16.1633 72.5281 16.658C72.7988 17.1527 72.9341 17.75 72.9341 18.45V23H71.3521V18.688C71.3521 17.9973 71.1795 17.47 70.8341 17.106C70.4888 16.7327 70.0175 16.546 69.4201 16.546C68.8228 16.546 68.3468 16.7327 67.9921 17.106C67.6468 17.47 67.4741 17.9973 67.4741 18.688V23H65.8781V12.64H67.4741V16.182C67.7448 15.8553 68.0855 15.6033 68.4961 15.426C68.9161 15.2487 69.3735 15.16 69.8681 15.16ZM74.4379 19.108C74.4379 18.3333 74.5966 17.6473 74.9139 17.05C75.2406 16.4527 75.6793 15.9907 76.2299 15.664C76.7899 15.328 77.4059 15.16 78.0779 15.16C78.6846 15.16 79.2119 15.2813 79.6599 15.524C80.1173 15.7573 80.4813 16.0513 80.7519 16.406V15.286H82.3619V23H80.7519V21.852C80.4813 22.216 80.1126 22.5193 79.6459 22.762C79.1793 23.0047 78.6473 23.126 78.0499 23.126C77.3873 23.126 76.7806 22.958 76.2299 22.622C75.6793 22.2767 75.2406 21.8007 74.9139 21.194C74.5966 20.578 74.4379 19.8827 74.4379 19.108ZM80.7519 19.136C80.7519 18.604 80.6399 18.142 80.4159 17.75C80.2013 17.358 79.9166 17.0593 79.5619 16.854C79.2073 16.6487 78.8246 16.546 78.4139 16.546C78.0033 16.546 77.6206 16.6487 77.2659 16.854C76.9113 17.05 76.6219 17.344 76.3979 17.736C76.1833 18.1187 76.0759 18.576 76.0759 19.108C76.0759 19.64 76.1833 20.1067 76.3979 20.508C76.6219 20.9093 76.9113 21.2173 77.2659 21.432C77.6299 21.6373 78.0126 21.74 78.4139 21.74C78.8246 21.74 79.2073 21.6373 79.5619 21.432C79.9166 21.2267 80.2013 20.928 80.4159 20.536C80.6399 20.1347 80.7519 19.668 80.7519 19.136ZM86.3202 16.588V20.858C86.3202 21.1473 86.3855 21.3573 86.5162 21.488C86.6562 21.6093 86.8895 21.67 87.2162 21.67H88.1962V23H86.9362C86.2175 23 85.6669 22.832 85.2842 22.496C84.9015 22.16 84.7102 21.614 84.7102 20.858V16.588H83.8002V15.286H84.7102V13.368H86.3202V15.286H88.1962V16.588H86.3202ZM92.4672 23.126C91.8605 23.126 91.3145 23.0187 90.8292 22.804C90.3532 22.58 89.9752 22.2813 89.6952 21.908C89.4152 21.5253 89.2659 21.1007 89.2472 20.634H90.8992C90.9272 20.9607 91.0812 21.236 91.3612 21.46C91.6505 21.6747 92.0099 21.782 92.4392 21.782C92.8872 21.782 93.2325 21.698 93.4752 21.53C93.7272 21.3527 93.8532 21.1287 93.8532 20.858C93.8532 20.5687 93.7132 20.354 93.4332 20.214C93.1625 20.074 92.7285 19.92 92.1312 19.752C91.5525 19.5933 91.0812 19.4393 90.7172 19.29C90.3532 19.1407 90.0359 18.912 89.7652 18.604C89.5039 18.296 89.3732 17.89 89.3732 17.386C89.3732 16.9753 89.4945 16.602 89.7372 16.266C89.9799 15.9207 90.3252 15.65 90.7732 15.454C91.2305 15.258 91.7532 15.16 92.3412 15.16C93.2185 15.16 93.9232 15.384 94.4552 15.832C94.9965 16.2707 95.2859 16.8727 95.3232 17.638H93.7272C93.6992 17.2927 93.5592 17.0173 93.3072 16.812C93.0552 16.6067 92.7145 16.504 92.2852 16.504C91.8652 16.504 91.5432 16.5833 91.3192 16.742C91.0952 16.9007 90.9832 17.1107 90.9832 17.372C90.9832 17.5773 91.0579 17.75 91.2072 17.89C91.3565 18.03 91.5385 18.142 91.7532 18.226C91.9679 18.3007 92.2852 18.3987 92.7052 18.52C93.2652 18.6693 93.7225 18.8233 94.0772 18.982C94.4412 19.1313 94.7539 19.3553 95.0152 19.654C95.2765 19.9527 95.4119 20.3493 95.4212 20.844C95.4212 21.2827 95.2999 21.6747 95.0572 22.02C94.8145 22.3653 94.4692 22.636 94.0212 22.832C93.5825 23.028 93.0645 23.126 92.4672 23.126Z" fill="#03466E"/>
<path d="M42 21C42 21.5304 41.7893 22.0391 41.4142 22.4142C41.0391 22.7893 40.5304 23 40 23H28L24 27V11C24 10.4696 24.2107 9.96086 24.5858 9.58579C24.9609 9.21071 25.4696 9 26 9H40C40.5304 9 41.0391 9.21071 41.4142 9.58579C41.7893 9.96086 42 10.4696 42 11V21Z" stroke="#03466E" stroke-width="2" stroke-linecap="round" stroke-linejoin="round"/>
<defs>
<filter id="filter0_d_106_818" x="0" y="0" width="334" height="44" filterUnits="userSpaceOnUse" color-interpolation-filters="sRGB">
<feFlood flood-opacity="0" result="BackgroundImageFix"/>
<feColorMatrix in="SourceAlpha" type="matrix" values="0 0 0 0 0 0 0 0 0 0 0 0 0 0 0 0 0 0 127 0" result="hardAlpha"/>
<feOffset dy="4"/>
<feGaussianBlur stdDeviation="2"/>
<feComposite in2="hardAlpha" operator="out"/>
<feColorMatrix type="matrix" values="0 0 0 0 0 0 0 0 0 0 0 0 0 0 0 0 0 0 0.25 0"/>
<feBlend mode="normal" in2="BackgroundImageFix" result="effect1_dropShadow_106_818"/>
<feBlend mode="normal" in="SourceGraphic" in2="effect1_dropShadow_106_818" result="shape"/>
</filter>
</defs>
</svg>
