<svg width="334" height="44" viewBox="0 0 334 44" fill="none" xmlns="http://www.w3.org/2000/svg">
<g filter="url(#filter0_d_106_820)">
<rect x="4" width="326" height="36" rx="5" fill="white"/>
<rect x="4.5" y="0.5" width="325" height="35" rx="4.5" stroke="#03466E"/>
</g>
<path d="M305.548 23.4866L306.781 24.6666L313.746 18L306.781 11.3333L305.548 12.5133L311.281 18L305.548 23.4866Z" fill="#03466E"/>
<path d="M65.298 13.27V23H63.702V16.336L60.734 23H59.628L56.646 16.336V23H55.05V13.27H56.772L60.188 20.9L63.59 13.27H65.298ZM74.3397 15.286L69.6077 26.626H67.9557L69.5237 22.874L66.4857 15.286H68.2637L70.4337 21.166L72.6877 15.286H74.3397ZM78.6489 18.114C78.6489 17.162 78.8682 16.308 79.3069 15.552C79.7549 14.796 80.3569 14.208 81.1129 13.788C81.8782 13.3587 82.7135 13.144 83.6189 13.144C84.6549 13.144 85.5742 13.4007 86.3769 13.914C87.1889 14.418 87.7769 15.1367 88.1409 16.07H86.2229C85.9709 15.5567 85.6209 15.174 85.1729 14.922C84.7249 14.67 84.2069 14.544 83.6189 14.544C82.9749 14.544 82.4009 14.6887 81.8969 14.978C81.3929 15.2673 80.9962 15.6827 80.7069 16.224C80.4269 16.7653 80.2869 17.3953 80.2869 18.114C80.2869 18.8327 80.4269 19.4627 80.7069 20.004C80.9962 20.5453 81.3929 20.9653 81.8969 21.264C82.4009 21.5533 82.9749 21.698 83.6189 21.698C84.2069 21.698 84.7249 21.572 85.1729 21.32C85.6209 21.068 85.9709 20.6853 86.2229 20.172H88.1409C87.7769 21.1053 87.1889 21.824 86.3769 22.328C85.5742 22.832 84.6549 23.084 83.6189 23.084C82.7042 23.084 81.8689 22.874 81.1129 22.454C80.3569 22.0247 79.7549 21.432 79.3069 20.676C78.8682 19.92 78.6489 19.066 78.6489 18.114ZM89.477 19.108C89.477 18.3333 89.6357 17.6473 89.953 17.05C90.2797 16.4527 90.7183 15.9907 91.269 15.664C91.829 15.328 92.445 15.16 93.117 15.16C93.7237 15.16 94.251 15.2813 94.699 15.524C95.1563 15.7573 95.5203 16.0513 95.791 16.406V15.286H97.401V23H95.791V21.852C95.5203 22.216 95.1517 22.5193 94.685 22.762C94.2183 23.0047 93.6863 23.126 93.089 23.126C92.4263 23.126 91.8197 22.958 91.269 22.622C90.7183 22.2767 90.2797 21.8007 89.953 21.194C89.6357 20.578 89.477 19.8827 89.477 19.108ZM95.791 19.136C95.791 18.604 95.679 18.142 95.455 17.75C95.2403 17.358 94.9557 17.0593 94.601 16.854C94.2463 16.6487 93.8637 16.546 93.453 16.546C93.0423 16.546 92.6597 16.6487 92.305 16.854C91.9503 17.05 91.661 17.344 91.437 17.736C91.2223 18.1187 91.115 18.576 91.115 19.108C91.115 19.64 91.2223 20.1067 91.437 20.508C91.661 20.9093 91.9503 21.2173 92.305 21.432C92.669 21.6373 93.0517 21.74 93.453 21.74C93.8637 21.74 94.2463 21.6373 94.601 21.432C94.9557 21.2267 95.2403 20.928 95.455 20.536C95.679 20.1347 95.791 19.668 95.791 19.136ZM101.093 16.406C101.327 16.014 101.635 15.7107 102.017 15.496C102.409 15.272 102.871 15.16 103.403 15.16V16.812H102.997C102.372 16.812 101.896 16.9707 101.569 17.288C101.252 17.6053 101.093 18.156 101.093 18.94V23H99.4973V15.286H101.093V16.406ZM104.338 19.108C104.338 18.3333 104.497 17.6473 104.814 17.05C105.141 16.4527 105.58 15.9907 106.13 15.664C106.69 15.328 107.311 15.16 107.992 15.16C108.496 15.16 108.991 15.272 109.476 15.496C109.971 15.7107 110.363 16 110.652 16.364V12.64H112.262V23H110.652V21.838C110.391 22.2113 110.027 22.5193 109.56 22.762C109.103 23.0047 108.576 23.126 107.978 23.126C107.306 23.126 106.69 22.958 106.13 22.622C105.58 22.2767 105.141 21.8007 104.814 21.194C104.497 20.578 104.338 19.8827 104.338 19.108ZM110.652 19.136C110.652 18.604 110.54 18.142 110.316 17.75C110.102 17.358 109.817 17.0593 109.462 16.854C109.108 16.6487 108.725 16.546 108.314 16.546C107.904 16.546 107.521 16.6487 107.166 16.854C106.812 17.05 106.522 17.344 106.298 17.736C106.084 18.1187 105.976 18.576 105.976 19.108C105.976 19.64 106.084 20.1067 106.298 20.508C106.522 20.9093 106.812 21.2173 107.166 21.432C107.53 21.6373 107.913 21.74 108.314 21.74C108.725 21.74 109.108 21.6373 109.462 21.432C109.817 21.2267 110.102 20.928 110.316 20.536C110.54 20.1347 110.652 19.668 110.652 19.136ZM117.159 23.126C116.552 23.126 116.006 23.0187 115.521 22.804C115.045 22.58 114.667 22.2813 114.387 21.908C114.107 21.5253 113.957 21.1007 113.939 20.634H115.591C115.619 20.9607 115.773 21.236 116.053 21.46C116.342 21.6747 116.701 21.782 117.131 21.782C117.579 21.782 117.924 21.698 118.167 21.53C118.419 21.3527 118.545 21.1287 118.545 20.858C118.545 20.5687 118.405 20.354 118.125 20.214C117.854 20.074 117.42 19.92 116.823 19.752C116.244 19.5933 115.773 19.4393 115.409 19.29C115.045 19.1407 114.727 18.912 114.457 18.604C114.195 18.296 114.065 17.89 114.065 17.386C114.065 16.9753 114.186 16.602 114.429 16.266C114.671 15.9207 115.017 15.65 115.465 15.454C115.922 15.258 116.445 15.16 117.033 15.16C117.91 15.16 118.615 15.384 119.147 15.832C119.688 16.2707 119.977 16.8727 120.015 17.638H118.419C118.391 17.2927 118.251 17.0173 117.999 16.812C117.747 16.6067 117.406 16.504 116.977 16.504C116.557 16.504 116.235 16.5833 116.011 16.742C115.787 16.9007 115.675 17.1107 115.675 17.372C115.675 17.5773 115.749 17.75 115.899 17.89C116.048 18.03 116.23 18.142 116.445 18.226C116.659 18.3007 116.977 18.3987 117.397 18.52C117.957 18.6693 118.414 18.8233 118.769 18.982C119.133 19.1313 119.445 19.3553 119.707 19.654C119.968 19.9527 120.103 20.3493 120.113 20.844C120.113 21.2827 119.991 21.6747 119.749 22.02C119.506 22.3653 119.161 22.636 118.713 22.832C118.274 23.028 117.756 23.126 117.159 23.126Z" fill="#03466E"/>
<path d="M42 10H24C22.8954 10 22 10.8954 22 12V24C22 25.1046 22.8954 26 24 26H42C43.1046 26 44 25.1046 44 24V12C44 10.8954 43.1046 10 42 10Z" stroke="#03466E" stroke-width="2" stroke-linecap="round" stroke-linejoin="round"/>
<path d="M22 16H44" stroke="#03466E" stroke-width="2" stroke-linecap="round" stroke-linejoin="round"/>
<defs>
<filter id="filter0_d_106_820" x="0" y="0" width="334" height="44" filterUnits="userSpaceOnUse" color-interpolation-filters="sRGB">
<feFlood flood-opacity="0" result="BackgroundImageFix"/>
<feColorMatrix in="SourceAlpha" type="matrix" values="0 0 0 0 0 0 0 0 0 0 0 0 0 0 0 0 0 0 127 0" result="hardAlpha"/>
<feOffset dy="4"/>
<feGaussianBlur stdDeviation="2"/>
<feComposite in2="hardAlpha" operator="out"/>
<feColorMatrix type="matrix" values="0 0 0 0 0 0 0 0 0 0 0 0 0 0 0 0 0 0 0.25 0"/>
<feBlend mode="normal" in2="BackgroundImageFix" result="effect1_dropShadow_106_820"/>
<feBlend mode="normal" in="SourceGraphic" in2="effect1_dropShadow_106_820" result="shape"/>
</filter>
</defs>
</svg>
