<svg width="334" height="44" viewBox="0 0 334 44" fill="none" xmlns="http://www.w3.org/2000/svg">
<g filter="url(#filter0_d_106_821)">
<rect x="4" width="326" height="36" rx="5" fill="white"/>
<rect x="4.5" y="0.5" width="325" height="35" rx="4.5" stroke="#03466E"/>
</g>
<path d="M305.548 23.4866L306.781 24.6666L313.746 18L306.781 11.3333L305.548 12.5133L311.281 18L305.548 23.4866Z" fill="#03466E"/>
<path d="M60.104 23L57.864 19.108H56.646V23H55.05V13.27H58.41C59.1567 13.27 59.7867 13.4007 60.3 13.662C60.8227 13.9233 61.21 14.2733 61.462 14.712C61.7233 15.1507 61.854 15.6407 61.854 16.182C61.854 16.8167 61.6673 17.3953 61.294 17.918C60.93 18.4313 60.3653 18.7813 59.6 18.968L62.008 23H60.104ZM56.646 17.834H58.41C59.0073 17.834 59.4553 17.6847 59.754 17.386C60.062 17.0873 60.216 16.686 60.216 16.182C60.216 15.678 60.0667 15.286 59.768 15.006C59.4693 14.7167 59.0167 14.572 58.41 14.572H56.646V17.834ZM70.9657 18.954C70.9657 19.2433 70.947 19.5047 70.9097 19.738H65.0157C65.0624 20.354 65.291 20.8487 65.7017 21.222C66.1124 21.5953 66.6164 21.782 67.2137 21.782C68.0724 21.782 68.679 21.4227 69.0337 20.704H70.7557C70.5224 21.4133 70.0977 21.9967 69.4817 22.454C68.875 22.902 68.119 23.126 67.2137 23.126C66.4764 23.126 65.8137 22.9627 65.2257 22.636C64.647 22.3 64.1897 21.8333 63.8537 21.236C63.527 20.6293 63.3637 19.9293 63.3637 19.136C63.3637 18.3427 63.5224 17.6473 63.8397 17.05C64.1664 16.4433 64.619 15.9767 65.1977 15.65C65.7857 15.3233 66.4577 15.16 67.2137 15.16C67.9417 15.16 68.5904 15.3187 69.1597 15.636C69.729 15.9533 70.1724 16.4013 70.4897 16.98C70.807 17.5493 70.9657 18.2073 70.9657 18.954ZM69.2997 18.45C69.2904 17.862 69.0804 17.3907 68.6697 17.036C68.259 16.6813 67.7504 16.504 67.1437 16.504C66.593 16.504 66.1217 16.6813 65.7297 17.036C65.3377 17.3813 65.1044 17.8527 65.0297 18.45H69.2997ZM74.1323 16.42C74.403 16.0653 74.7717 15.7667 75.2383 15.524C75.705 15.2813 76.2323 15.16 76.8203 15.16C77.4923 15.16 78.1037 15.328 78.6543 15.664C79.2143 15.9907 79.653 16.4527 79.9703 17.05C80.2877 17.6473 80.4463 18.3333 80.4463 19.108C80.4463 19.8827 80.2877 20.578 79.9703 21.194C79.653 21.8007 79.2143 22.2767 78.6543 22.622C78.1037 22.958 77.4923 23.126 76.8203 23.126C76.2323 23.126 75.7097 23.0093 75.2523 22.776C74.795 22.5333 74.4217 22.2347 74.1323 21.88V26.668H72.5363V15.286H74.1323V16.42ZM78.8223 19.108C78.8223 18.576 78.7103 18.1187 78.4863 17.736C78.2717 17.344 77.9823 17.05 77.6183 16.854C77.2637 16.6487 76.881 16.546 76.4703 16.546C76.069 16.546 75.6863 16.6487 75.3223 16.854C74.9677 17.0593 74.6783 17.358 74.4543 17.75C74.2397 18.142 74.1323 18.604 74.1323 19.136C74.1323 19.668 74.2397 20.1347 74.4543 20.536C74.6783 20.928 74.9677 21.2267 75.3223 21.432C75.6863 21.6373 76.069 21.74 76.4703 21.74C76.881 21.74 77.2637 21.6373 77.6183 21.432C77.9823 21.2173 78.2717 20.9093 78.4863 20.508C78.7103 20.1067 78.8223 19.64 78.8223 19.108ZM85.3706 23.126C84.6426 23.126 83.9846 22.9627 83.3966 22.636C82.8086 22.3 82.3466 21.8333 82.0106 21.236C81.6746 20.6293 81.5066 19.9293 81.5066 19.136C81.5066 18.352 81.6793 17.6567 82.0246 17.05C82.3699 16.4433 82.8413 15.9767 83.4386 15.65C84.0359 15.3233 84.7033 15.16 85.4406 15.16C86.1779 15.16 86.8453 15.3233 87.4426 15.65C88.0399 15.9767 88.5113 16.4433 88.8566 17.05C89.2019 17.6567 89.3746 18.352 89.3746 19.136C89.3746 19.92 89.1973 20.6153 88.8426 21.222C88.4879 21.8287 88.0026 22.3 87.3866 22.636C86.7799 22.9627 86.1079 23.126 85.3706 23.126ZM85.3706 21.74C85.7813 21.74 86.1639 21.642 86.5186 21.446C86.8826 21.25 87.1766 20.956 87.4006 20.564C87.6246 20.172 87.7366 19.696 87.7366 19.136C87.7366 18.576 87.6293 18.1047 87.4146 17.722C87.1999 17.33 86.9153 17.036 86.5606 16.84C86.2059 16.644 85.8233 16.546 85.4126 16.546C85.0019 16.546 84.6193 16.644 84.2646 16.84C83.9193 17.036 83.6439 17.33 83.4386 17.722C83.2333 18.1047 83.1306 18.576 83.1306 19.136C83.1306 19.9667 83.3406 20.6107 83.7606 21.068C84.1899 21.516 84.7266 21.74 85.3706 21.74ZM92.5483 16.406C92.7817 16.014 93.0897 15.7107 93.4723 15.496C93.8643 15.272 94.3263 15.16 94.8583 15.16V16.812H94.4523C93.827 16.812 93.351 16.9707 93.0243 17.288C92.707 17.6053 92.5483 18.156 92.5483 18.94V23H90.9523V15.286H92.5483V16.406ZM98.1874 16.588V20.858C98.1874 21.1473 98.2527 21.3573 98.3834 21.488C98.5234 21.6093 98.7567 21.67 99.0834 21.67H100.063V23H98.8034C98.0847 23 97.5341 22.832 97.1514 22.496C96.7687 22.16 96.5774 21.614 96.5774 20.858V16.588H95.6674V15.286H96.5774V13.368H98.1874V15.286H100.063V16.588H98.1874ZM104.334 23.126C103.728 23.126 103.182 23.0187 102.696 22.804C102.22 22.58 101.842 22.2813 101.562 21.908C101.282 21.5253 101.133 21.1007 101.114 20.634H102.766C102.794 20.9607 102.948 21.236 103.228 21.46C103.518 21.6747 103.877 21.782 104.306 21.782C104.754 21.782 105.1 21.698 105.342 21.53C105.594 21.3527 105.72 21.1287 105.72 20.858C105.72 20.5687 105.58 20.354 105.3 20.214C105.03 20.074 104.596 19.92 103.998 19.752C103.42 19.5933 102.948 19.4393 102.584 19.29C102.22 19.1407 101.903 18.912 101.632 18.604C101.371 18.296 101.24 17.89 101.24 17.386C101.24 16.9753 101.362 16.602 101.604 16.266C101.847 15.9207 102.192 15.65 102.64 15.454C103.098 15.258 103.62 15.16 104.208 15.16C105.086 15.16 105.79 15.384 106.322 15.832C106.864 16.2707 107.153 16.8727 107.19 17.638H105.594C105.566 17.2927 105.426 17.0173 105.174 16.812C104.922 16.6067 104.582 16.504 104.152 16.504C103.732 16.504 103.41 16.5833 103.186 16.742C102.962 16.9007 102.85 17.1107 102.85 17.372C102.85 17.5773 102.925 17.75 103.074 17.89C103.224 18.03 103.406 18.142 103.62 18.226C103.835 18.3007 104.152 18.3987 104.572 18.52C105.132 18.6693 105.59 18.8233 105.944 18.982C106.308 19.1313 106.621 19.3553 106.882 19.654C107.144 19.9527 107.279 20.3493 107.288 20.844C107.288 21.2827 107.167 21.6747 106.924 22.02C106.682 22.3653 106.336 22.636 105.888 22.832C105.45 23.028 104.932 23.126 104.334 23.126Z" fill="#03466E"/>
<path d="M43 11H25V8H23V28H43V26H25V15C29.09 15 31.13 17 33.29 19.21C35.45 21.42 38.09 24 43 24V22C38.91 22 36.87 20 34.71 17.79C32.55 15.58 29.91 13 25 13H43V11Z" fill="#03466E"/>
<defs>
<filter id="filter0_d_106_821" x="0" y="0" width="334" height="44" filterUnits="userSpaceOnUse" color-interpolation-filters="sRGB">
<feFlood flood-opacity="0" result="BackgroundImageFix"/>
<feColorMatrix in="SourceAlpha" type="matrix" values="0 0 0 0 0 0 0 0 0 0 0 0 0 0 0 0 0 0 127 0" result="hardAlpha"/>
<feOffset dy="4"/>
<feGaussianBlur stdDeviation="2"/>
<feComposite in2="hardAlpha" operator="out"/>
<feColorMatrix type="matrix" values="0 0 0 0 0 0 0 0 0 0 0 0 0 0 0 0 0 0 0.25 0"/>
<feBlend mode="normal" in2="BackgroundImageFix" result="effect1_dropShadow_106_821"/>
<feBlend mode="normal" in="SourceGraphic" in2="effect1_dropShadow_106_821" result="shape"/>
</filter>
</defs>
</svg>
