<svg width="334" height="44" viewBox="0 0 334 44" fill="none" xmlns="http://www.w3.org/2000/svg">
<g filter="url(#filter0_d_106_822)">
<rect x="4" width="326" height="36" rx="5" fill="white"/>
<rect x="4.5" y="0.5" width="325" height="35" rx="4.5" stroke="#03466E"/>
</g>
<path d="M305.548 23.4866L306.781 24.6666L313.746 18L306.781 11.3333L305.548 12.5133L311.281 18L305.548 23.4866Z" fill="#03466E"/>
<path d="M60.776 13.27V14.572H56.646V17.442H59.866V18.744H56.646V23H55.05V13.27H60.776ZM68.1211 21.012H64.0471L63.3471 23H61.6811L65.1671 13.256H67.0151L70.5011 23H68.8211L68.1211 21.012ZM67.6731 19.71L66.0911 15.188L64.4951 19.71H67.6731ZM79.5488 24.764L77.8408 22.916C77.4208 23.0373 76.9588 23.098 76.4548 23.098C75.5495 23.098 74.7141 22.888 73.9488 22.468C73.1928 22.0387 72.5908 21.446 72.1428 20.69C71.7041 19.9247 71.4848 19.066 71.4848 18.114C71.4848 17.162 71.7041 16.308 72.1428 15.552C72.5908 14.796 73.1928 14.208 73.9488 13.788C74.7141 13.3587 75.5495 13.144 76.4548 13.144C77.3695 13.144 78.2048 13.3587 78.9608 13.788C79.7261 14.208 80.3281 14.796 80.7668 15.552C81.2055 16.308 81.4248 17.162 81.4248 18.114C81.4248 19.01 81.2288 19.822 80.8368 20.55C80.4541 21.2687 79.9221 21.8473 79.2408 22.286L81.5788 24.764H79.5488ZM73.1228 18.114C73.1228 18.8327 73.2628 19.4673 73.5428 20.018C73.8321 20.5593 74.2288 20.9793 74.7328 21.278C75.2368 21.5673 75.8108 21.712 76.4548 21.712C77.0988 21.712 77.6728 21.5673 78.1768 21.278C78.6808 20.9793 79.0728 20.5593 79.3528 20.018C79.6421 19.4673 79.7868 18.8327 79.7868 18.114C79.7868 17.3953 79.6421 16.7653 79.3528 16.224C79.0728 15.6827 78.6808 15.2673 78.1768 14.978C77.6728 14.6887 77.0988 14.544 76.4548 14.544C75.8108 14.544 75.2368 14.6887 74.7328 14.978C74.2288 15.2673 73.8321 15.6827 73.5428 16.224C73.2628 16.7653 73.1228 17.3953 73.1228 18.114ZM85.8363 23.126C85.2297 23.126 84.6837 23.0187 84.1983 22.804C83.7223 22.58 83.3443 22.2813 83.0643 21.908C82.7843 21.5253 82.635 21.1007 82.6163 20.634H84.2683C84.2963 20.9607 84.4503 21.236 84.7303 21.46C85.0197 21.6747 85.379 21.782 85.8083 21.782C86.2563 21.782 86.6017 21.698 86.8443 21.53C87.0963 21.3527 87.2223 21.1287 87.2223 20.858C87.2223 20.5687 87.0823 20.354 86.8023 20.214C86.5317 20.074 86.0977 19.92 85.5003 19.752C84.9217 19.5933 84.4503 19.4393 84.0863 19.29C83.7223 19.1407 83.405 18.912 83.1343 18.604C82.873 18.296 82.7423 17.89 82.7423 17.386C82.7423 16.9753 82.8637 16.602 83.1063 16.266C83.349 15.9207 83.6943 15.65 84.1423 15.454C84.5997 15.258 85.1223 15.16 85.7103 15.16C86.5877 15.16 87.2923 15.384 87.8243 15.832C88.3657 16.2707 88.655 16.8727 88.6923 17.638H87.0963C87.0683 17.2927 86.9283 17.0173 86.6763 16.812C86.4243 16.6067 86.0837 16.504 85.6543 16.504C85.2343 16.504 84.9123 16.5833 84.6883 16.742C84.4643 16.9007 84.3523 17.1107 84.3523 17.372C84.3523 17.5773 84.427 17.75 84.5763 17.89C84.7257 18.03 84.9077 18.142 85.1223 18.226C85.337 18.3007 85.6543 18.3987 86.0743 18.52C86.6343 18.6693 87.0917 18.8233 87.4463 18.982C87.8103 19.1313 88.123 19.3553 88.3843 19.654C88.6457 19.9527 88.781 20.3493 88.7903 20.844C88.7903 21.2827 88.669 21.6747 88.4263 22.02C88.1837 22.3653 87.8383 22.636 87.3903 22.832C86.9517 23.028 86.4337 23.126 85.8363 23.126Z" fill="#03466E"/>
<path d="M41.59 17.41L34.42 24.58C34.2343 24.766 34.0137 24.9135 33.7709 25.0141C33.5281 25.1148 33.2678 25.1666 33.005 25.1666C32.7422 25.1666 32.4819 25.1148 32.2391 25.0141C31.9963 24.9135 31.7757 24.766 31.59 24.58L23 16V6H33L41.59 14.59C41.9625 14.9647 42.1716 15.4716 42.1716 16C42.1716 16.5284 41.9625 17.0353 41.59 17.41Z" stroke="#03466E" stroke-width="2" stroke-linecap="round" stroke-linejoin="round"/>
<path d="M28 11H28.01" stroke="#03466E" stroke-width="2" stroke-linecap="round" stroke-linejoin="round"/>
<defs>
<filter id="filter0_d_106_822" x="0" y="0" width="334" height="44" filterUnits="userSpaceOnUse" color-interpolation-filters="sRGB">
<feFlood flood-opacity="0" result="BackgroundImageFix"/>
<feColorMatrix in="SourceAlpha" type="matrix" values="0 0 0 0 0 0 0 0 0 0 0 0 0 0 0 0 0 0 127 0" result="hardAlpha"/>
<feOffset dy="4"/>
<feGaussianBlur stdDeviation="2"/>
<feComposite in2="hardAlpha" operator="out"/>
<feColorMatrix type="matrix" values="0 0 0 0 0 0 0 0 0 0 0 0 0 0 0 0 0 0 0.25 0"/>
<feBlend mode="normal" in2="BackgroundImageFix" result="effect1_dropShadow_106_822"/>
<feBlend mode="normal" in="SourceGraphic" in2="effect1_dropShadow_106_822" result="shape"/>
</filter>
</defs>
</svg>
