<svg width="88" height="25" viewBox="0 0 88 25" fill="none" xmlns="http://www.w3.org/2000/svg">
<path d="M42.646 17.712H45.936V19H41.05V9.27H42.646V17.712ZM50.6167 19.126C49.8887 19.126 49.2307 18.9627 48.6427 18.636C48.0547 18.3 47.5927 17.8333 47.2567 17.236C46.9207 16.6293 46.7527 15.9293 46.7527 15.136C46.7527 14.352 46.9254 13.6567 47.2707 13.05C47.616 12.4433 48.0874 11.9767 48.6847 11.65C49.282 11.3233 49.9494 11.16 50.6867 11.16C51.424 11.16 52.0914 11.3233 52.6887 11.65C53.286 11.9767 53.7574 12.4433 54.1027 13.05C54.448 13.6567 54.6207 14.352 54.6207 15.136C54.6207 15.92 54.4434 16.6153 54.0887 17.222C53.734 17.8287 53.2487 18.3 52.6327 18.636C52.026 18.9627 51.354 19.126 50.6167 19.126ZM50.6167 17.74C51.0274 17.74 51.41 17.642 51.7647 17.446C52.1287 17.25 52.4227 16.956 52.6467 16.564C52.8707 16.172 52.9827 15.696 52.9827 15.136C52.9827 14.576 52.8754 14.1047 52.6607 13.722C52.446 13.33 52.1614 13.036 51.8067 12.84C51.452 12.644 51.0694 12.546 50.6587 12.546C50.248 12.546 49.8654 12.644 49.5107 12.84C49.1654 13.036 48.89 13.33 48.6847 13.722C48.4794 14.1047 48.3767 14.576 48.3767 15.136C48.3767 15.9667 48.5867 16.6107 49.0067 17.068C49.436 17.516 49.9727 17.74 50.6167 17.74ZM59.3064 11.16C59.9038 11.16 60.4311 11.2813 60.8884 11.524C61.3551 11.7573 61.7191 12.0513 61.9804 12.406V11.286H63.5904V19.126C63.5904 19.8353 63.4411 20.4653 63.1424 21.016C62.8438 21.576 62.4098 22.0147 61.8404 22.332C61.2804 22.6493 60.6084 22.808 59.8244 22.808C58.7791 22.808 57.9111 22.5607 57.2204 22.066C56.5298 21.5807 56.1378 20.918 56.0444 20.078H57.6264C57.7478 20.4793 58.0044 20.8013 58.3964 21.044C58.7978 21.296 59.2738 21.422 59.8244 21.422C60.4684 21.422 60.9864 21.226 61.3784 20.834C61.7798 20.442 61.9804 19.8727 61.9804 19.126V17.838C61.7098 18.202 61.3411 18.51 60.8744 18.762C60.4171 19.0047 59.8944 19.126 59.3064 19.126C58.6344 19.126 58.0184 18.958 57.4584 18.622C56.9078 18.2767 56.4691 17.8007 56.1424 17.194C55.8251 16.578 55.6664 15.8827 55.6664 15.108C55.6664 14.3333 55.8251 13.6473 56.1424 13.05C56.4691 12.4527 56.9078 11.9907 57.4584 11.664C58.0184 11.328 58.6344 11.16 59.3064 11.16ZM61.9804 15.136C61.9804 14.604 61.8684 14.142 61.6444 13.75C61.4298 13.358 61.1451 13.0593 60.7904 12.854C60.4358 12.6487 60.0531 12.546 59.6424 12.546C59.2318 12.546 58.8491 12.6487 58.4944 12.854C58.1398 13.05 57.8504 13.344 57.6264 13.736C57.4118 14.1187 57.3044 14.576 57.3044 15.108C57.3044 15.64 57.4118 16.1067 57.6264 16.508C57.8504 16.9093 58.1398 17.2173 58.4944 17.432C58.8584 17.6373 59.2411 17.74 59.6424 17.74C60.0531 17.74 60.4358 17.6373 60.7904 17.432C61.1451 17.2267 61.4298 16.928 61.6444 16.536C61.8684 16.1347 61.9804 15.668 61.9804 15.136ZM69.0327 19.126C68.3047 19.126 67.6467 18.9627 67.0587 18.636C66.4707 18.3 66.0087 17.8333 65.6727 17.236C65.3367 16.6293 65.1687 15.9293 65.1687 15.136C65.1687 14.352 65.3414 13.6567 65.6867 13.05C66.0321 12.4433 66.5034 11.9767 67.1007 11.65C67.6981 11.3233 68.3654 11.16 69.1027 11.16C69.8401 11.16 70.5074 11.3233 71.1047 11.65C71.7021 11.9767 72.1734 12.4433 72.5187 13.05C72.8641 13.6567 73.0367 14.352 73.0367 15.136C73.0367 15.92 72.8594 16.6153 72.5047 17.222C72.1501 17.8287 71.6647 18.3 71.0487 18.636C70.4421 18.9627 69.7701 19.126 69.0327 19.126ZM69.0327 17.74C69.4434 17.74 69.8261 17.642 70.1807 17.446C70.5447 17.25 70.8387 16.956 71.0627 16.564C71.2867 16.172 71.3987 15.696 71.3987 15.136C71.3987 14.576 71.2914 14.1047 71.0767 13.722C70.8621 13.33 70.5774 13.036 70.2227 12.84C69.8681 12.644 69.4854 12.546 69.0747 12.546C68.6641 12.546 68.2814 12.644 67.9267 12.84C67.5814 13.036 67.3061 13.33 67.1007 13.722C66.8954 14.1047 66.7927 14.576 66.7927 15.136C66.7927 15.9667 67.0027 16.6107 67.4227 17.068C67.8521 17.516 68.3887 17.74 69.0327 17.74ZM81.6005 11.286V19H80.0045V18.09C79.7525 18.4073 79.4211 18.6593 79.0105 18.846C78.6091 19.0233 78.1798 19.112 77.7225 19.112C77.1158 19.112 76.5698 18.986 76.0845 18.734C75.6085 18.482 75.2305 18.1087 74.9505 17.614C74.6798 17.1193 74.5445 16.522 74.5445 15.822V11.286H76.1265V15.584C76.1265 16.2747 76.2991 16.8067 76.6445 17.18C76.9898 17.544 77.4611 17.726 78.0585 17.726C78.6558 17.726 79.1271 17.544 79.4725 17.18C79.8271 16.8067 80.0045 16.2747 80.0045 15.584V11.286H81.6005ZM85.5683 12.588V16.858C85.5683 17.1473 85.6336 17.3573 85.7643 17.488C85.9043 17.6093 86.1376 17.67 86.4643 17.67H87.4443V19H86.1843C85.4656 19 84.9149 18.832 84.5323 18.496C84.1496 18.16 83.9583 17.614 83.9583 16.858V12.588H83.0483V11.286H83.9583V9.368H85.5683V11.286H87.4443V12.588H85.5683Z" fill="#D72008"/>
<path d="M9 21H5C4.46957 21 3.96086 20.7893 3.58579 20.4142C3.21071 20.0391 3 19.5304 3 19V5C3 4.46957 3.21071 3.96086 3.58579 3.58579C3.96086 3.21071 4.46957 3 5 3H9" stroke="#D72008" stroke-width="2" stroke-linecap="round" stroke-linejoin="round"/>
<path d="M16 17L21 12L16 7" stroke="#D72008" stroke-width="2" stroke-linecap="round" stroke-linejoin="round"/>
<path d="M21 12H9" stroke="#D72008" stroke-width="2" stroke-linecap="round" stroke-linejoin="round"/>
</svg>
