<svg width="398" height="80" viewBox="0 0 398 80" fill="none" xmlns="http://www.w3.org/2000/svg">
<g filter="url(#filter0_d_106_904)">
<rect width="390" height="72" transform="translate(4)" fill="white"/>
<path d="M43 33L52 26L61 33V44C61 44.5304 60.7893 45.0391 60.4142 45.4142C60.0391 45.7893 59.5304 46 59 46H45C44.4696 46 43.9609 45.7893 43.5858 45.4142C43.2107 45.0391 43 44.5304 43 44V33Z" stroke="#1E1E1E" stroke-opacity="0.5" stroke-width="2" stroke-linecap="round" stroke-linejoin="round"/>
<path d="M49 46V36H55V46" stroke="#1E1E1E" stroke-opacity="0.5" stroke-width="2" stroke-linecap="round" stroke-linejoin="round"/>
<path d="M159 28H141C139.895 28 139 28.8954 139 30V42C139 43.1046 139.895 44 141 44H159C160.105 44 161 43.1046 161 42V30C161 28.8954 160.105 28 159 28Z" stroke="#1E1E1E" stroke-opacity="0.5" stroke-width="2" stroke-linecap="round" stroke-linejoin="round"/>
<path d="M139 34H161" stroke="#1E1E1E" stroke-opacity="0.5" stroke-width="2" stroke-linecap="round" stroke-linejoin="round"/>
<path d="M254 44V34" stroke="#1E1E1E" stroke-opacity="0.5" stroke-width="2" stroke-linecap="round" stroke-linejoin="round"/>
<path d="M248 44V28" stroke="#1E1E1E" stroke-opacity="0.5" stroke-width="2" stroke-linecap="round" stroke-linejoin="round"/>
<path d="M242 44V38" stroke="#1E1E1E" stroke-opacity="0.5" stroke-width="2" stroke-linecap="round" stroke-linejoin="round"/>
<path d="M354 45V43C354 41.9391 353.579 40.9217 352.828 40.1716C352.078 39.4214 351.061 39 350 39H342C340.939 39 339.922 39.4214 339.172 40.1716C338.421 40.9217 338 41.9391 338 43V45" stroke="#03466E" stroke-width="2" stroke-linecap="round" stroke-linejoin="round"/>
<path d="M346 35C348.209 35 350 33.2091 350 31C350 28.7909 348.209 27 346 27C343.791 27 342 28.7909 342 31C342 33.2091 343.791 35 346 35Z" stroke="#03466E" stroke-width="2" stroke-linecap="round" stroke-linejoin="round"/>
</g>
<defs>
<filter id="filter0_d_106_904" x="0" y="0" width="398" height="80" filterUnits="userSpaceOnUse" color-interpolation-filters="sRGB">
<feFlood flood-opacity="0" result="BackgroundImageFix"/>
<feColorMatrix in="SourceAlpha" type="matrix" values="0 0 0 0 0 0 0 0 0 0 0 0 0 0 0 0 0 0 127 0" result="hardAlpha"/>
<feOffset dy="4"/>
<feGaussianBlur stdDeviation="2"/>
<feComposite in2="hardAlpha" operator="out"/>
<feColorMatrix type="matrix" values="0 0 0 0 0 0 0 0 0 0 0 0 0 0 0 0 0 0 0.25 0"/>
<feBlend mode="normal" in2="BackgroundImageFix" result="effect1_dropShadow_106_904"/>
<feBlend mode="normal" in="SourceGraphic" in2="effect1_dropShadow_106_904" result="shape"/>
</filter>
</defs>
</svg>
