<svg width="90" height="45" viewBox="0 0 90 45" fill="none" xmlns="http://www.w3.org/2000/svg">
<g clip-path="url(#clip0_111_404)">
<path d="M16 26.5L12 22.5L8 26.5" stroke="#1E1E1E" stroke-width="2" stroke-linecap="round" stroke-linejoin="round"/>
<path d="M12 22.5V31.5" stroke="#1E1E1E" stroke-width="2" stroke-linecap="round" stroke-linejoin="round"/>
<path d="M20.39 28.89C21.3653 28.3583 22.1358 27.5169 22.5799 26.4986C23.0239 25.4804 23.1162 24.3432 22.8422 23.2667C22.5682 22.1901 21.9435 21.2355 21.0667 20.5534C20.1899 19.8714 19.1109 19.5007 18 19.5H16.74C16.4373 18.3292 15.8732 17.2423 15.0899 16.321C14.3067 15.3996 13.3248 14.6678 12.2181 14.1806C11.1114 13.6933 9.90855 13.4633 8.70012 13.5079C7.49168 13.5524 6.30907 13.8703 5.24118 14.4376C4.17328 15.005 3.24791 15.8071 2.53462 16.7836C1.82133 17.76 1.33869 18.8855 1.12298 20.0754C0.907268 21.2652 0.964104 22.4885 1.28921 23.6532C1.61432 24.818 2.19924 25.8938 3 26.8" stroke="#1E1E1E" stroke-width="2" stroke-linecap="round" stroke-linejoin="round"/>
<path d="M16 26.5L12 22.5L8 26.5" stroke="#1E1E1E" stroke-width="2" stroke-linecap="round" stroke-linejoin="round"/>
</g>
<path d="M32.5784 6.832V18H30.3384V6.832H32.5784ZM38.6955 6.832C39.8688 6.832 40.8982 7.06133 41.7835 7.52C42.6795 7.97867 43.3675 8.63467 43.8475 9.488C44.3382 10.3307 44.5835 11.312 44.5835 12.432C44.5835 13.552 44.3382 14.5333 43.8475 15.376C43.3675 16.208 42.6795 16.8533 41.7835 17.312C40.8982 17.7707 39.8688 18 38.6955 18H34.7915V6.832H38.6955ZM38.6155 16.096C39.7888 16.096 40.6955 15.776 41.3355 15.136C41.9755 14.496 42.2955 13.5947 42.2955 12.432C42.2955 11.2693 41.9755 10.3627 41.3355 9.712C40.6955 9.05067 39.7888 8.72 38.6155 8.72H37.0315V16.096H38.6155ZM53.9288 18.112C53.1501 18.112 52.4461 17.9787 51.8168 17.712C51.1981 17.4453 50.7074 17.0613 50.3448 16.56C49.9821 16.0587 49.7954 15.4667 49.7848 14.784H52.1848C52.2168 15.2427 52.3768 15.6053 52.6648 15.872C52.9634 16.1387 53.3688 16.272 53.8808 16.272C54.4034 16.272 54.8141 16.1493 55.1128 15.904C55.4114 15.648 55.5608 15.3173 55.5608 14.912C55.5608 14.5813 55.4594 14.3093 55.2568 14.096C55.0541 13.8827 54.7981 13.7173 54.4888 13.6C54.1901 13.472 53.7741 13.3333 53.2408 13.184C52.5154 12.9707 51.9234 12.7627 51.4648 12.56C51.0168 12.3467 50.6274 12.032 50.2968 11.616C49.9768 11.1893 49.8168 10.624 49.8168 9.92C49.8168 9.25867 49.9821 8.68267 50.3128 8.192C50.6434 7.70133 51.1074 7.328 51.7048 7.072C52.3021 6.80533 52.9848 6.672 53.7528 6.672C54.9048 6.672 55.8381 6.95467 56.5528 7.52C57.2781 8.07467 57.6781 8.85333 57.7528 9.856H55.2888C55.2674 9.472 55.1021 9.15733 54.7928 8.912C54.4941 8.656 54.0941 8.528 53.5928 8.528C53.1554 8.528 52.8034 8.64 52.5368 8.864C52.2808 9.088 52.1528 9.41333 52.1528 9.84C52.1528 10.1387 52.2488 10.3893 52.4408 10.592C52.6434 10.784 52.8888 10.944 53.1768 11.072C53.4754 11.1893 53.8914 11.328 54.4248 11.488C55.1501 11.7013 55.7421 11.9147 56.2008 12.128C56.6594 12.3413 57.0541 12.6613 57.3848 13.088C57.7154 13.5147 57.8808 14.0747 57.8808 14.768C57.8808 15.3653 57.7261 15.92 57.4167 16.432C57.1074 16.944 56.6541 17.3547 56.0568 17.664C55.4594 17.9627 54.7501 18.112 53.9288 18.112ZM59.2467 13.568C59.2467 12.6507 59.4334 11.8507 59.8068 11.168C60.1801 10.4747 60.6974 9.94133 61.3588 9.568C62.0201 9.184 62.7774 8.992 63.6308 8.992C64.7294 8.992 65.6361 9.26933 66.3508 9.824C67.0761 10.368 67.5614 11.136 67.8068 12.128H65.3908C65.2628 11.744 65.0441 11.4453 64.7348 11.232C64.4361 11.008 64.0628 10.896 63.6148 10.896C62.9748 10.896 62.4681 11.1307 62.0948 11.6C61.7214 12.0587 61.5348 12.7147 61.5348 13.568C61.5348 14.4107 61.7214 15.0667 62.0948 15.536C62.4681 15.9947 62.9748 16.224 63.6148 16.224C64.5214 16.224 65.1134 15.8187 65.3908 15.008H67.8068C67.5614 15.968 67.0761 16.7307 66.3508 17.296C65.6254 17.8613 64.7188 18.144 63.6308 18.144C62.7774 18.144 62.0201 17.9573 61.3588 17.584C60.6974 17.2 60.1801 16.6667 59.8068 15.984C59.4334 15.2907 59.2467 14.4853 59.2467 13.568ZM68.8717 13.536C68.8717 12.64 69.0477 11.8453 69.3997 11.152C69.7624 10.4587 70.2478 9.92533 70.8558 9.552C71.4744 9.17867 72.1624 8.992 72.9198 8.992C73.5811 8.992 74.1571 9.12533 74.6478 9.392C75.1491 9.65867 75.5491 9.99467 75.8478 10.4V9.136H78.1038V18H75.8478V16.704C75.5598 17.12 75.1598 17.4667 74.6478 17.744C74.1464 18.0107 73.5651 18.144 72.9038 18.144C72.1571 18.144 71.4744 17.952 70.8558 17.568C70.2478 17.184 69.7624 16.6453 69.3997 15.952C69.0477 15.248 68.8717 14.4427 68.8717 13.536ZM75.8478 13.568C75.8478 13.024 75.7411 12.56 75.5278 12.176C75.3144 11.7813 75.0264 11.4827 74.6638 11.28C74.3011 11.0667 73.9118 10.96 73.4958 10.96C73.0798 10.96 72.6958 11.0613 72.3438 11.264C71.9918 11.4667 71.7038 11.7653 71.4798 12.16C71.2664 12.544 71.1598 13.0027 71.1598 13.536C71.1598 14.0693 71.2664 14.5387 71.4798 14.944C71.7038 15.3387 71.9918 15.6427 72.3438 15.856C72.7064 16.0693 73.0904 16.176 73.4958 16.176C73.9118 16.176 74.3011 16.0747 74.6638 15.872C75.0264 15.6587 75.3144 15.36 75.5278 14.976C75.7411 14.5813 75.8478 14.112 75.8478 13.568ZM85.2035 9.008C86.2595 9.008 87.1128 9.344 87.7635 10.016C88.4142 10.6773 88.7395 11.6053 88.7395 12.8V18H86.4995V13.104C86.4995 12.4 86.3235 11.8613 85.9715 11.488C85.6195 11.104 85.1395 10.912 84.5315 10.912C83.9128 10.912 83.4222 11.104 83.0595 11.488C82.7075 11.8613 82.5315 12.4 82.5315 13.104V18H80.2915V9.136H82.5315V10.24C82.8302 9.856 83.2088 9.55733 83.6675 9.344C84.1368 9.12 84.6488 9.008 85.2035 9.008Z" fill="#03466E"/>
<path d="M31.7088 29.242V35.416C31.7088 36.284 31.9188 36.928 32.3388 37.348C32.7681 37.768 33.3608 37.978 34.1168 37.978C34.8634 37.978 35.4468 37.768 35.8668 37.348C36.2961 36.928 36.5108 36.284 36.5108 35.416V29.242H37.7848V35.402C37.7848 36.214 37.6214 36.9 37.2948 37.46C36.9681 38.0107 36.5248 38.4213 35.9648 38.692C35.4141 38.9627 34.7934 39.098 34.1028 39.098C33.4121 39.098 32.7868 38.9627 32.2268 38.692C31.6761 38.4213 31.2374 38.0107 30.9108 37.46C30.5934 36.9 30.4348 36.214 30.4348 35.402V29.242H31.7088ZM41.184 32.742C41.436 32.3033 41.8094 31.9393 42.304 31.65C42.808 31.3513 43.3914 31.202 44.054 31.202C44.7354 31.202 45.3514 31.3653 45.902 31.692C46.462 32.0187 46.9007 32.4807 47.218 33.078C47.5354 33.666 47.694 34.352 47.694 35.136C47.694 35.9107 47.5354 36.6013 47.218 37.208C46.9007 37.8147 46.462 38.286 45.902 38.622C45.3514 38.958 44.7354 39.126 44.054 39.126C43.4007 39.126 42.822 38.9813 42.318 38.692C41.8234 38.3933 41.4454 38.0247 41.184 37.586V42.64H39.91V31.328H41.184V32.742ZM46.392 35.136C46.392 34.5573 46.2754 34.0533 46.042 33.624C45.8087 33.1947 45.4914 32.868 45.09 32.644C44.698 32.42 44.264 32.308 43.788 32.308C43.3214 32.308 42.8874 32.4247 42.486 32.658C42.094 32.882 41.7767 33.2133 41.534 33.652C41.3007 34.0813 41.184 34.5807 41.184 35.15C41.184 35.7287 41.3007 36.2373 41.534 36.676C41.7767 37.1053 42.094 37.4367 42.486 37.67C42.8874 37.894 43.3214 38.006 43.788 38.006C44.264 38.006 44.698 37.894 45.09 37.67C45.4914 37.4367 45.8087 37.1053 46.042 36.676C46.2754 36.2373 46.392 35.724 46.392 35.136ZM50.645 28.64V39H49.371V28.64H50.645ZM56.1623 39.126C55.4436 39.126 54.7903 38.9627 54.2023 38.636C53.6236 38.3093 53.1663 37.8473 52.8303 37.25C52.5036 36.6433 52.3403 35.9433 52.3403 35.15C52.3403 34.366 52.5083 33.6753 52.8443 33.078C53.1896 32.4713 53.6563 32.0093 54.2443 31.692C54.8323 31.3653 55.4903 31.202 56.2183 31.202C56.9463 31.202 57.6043 31.3653 58.1923 31.692C58.7803 32.0093 59.2423 32.4667 59.5783 33.064C59.9236 33.6613 60.0963 34.3567 60.0963 35.15C60.0963 35.9433 59.9189 36.6433 59.5643 37.25C59.2189 37.8473 58.7476 38.3093 58.1503 38.636C57.5529 38.9627 56.8903 39.126 56.1623 39.126ZM56.1623 38.006C56.6196 38.006 57.0489 37.8987 57.4503 37.684C57.8516 37.4693 58.1736 37.1473 58.4163 36.718C58.6683 36.2887 58.7943 35.766 58.7943 35.15C58.7943 34.534 58.6729 34.0113 58.4303 33.582C58.1876 33.1527 57.8703 32.8353 57.4783 32.63C57.0863 32.4153 56.6616 32.308 56.2043 32.308C55.7376 32.308 55.3083 32.4153 54.9163 32.63C54.5336 32.8353 54.2256 33.1527 53.9923 33.582C53.7589 34.0113 53.6423 34.534 53.6423 35.15C53.6423 35.7753 53.7543 36.3027 53.9783 36.732C54.2116 37.1613 54.5196 37.4833 54.9023 37.698C55.2849 37.9033 55.7049 38.006 56.1623 38.006ZM61.2954 35.136C61.2954 34.352 61.454 33.666 61.7714 33.078C62.0887 32.4807 62.5227 32.0187 63.0734 31.692C63.6334 31.3653 64.254 31.202 64.9354 31.202C65.6074 31.202 66.1907 31.3467 66.6854 31.636C67.18 31.9253 67.5487 32.2893 67.7914 32.728V31.328H69.0794V39H67.7914V37.572C67.5394 38.02 67.1614 38.3933 66.6574 38.692C66.1627 38.9813 65.584 39.126 64.9214 39.126C64.24 39.126 63.624 38.958 63.0734 38.622C62.5227 38.286 62.0887 37.8147 61.7714 37.208C61.454 36.6013 61.2954 35.9107 61.2954 35.136ZM67.7914 35.15C67.7914 34.5713 67.6747 34.0673 67.4414 33.638C67.208 33.2087 66.8907 32.882 66.4894 32.658C66.0974 32.4247 65.6634 32.308 65.1874 32.308C64.7114 32.308 64.2774 32.42 63.8854 32.644C63.4934 32.868 63.1807 33.1947 62.9474 33.624C62.714 34.0533 62.5974 34.5573 62.5974 35.136C62.5974 35.724 62.714 36.2373 62.9474 36.676C63.1807 37.1053 63.4934 37.4367 63.8854 37.67C64.2774 37.894 64.7114 38.006 65.1874 38.006C65.6634 38.006 66.0974 37.894 66.4894 37.67C66.8907 37.4367 67.208 37.1053 67.4414 36.676C67.6747 36.2373 67.7914 35.7287 67.7914 35.15ZM70.7563 35.136C70.7563 34.352 70.915 33.666 71.2323 33.078C71.5496 32.4807 71.9836 32.0187 72.5343 31.692C73.0943 31.3653 73.7196 31.202 74.4103 31.202C75.0076 31.202 75.563 31.342 76.0763 31.622C76.5896 31.8927 76.9816 32.252 77.2523 32.7V28.64H78.5403V39H77.2523V37.558C77.0003 38.0153 76.627 38.3933 76.1323 38.692C75.6376 38.9813 75.059 39.126 74.3963 39.126C73.715 39.126 73.0943 38.958 72.5343 38.622C71.9836 38.286 71.5496 37.8147 71.2323 37.208C70.915 36.6013 70.7563 35.9107 70.7563 35.136ZM77.2523 35.15C77.2523 34.5713 77.1356 34.0673 76.9023 33.638C76.669 33.2087 76.3516 32.882 75.9503 32.658C75.5583 32.4247 75.1243 32.308 74.6483 32.308C74.1723 32.308 73.7383 32.42 73.3463 32.644C72.9543 32.868 72.6416 33.1947 72.4083 33.624C72.175 34.0533 72.0583 34.5573 72.0583 35.136C72.0583 35.724 72.175 36.2373 72.4083 36.676C72.6416 37.1053 72.9543 37.4367 73.3463 37.67C73.7383 37.894 74.1723 38.006 74.6483 38.006C75.1243 38.006 75.5583 37.894 75.9503 37.67C76.3516 37.4367 76.669 37.1053 76.9023 36.676C77.1356 36.2373 77.2523 35.7287 77.2523 35.15Z" fill="#1E1E1E"/>
<defs>
<clipPath id="clip0_111_404">
<rect width="24" height="24" fill="white" transform="translate(0 10.5)"/>
</clipPath>
</defs>
</svg>
