<svg width="135" height="45" viewBox="0 0 135 45" fill="none" xmlns="http://www.w3.org/2000/svg">
<g clip-path="url(#clip0_111_391)">
<path d="M16 26.5L12 22.5L8 26.5" stroke="#1E1E1E" stroke-width="2" stroke-linecap="round" stroke-linejoin="round"/>
<path d="M12 22.5V31.5" stroke="#1E1E1E" stroke-width="2" stroke-linecap="round" stroke-linejoin="round"/>
<path d="M20.39 28.89C21.3653 28.3583 22.1358 27.5169 22.5799 26.4986C23.0239 25.4804 23.1162 24.3432 22.8422 23.2667C22.5682 22.1901 21.9435 21.2355 21.0667 20.5534C20.1899 19.8714 19.1109 19.5007 18 19.5H16.74C16.4373 18.3292 15.8732 17.2423 15.0899 16.321C14.3067 15.3996 13.3248 14.6678 12.2181 14.1806C11.1114 13.6933 9.90855 13.4633 8.70012 13.5079C7.49168 13.5524 6.30907 13.8703 5.24118 14.4376C4.17328 15.005 3.24791 15.8071 2.53462 16.7836C1.82133 17.76 1.33869 18.8855 1.12298 20.0754C0.907268 21.2652 0.964104 22.4885 1.28921 23.6532C1.61432 24.818 2.19924 25.8938 3 26.8" stroke="#1E1E1E" stroke-width="2" stroke-linecap="round" stroke-linejoin="round"/>
<path d="M16 26.5L12 22.5L8 26.5" stroke="#1E1E1E" stroke-width="2" stroke-linecap="round" stroke-linejoin="round"/>
</g>
<path d="M34.21 18.112C33.4313 18.112 32.7273 17.9787 32.098 17.712C31.4793 17.4453 30.9887 17.0613 30.626 16.56C30.2633 16.0587 30.0767 15.4667 30.066 14.784H32.466C32.498 15.2427 32.658 15.6053 32.946 15.872C33.2447 16.1387 33.65 16.272 34.162 16.272C34.6847 16.272 35.0953 16.1493 35.394 15.904C35.6927 15.648 35.842 15.3173 35.842 14.912C35.842 14.5813 35.7407 14.3093 35.538 14.096C35.3353 13.8827 35.0793 13.7173 34.77 13.6C34.4713 13.472 34.0553 13.3333 33.522 13.184C32.7967 12.9707 32.2047 12.7627 31.746 12.56C31.298 12.3467 30.9087 12.032 30.578 11.616C30.258 11.1893 30.098 10.624 30.098 9.92C30.098 9.25867 30.2633 8.68267 30.594 8.192C30.9247 7.70133 31.3887 7.328 31.986 7.072C32.5833 6.80533 33.266 6.672 34.034 6.672C35.186 6.672 36.1193 6.95467 36.834 7.52C37.5593 8.07467 37.9593 8.85333 38.034 9.856H35.57C35.5487 9.472 35.3833 9.15733 35.074 8.912C34.7753 8.656 34.3753 8.528 33.874 8.528C33.4367 8.528 33.0847 8.64 32.818 8.864C32.562 9.088 32.434 9.41333 32.434 9.84C32.434 10.1387 32.53 10.3893 32.722 10.592C32.9247 10.784 33.17 10.944 33.458 11.072C33.7567 11.1893 34.1727 11.328 34.706 11.488C35.4313 11.7013 36.0233 11.9147 36.482 12.128C36.9407 12.3413 37.3353 12.6613 37.666 13.088C37.9967 13.5147 38.162 14.0747 38.162 14.768C38.162 15.3653 38.0073 15.92 37.698 16.432C37.3887 16.944 36.9353 17.3547 36.338 17.664C35.7407 17.9627 35.0313 18.112 34.21 18.112ZM48.344 13.376C48.344 13.696 48.3227 13.984 48.28 14.24H41.8C41.8533 14.88 42.0773 15.3813 42.472 15.744C42.8667 16.1067 43.352 16.288 43.928 16.288C44.76 16.288 45.352 15.9307 45.704 15.216H48.12C47.864 16.0693 47.3733 16.7733 46.648 17.328C45.9227 17.872 45.032 18.144 43.976 18.144C43.1227 18.144 42.3547 17.9573 41.672 17.584C41 17.2 40.472 16.6613 40.088 15.968C39.7147 15.2747 39.528 14.4747 39.528 13.568C39.528 12.6507 39.7147 11.8453 40.088 11.152C40.4613 10.4587 40.984 9.92533 41.656 9.552C42.328 9.17867 43.1013 8.992 43.976 8.992C44.8187 8.992 45.5707 9.17333 46.232 9.536C46.904 9.89867 47.4213 10.416 47.784 11.088C48.1573 11.7493 48.344 12.512 48.344 13.376ZM46.024 12.736C46.0133 12.16 45.8053 11.7013 45.4 11.36C44.9947 11.008 44.4987 10.832 43.912 10.832C43.3573 10.832 42.888 11.0027 42.504 11.344C42.1307 11.6747 41.9013 12.1387 41.816 12.736H46.024ZM52.219 6.16V18H49.979V6.16H52.219ZM58.4961 10.976H56.9441V18H54.6721V10.976H53.6641V9.136H54.6721V8.688C54.6721 7.6 54.9815 6.8 55.6001 6.288C56.2188 5.776 57.1521 5.536 58.4001 5.568V7.456C57.8561 7.44533 57.4775 7.536 57.2641 7.728C57.0508 7.92 56.9441 8.26667 56.9441 8.768V9.136H58.4961V10.976ZM61.0838 8.08C60.6891 8.08 60.3584 7.95733 60.0918 7.712C59.8358 7.456 59.7078 7.14133 59.7078 6.768C59.7078 6.39467 59.8358 6.08533 60.0918 5.84C60.3584 5.584 60.6891 5.456 61.0838 5.456C61.4784 5.456 61.8038 5.584 62.0598 5.84C62.3264 6.08533 62.4598 6.39467 62.4598 6.768C62.4598 7.14133 62.3264 7.456 62.0598 7.712C61.8038 7.95733 61.4784 8.08 61.0838 8.08ZM62.1878 9.136V18H59.9478V9.136H62.1878ZM72.6409 13.376C72.6409 13.696 72.6195 13.984 72.5769 14.24H66.0969C66.1502 14.88 66.3742 15.3813 66.7689 15.744C67.1635 16.1067 67.6489 16.288 68.2249 16.288C69.0569 16.288 69.6489 15.9307 70.0009 15.216H72.4169C72.1609 16.0693 71.6702 16.7733 70.9449 17.328C70.2195 17.872 69.3289 18.144 68.2729 18.144C67.4195 18.144 66.6515 17.9573 65.9689 17.584C65.2969 17.2 64.7689 16.6613 64.3849 15.968C64.0115 15.2747 63.8249 14.4747 63.8249 13.568C63.8249 12.6507 64.0115 11.8453 64.3849 11.152C64.7582 10.4587 65.2809 9.92533 65.9529 9.552C66.6249 9.17867 67.3982 8.992 68.2729 8.992C69.1155 8.992 69.8675 9.17333 70.5289 9.536C71.2009 9.89867 71.7182 10.416 72.0809 11.088C72.4542 11.7493 72.6409 12.512 72.6409 13.376ZM70.3209 12.736C70.3102 12.16 70.1022 11.7013 69.6969 11.36C69.2915 11.008 68.7955 10.832 68.2089 10.832C67.6542 10.832 67.1849 11.0027 66.8009 11.344C66.4275 11.6747 66.1982 12.1387 66.1129 12.736H70.3209ZM86.4564 9.136V18H84.2004V16.88C83.9124 17.264 83.5337 17.568 83.0644 17.792C82.6057 18.0053 82.1044 18.112 81.5604 18.112C80.867 18.112 80.2537 17.968 79.7204 17.68C79.187 17.3813 78.7657 16.9493 78.4564 16.384C78.1577 15.808 78.0084 15.1253 78.0084 14.336V9.136H80.2484V14.016C80.2484 14.72 80.4244 15.264 80.7764 15.648C81.1284 16.0213 81.6084 16.208 82.2164 16.208C82.835 16.208 83.3204 16.0213 83.6724 15.648C84.0244 15.264 84.2004 14.72 84.2004 14.016V9.136H86.4564ZM90.9065 10.416C91.1945 10.0107 91.5892 9.67467 92.0905 9.408C92.6025 9.13067 93.1838 8.992 93.8345 8.992C94.5918 8.992 95.2745 9.17867 95.8825 9.552C96.5012 9.92533 96.9865 10.4587 97.3385 11.152C97.7012 11.8347 97.8825 12.6293 97.8825 13.536C97.8825 14.4427 97.7012 15.248 97.3385 15.952C96.9865 16.6453 96.5012 17.184 95.8825 17.568C95.2745 17.952 94.5918 18.144 93.8345 18.144C93.1838 18.144 92.6078 18.0107 92.1065 17.744C91.6158 17.4773 91.2158 17.1413 90.9065 16.736V22.224H88.6665V9.136H90.9065V10.416ZM95.5945 13.536C95.5945 13.0027 95.4825 12.544 95.2585 12.16C95.0452 11.7653 94.7572 11.4667 94.3945 11.264C94.0425 11.0613 93.6585 10.96 93.2425 10.96C92.8372 10.96 92.4532 11.0667 92.0905 11.28C91.7385 11.4827 91.4505 11.7813 91.2265 12.176C91.0132 12.5707 90.9065 13.0347 90.9065 13.568C90.9065 14.1013 91.0132 14.5653 91.2265 14.96C91.4505 15.3547 91.7385 15.6587 92.0905 15.872C92.4532 16.0747 92.8372 16.176 93.2425 16.176C93.6585 16.176 94.0425 16.0693 94.3945 15.856C94.7572 15.6427 95.0452 15.3387 95.2585 14.944C95.4825 14.5493 95.5945 14.08 95.5945 13.536ZM101.75 6.16V18H99.5103V6.16H101.75ZM107.899 18.144C107.046 18.144 106.278 17.9573 105.595 17.584C104.913 17.2 104.374 16.6613 103.979 15.968C103.595 15.2747 103.403 14.4747 103.403 13.568C103.403 12.6613 103.601 11.8613 103.995 11.168C104.401 10.4747 104.95 9.94133 105.643 9.568C106.337 9.184 107.11 8.992 107.963 8.992C108.817 8.992 109.59 9.184 110.283 9.568C110.977 9.94133 111.521 10.4747 111.915 11.168C112.321 11.8613 112.523 12.6613 112.523 13.568C112.523 14.4747 112.315 15.2747 111.899 15.968C111.494 16.6613 110.939 17.2 110.235 17.584C109.542 17.9573 108.763 18.144 107.899 18.144ZM107.899 16.192C108.305 16.192 108.683 16.096 109.035 15.904C109.398 15.7013 109.686 15.4027 109.899 15.008C110.113 14.6133 110.219 14.1333 110.219 13.568C110.219 12.7253 109.995 12.08 109.547 11.632C109.11 11.1733 108.571 10.944 107.931 10.944C107.291 10.944 106.753 11.1733 106.315 11.632C105.889 12.08 105.675 12.7253 105.675 13.568C105.675 14.4107 105.883 15.0613 106.299 15.52C106.726 15.968 107.259 16.192 107.899 16.192ZM113.59 13.536C113.59 12.64 113.766 11.8453 114.118 11.152C114.481 10.4587 114.967 9.92533 115.575 9.552C116.193 9.17867 116.881 8.992 117.639 8.992C118.3 8.992 118.876 9.12533 119.367 9.392C119.868 9.65867 120.268 9.99467 120.567 10.4V9.136H122.823V18H120.567V16.704C120.279 17.12 119.879 17.4667 119.367 17.744C118.865 18.0107 118.284 18.144 117.623 18.144C116.876 18.144 116.193 17.952 115.575 17.568C114.967 17.184 114.481 16.6453 114.118 15.952C113.766 15.248 113.59 14.4427 113.59 13.536ZM120.567 13.568C120.567 13.024 120.46 12.56 120.247 12.176C120.033 11.7813 119.745 11.4827 119.383 11.28C119.02 11.0667 118.631 10.96 118.215 10.96C117.799 10.96 117.415 11.0613 117.062 11.264C116.711 11.4667 116.423 11.7653 116.199 12.16C115.985 12.544 115.879 13.0027 115.879 13.536C115.879 14.0693 115.985 14.5387 116.199 14.944C116.423 15.3387 116.711 15.6427 117.062 15.856C117.425 16.0693 117.809 16.176 118.215 16.176C118.631 16.176 119.02 16.0747 119.383 15.872C119.745 15.6587 120.033 15.36 120.247 14.976C120.46 14.5813 120.567 14.112 120.567 13.568ZM124.434 13.536C124.434 12.64 124.61 11.8453 124.962 11.152C125.325 10.4587 125.816 9.92533 126.434 9.552C127.053 9.17867 127.741 8.992 128.498 8.992C129.074 8.992 129.624 9.12 130.146 9.376C130.669 9.62133 131.085 9.952 131.394 10.368V6.16H133.666V18H131.394V16.688C131.117 17.1253 130.728 17.4773 130.226 17.744C129.725 18.0107 129.144 18.144 128.482 18.144C127.736 18.144 127.053 17.952 126.434 17.568C125.816 17.184 125.325 16.6453 124.962 15.952C124.61 15.248 124.434 14.4427 124.434 13.536ZM131.41 13.568C131.41 13.024 131.304 12.56 131.09 12.176C130.877 11.7813 130.589 11.4827 130.226 11.28C129.864 11.0667 129.474 10.96 129.058 10.96C128.642 10.96 128.258 11.0613 127.906 11.264C127.554 11.4667 127.266 11.7653 127.042 12.16C126.829 12.544 126.722 13.0027 126.722 13.536C126.722 14.0693 126.829 14.5387 127.042 14.944C127.266 15.3387 127.554 15.6427 127.906 15.856C128.269 16.0693 128.653 16.176 129.058 16.176C129.474 16.176 129.864 16.0747 130.226 15.872C130.589 15.6587 130.877 15.36 131.09 14.976C131.304 14.5813 131.41 14.112 131.41 13.568Z" fill="#03466E"/>
<path d="M31.7088 29.242V35.416C31.7088 36.284 31.9188 36.928 32.3388 37.348C32.7681 37.768 33.3608 37.978 34.1168 37.978C34.8634 37.978 35.4468 37.768 35.8668 37.348C36.2961 36.928 36.5108 36.284 36.5108 35.416V29.242H37.7848V35.402C37.7848 36.214 37.6214 36.9 37.2948 37.46C36.9681 38.0107 36.5248 38.4213 35.9648 38.692C35.4141 38.9627 34.7934 39.098 34.1028 39.098C33.4121 39.098 32.7868 38.9627 32.2268 38.692C31.6761 38.4213 31.2374 38.0107 30.9108 37.46C30.5934 36.9 30.4348 36.214 30.4348 35.402V29.242H31.7088ZM41.184 32.742C41.436 32.3033 41.8094 31.9393 42.304 31.65C42.808 31.3513 43.3914 31.202 44.054 31.202C44.7354 31.202 45.3514 31.3653 45.902 31.692C46.462 32.0187 46.9007 32.4807 47.218 33.078C47.5354 33.666 47.694 34.352 47.694 35.136C47.694 35.9107 47.5354 36.6013 47.218 37.208C46.9007 37.8147 46.462 38.286 45.902 38.622C45.3514 38.958 44.7354 39.126 44.054 39.126C43.4007 39.126 42.822 38.9813 42.318 38.692C41.8234 38.3933 41.4454 38.0247 41.184 37.586V42.64H39.91V31.328H41.184V32.742ZM46.392 35.136C46.392 34.5573 46.2754 34.0533 46.042 33.624C45.8087 33.1947 45.4914 32.868 45.09 32.644C44.698 32.42 44.264 32.308 43.788 32.308C43.3214 32.308 42.8874 32.4247 42.486 32.658C42.094 32.882 41.7767 33.2133 41.534 33.652C41.3007 34.0813 41.184 34.5807 41.184 35.15C41.184 35.7287 41.3007 36.2373 41.534 36.676C41.7767 37.1053 42.094 37.4367 42.486 37.67C42.8874 37.894 43.3214 38.006 43.788 38.006C44.264 38.006 44.698 37.894 45.09 37.67C45.4914 37.4367 45.8087 37.1053 46.042 36.676C46.2754 36.2373 46.392 35.724 46.392 35.136ZM50.645 28.64V39H49.371V28.64H50.645ZM56.1623 39.126C55.4436 39.126 54.7903 38.9627 54.2023 38.636C53.6236 38.3093 53.1663 37.8473 52.8303 37.25C52.5036 36.6433 52.3403 35.9433 52.3403 35.15C52.3403 34.366 52.5083 33.6753 52.8443 33.078C53.1896 32.4713 53.6563 32.0093 54.2443 31.692C54.8323 31.3653 55.4903 31.202 56.2183 31.202C56.9463 31.202 57.6043 31.3653 58.1923 31.692C58.7803 32.0093 59.2423 32.4667 59.5783 33.064C59.9236 33.6613 60.0963 34.3567 60.0963 35.15C60.0963 35.9433 59.9189 36.6433 59.5643 37.25C59.2189 37.8473 58.7476 38.3093 58.1503 38.636C57.5529 38.9627 56.8903 39.126 56.1623 39.126ZM56.1623 38.006C56.6196 38.006 57.0489 37.8987 57.4503 37.684C57.8516 37.4693 58.1736 37.1473 58.4163 36.718C58.6683 36.2887 58.7943 35.766 58.7943 35.15C58.7943 34.534 58.6729 34.0113 58.4303 33.582C58.1876 33.1527 57.8703 32.8353 57.4783 32.63C57.0863 32.4153 56.6616 32.308 56.2043 32.308C55.7376 32.308 55.3083 32.4153 54.9163 32.63C54.5336 32.8353 54.2256 33.1527 53.9923 33.582C53.7589 34.0113 53.6423 34.534 53.6423 35.15C53.6423 35.7753 53.7543 36.3027 53.9783 36.732C54.2116 37.1613 54.5196 37.4833 54.9023 37.698C55.2849 37.9033 55.7049 38.006 56.1623 38.006ZM61.2954 35.136C61.2954 34.352 61.454 33.666 61.7714 33.078C62.0887 32.4807 62.5227 32.0187 63.0734 31.692C63.6334 31.3653 64.254 31.202 64.9354 31.202C65.6074 31.202 66.1907 31.3467 66.6854 31.636C67.18 31.9253 67.5487 32.2893 67.7914 32.728V31.328H69.0794V39H67.7914V37.572C67.5394 38.02 67.1614 38.3933 66.6574 38.692C66.1627 38.9813 65.584 39.126 64.9214 39.126C64.24 39.126 63.624 38.958 63.0734 38.622C62.5227 38.286 62.0887 37.8147 61.7714 37.208C61.454 36.6013 61.2954 35.9107 61.2954 35.136ZM67.7914 35.15C67.7914 34.5713 67.6747 34.0673 67.4414 33.638C67.208 33.2087 66.8907 32.882 66.4894 32.658C66.0974 32.4247 65.6634 32.308 65.1874 32.308C64.7114 32.308 64.2774 32.42 63.8854 32.644C63.4934 32.868 63.1807 33.1947 62.9474 33.624C62.714 34.0533 62.5974 34.5573 62.5974 35.136C62.5974 35.724 62.714 36.2373 62.9474 36.676C63.1807 37.1053 63.4934 37.4367 63.8854 37.67C64.2774 37.894 64.7114 38.006 65.1874 38.006C65.6634 38.006 66.0974 37.894 66.4894 37.67C66.8907 37.4367 67.208 37.1053 67.4414 36.676C67.6747 36.2373 67.7914 35.7287 67.7914 35.15ZM70.7563 35.136C70.7563 34.352 70.915 33.666 71.2323 33.078C71.5496 32.4807 71.9836 32.0187 72.5343 31.692C73.0943 31.3653 73.7196 31.202 74.4103 31.202C75.0076 31.202 75.563 31.342 76.0763 31.622C76.5896 31.8927 76.9816 32.252 77.2523 32.7V28.64H78.5403V39H77.2523V37.558C77.0003 38.0153 76.627 38.3933 76.1323 38.692C75.6376 38.9813 75.059 39.126 74.3963 39.126C73.715 39.126 73.0943 38.958 72.5343 38.622C71.9836 38.286 71.5496 37.8147 71.2323 37.208C70.915 36.6013 70.7563 35.9107 70.7563 35.136ZM77.2523 35.15C77.2523 34.5713 77.1356 34.0673 76.9023 33.638C76.669 33.2087 76.3516 32.882 75.9503 32.658C75.5583 32.4247 75.1243 32.308 74.6483 32.308C74.1723 32.308 73.7383 32.42 73.3463 32.644C72.9543 32.868 72.6416 33.1947 72.4083 33.624C72.175 34.0533 72.0583 34.5573 72.0583 35.136C72.0583 35.724 72.175 36.2373 72.4083 36.676C72.6416 37.1053 72.9543 37.4367 73.3463 37.67C73.7383 37.894 74.1723 38.006 74.6483 38.006C75.1243 38.006 75.5583 37.894 75.9503 37.67C76.3516 37.4367 76.669 37.1053 76.9023 36.676C77.1356 36.2373 77.2523 35.7287 77.2523 35.15Z" fill="#1E1E1E"/>
<defs>
<clipPath id="clip0_111_391">
<rect width="24" height="24" fill="white" transform="translate(0 10.5)"/>
</clipPath>
</defs>
</svg>
