<svg width="246" height="35" viewBox="0 0 246 35" fill="none" xmlns="http://www.w3.org/2000/svg">
<path d="M23 29.5C23 30.0304 22.7893 30.5391 22.4142 30.9142C22.0391 31.2893 21.5304 31.5 21 31.5H3C2.46957 31.5 1.96086 31.2893 1.58579 30.9142C1.21071 30.5391 1 30.0304 1 29.5V18.5C1 17.9696 1.21071 17.4609 1.58579 17.0858C1.96086 16.7107 2.46957 16.5 3 16.5H7L9 13.5H15L17 16.5H21C21.5304 16.5 22.0391 16.7107 22.4142 17.0858C22.7893 17.4609 23 17.9696 23 18.5V29.5Z" stroke="#1E1E1E" stroke-width="2" stroke-linecap="round" stroke-linejoin="round"/>
<path d="M12 27.5C14.2091 27.5 16 25.7091 16 23.5C16 21.2909 14.2091 19.5 12 19.5C9.79086 19.5 8 21.2909 8 23.5C8 25.7091 9.79086 27.5 12 27.5Z" stroke="#1E1E1E" stroke-width="2" stroke-linecap="round" stroke-linejoin="round"/>
<path d="M43.432 7.49V9.164H40.102V20H38.05V9.164H34.702V7.49H43.432ZM44.8262 14.996C44.8262 14 45.0302 13.118 45.4382 12.35C45.8582 11.582 46.4222 10.988 47.1302 10.568C47.8502 10.136 48.6422 9.92 49.5062 9.92C50.2862 9.92 50.9642 10.076 51.5402 10.388C52.1282 10.688 52.5962 11.066 52.9442 11.522V10.082H55.0142V20H52.9442V18.524C52.5962 18.992 52.1222 19.382 51.5222 19.694C50.9222 20.006 50.2382 20.162 49.4702 20.162C48.6182 20.162 47.8382 19.946 47.1302 19.514C46.4222 19.07 45.8582 18.458 45.4382 17.678C45.0302 16.886 44.8262 15.992 44.8262 14.996ZM52.9442 15.032C52.9442 14.348 52.8002 13.754 52.5122 13.25C52.2362 12.746 51.8702 12.362 51.4142 12.098C50.9582 11.834 50.4662 11.702 49.9382 11.702C49.4102 11.702 48.9182 11.834 48.4622 12.098C48.0062 12.35 47.6342 12.728 47.3462 13.232C47.0702 13.724 46.9322 14.312 46.9322 14.996C46.9322 15.68 47.0702 16.28 47.3462 16.796C47.6342 17.312 48.0062 17.708 48.4622 17.984C48.9302 18.248 49.4222 18.38 49.9382 18.38C50.4662 18.38 50.9582 18.248 51.4142 17.984C51.8702 17.72 52.2362 17.336 52.5122 16.832C52.8002 16.316 52.9442 15.716 52.9442 15.032ZM61.6334 15.05L66.2054 20H63.4334L59.7614 15.734V20H57.7094V6.68H59.7614V14.42L63.3614 10.082H66.2054L61.6334 15.05ZM76.7662 14.798C76.7662 15.17 76.7422 15.506 76.6942 15.806H69.1162C69.1762 16.598 69.4702 17.234 69.9982 17.714C70.5262 18.194 71.1742 18.434 71.9422 18.434C73.0462 18.434 73.8262 17.972 74.2822 17.048H76.4962C76.1962 17.96 75.6502 18.71 74.8582 19.298C74.0782 19.874 73.1062 20.162 71.9422 20.162C70.9942 20.162 70.1422 19.952 69.3862 19.532C68.6422 19.1 68.0542 18.5 67.6222 17.732C67.2022 16.952 66.9922 16.052 66.9922 15.032C66.9922 14.012 67.1962 13.118 67.6042 12.35C68.0242 11.57 68.6062 10.97 69.3502 10.55C70.1062 10.13 70.9702 9.92 71.9422 9.92C72.8782 9.92 73.7122 10.124 74.4442 10.532C75.1762 10.94 75.7462 11.516 76.1542 12.26C76.5622 12.992 76.7662 13.838 76.7662 14.798ZM74.6242 14.15C74.6122 13.394 74.3422 12.788 73.8142 12.332C73.2862 11.876 72.6322 11.648 71.8522 11.648C71.1442 11.648 70.5382 11.876 70.0342 12.332C69.5302 12.776 69.2302 13.382 69.1342 14.15H74.6242ZM82.7773 14.996C82.7773 14 82.9813 13.118 83.3893 12.35C83.8093 11.582 84.3733 10.988 85.0813 10.568C85.8013 10.136 86.5933 9.92 87.4573 9.92C88.2373 9.92 88.9153 10.076 89.4913 10.388C90.0793 10.688 90.5473 11.066 90.8953 11.522V10.082H92.9653V20H90.8953V18.524C90.5473 18.992 90.0733 19.382 89.4733 19.694C88.8733 20.006 88.1893 20.162 87.4213 20.162C86.5693 20.162 85.7893 19.946 85.0813 19.514C84.3733 19.07 83.8093 18.458 83.3893 17.678C82.9813 16.886 82.7773 15.992 82.7773 14.996ZM90.8953 15.032C90.8953 14.348 90.7513 13.754 90.4633 13.25C90.1873 12.746 89.8213 12.362 89.3653 12.098C88.9093 11.834 88.4173 11.702 87.8893 11.702C87.3613 11.702 86.8693 11.834 86.4133 12.098C85.9573 12.35 85.5853 12.728 85.2973 13.232C85.0213 13.724 84.8833 14.312 84.8833 14.996C84.8833 15.68 85.0213 16.28 85.2973 16.796C85.5853 17.312 85.9573 17.708 86.4133 17.984C86.8813 18.248 87.3733 18.38 87.8893 18.38C88.4173 18.38 88.9093 18.248 89.3653 17.984C89.8213 17.72 90.1873 17.336 90.4633 16.832C90.7513 16.316 90.8953 15.716 90.8953 15.032ZM103.936 20.162C103.156 20.162 102.454 20.024 101.83 19.748C101.218 19.46 100.732 19.076 100.372 18.596C100.012 18.104 99.8203 17.558 99.7963 16.958H101.92C101.956 17.378 102.154 17.732 102.514 18.02C102.886 18.296 103.348 18.434 103.9 18.434C104.476 18.434 104.92 18.326 105.232 18.11C105.556 17.882 105.718 17.594 105.718 17.246C105.718 16.874 105.538 16.598 105.178 16.418C104.83 16.238 104.272 16.04 103.504 15.824C102.76 15.62 102.154 15.422 101.686 15.23C101.218 15.038 100.81 14.744 100.462 14.348C100.126 13.952 99.9583 13.43 99.9583 12.782C99.9583 12.254 100.114 11.774 100.426 11.342C100.738 10.898 101.182 10.55 101.758 10.298C102.346 10.046 103.018 9.92 103.774 9.92C104.902 9.92 105.808 10.208 106.492 10.784C107.188 11.348 107.56 12.122 107.608 13.106H105.556C105.52 12.662 105.34 12.308 105.016 12.044C104.692 11.78 104.254 11.648 103.702 11.648C103.162 11.648 102.748 11.75 102.46 11.954C102.172 12.158 102.028 12.428 102.028 12.764C102.028 13.028 102.124 13.25 102.316 13.43C102.508 13.61 102.742 13.754 103.018 13.862C103.294 13.958 103.702 14.084 104.242 14.24C104.962 14.432 105.55 14.63 106.006 14.834C106.474 15.026 106.876 15.314 107.212 15.698C107.548 16.082 107.722 16.592 107.734 17.228C107.734 17.792 107.578 18.296 107.266 18.74C106.954 19.184 106.51 19.532 105.934 19.784C105.37 20.036 104.704 20.162 103.936 20.162ZM119.042 14.798C119.042 15.17 119.018 15.506 118.97 15.806H111.392C111.452 16.598 111.746 17.234 112.274 17.714C112.802 18.194 113.45 18.434 114.218 18.434C115.322 18.434 116.102 17.972 116.558 17.048H118.772C118.472 17.96 117.926 18.71 117.134 19.298C116.354 19.874 115.382 20.162 114.218 20.162C113.27 20.162 112.418 19.952 111.662 19.532C110.918 19.1 110.33 18.5 109.898 17.732C109.478 16.952 109.268 16.052 109.268 15.032C109.268 14.012 109.472 13.118 109.88 12.35C110.3 11.57 110.882 10.97 111.626 10.55C112.382 10.13 113.246 9.92 114.218 9.92C115.154 9.92 115.988 10.124 116.72 10.532C117.452 10.94 118.022 11.516 118.43 12.26C118.838 12.992 119.042 13.838 119.042 14.798ZM116.9 14.15C116.888 13.394 116.618 12.788 116.09 12.332C115.562 11.876 114.908 11.648 114.128 11.648C113.42 11.648 112.814 11.876 112.31 12.332C111.806 12.776 111.506 13.382 111.41 14.15H116.9ZM123.113 6.68V20H121.061V6.68H123.113ZM129.965 11.756H128.129V20H126.059V11.756H124.889V10.082H126.059V9.38C126.059 8.24 126.359 7.412 126.959 6.896C127.571 6.368 128.525 6.104 129.821 6.104V7.814C129.197 7.814 128.759 7.934 128.507 8.174C128.255 8.402 128.129 8.804 128.129 9.38V10.082H129.965V11.756ZM132.828 8.768C132.456 8.768 132.144 8.642 131.892 8.39C131.64 8.138 131.514 7.826 131.514 7.454C131.514 7.082 131.64 6.77 131.892 6.518C132.144 6.266 132.456 6.14 132.828 6.14C133.188 6.14 133.494 6.266 133.746 6.518C133.998 6.77 134.124 7.082 134.124 7.454C134.124 7.826 133.998 8.138 133.746 8.39C133.494 8.642 133.188 8.768 132.828 8.768ZM133.836 10.082V20H131.784V10.082H133.836ZM145.62 14.798C145.62 15.17 145.596 15.506 145.548 15.806H137.97C138.03 16.598 138.324 17.234 138.852 17.714C139.38 18.194 140.028 18.434 140.796 18.434C141.9 18.434 142.68 17.972 143.136 17.048H145.35C145.05 17.96 144.504 18.71 143.712 19.298C142.932 19.874 141.96 20.162 140.796 20.162C139.848 20.162 138.996 19.952 138.24 19.532C137.496 19.1 136.908 18.5 136.476 17.732C136.056 16.952 135.846 16.052 135.846 15.032C135.846 14.012 136.05 13.118 136.458 12.35C136.878 11.57 137.46 10.97 138.204 10.55C138.96 10.13 139.824 9.92 140.796 9.92C141.732 9.92 142.566 10.124 143.298 10.532C144.03 10.94 144.6 11.516 145.008 12.26C145.416 12.992 145.62 13.838 145.62 14.798ZM143.478 14.15C143.466 13.394 143.196 12.788 142.668 12.332C142.14 11.876 141.486 11.648 140.706 11.648C139.998 11.648 139.392 11.876 138.888 12.332C138.384 12.776 138.084 13.382 137.988 14.15H143.478ZM156.617 20.162C155.681 20.162 154.835 19.952 154.079 19.532C153.323 19.1 152.729 18.5 152.297 17.732C151.865 16.952 151.649 16.052 151.649 15.032C151.649 14.024 151.871 13.13 152.315 12.35C152.759 11.57 153.365 10.97 154.133 10.55C154.901 10.13 155.759 9.92 156.707 9.92C157.655 9.92 158.513 10.13 159.281 10.55C160.049 10.97 160.655 11.57 161.099 12.35C161.543 13.13 161.765 14.024 161.765 15.032C161.765 16.04 161.537 16.934 161.081 17.714C160.625 18.494 160.001 19.1 159.209 19.532C158.429 19.952 157.565 20.162 156.617 20.162ZM156.617 18.38C157.145 18.38 157.637 18.254 158.093 18.002C158.561 17.75 158.939 17.372 159.227 16.868C159.515 16.364 159.659 15.752 159.659 15.032C159.659 14.312 159.521 13.706 159.245 13.214C158.969 12.71 158.603 12.332 158.147 12.08C157.691 11.828 157.199 11.702 156.671 11.702C156.143 11.702 155.651 11.828 155.195 12.08C154.751 12.332 154.397 12.71 154.133 13.214C153.869 13.706 153.737 14.312 153.737 15.032C153.737 16.1 154.007 16.928 154.547 17.516C155.099 18.092 155.789 18.38 156.617 18.38ZM167.951 11.756H166.115V20H164.045V11.756H162.875V10.082H164.045V9.38C164.045 8.24 164.345 7.412 164.945 6.896C165.557 6.368 166.511 6.104 167.807 6.104V7.814C167.183 7.814 166.745 7.934 166.493 8.174C166.241 8.402 166.115 8.804 166.115 9.38V10.082H167.951V11.756ZM183.374 10.082L177.29 24.662H175.166L177.182 19.838L173.276 10.082H175.562L178.352 17.642L181.25 10.082H183.374ZM189.224 20.162C188.288 20.162 187.442 19.952 186.686 19.532C185.93 19.1 185.336 18.5 184.904 17.732C184.472 16.952 184.256 16.052 184.256 15.032C184.256 14.024 184.478 13.13 184.922 12.35C185.366 11.57 185.972 10.97 186.74 10.55C187.508 10.13 188.366 9.92 189.314 9.92C190.262 9.92 191.12 10.13 191.888 10.55C192.656 10.97 193.262 11.57 193.706 12.35C194.15 13.13 194.372 14.024 194.372 15.032C194.372 16.04 194.144 16.934 193.688 17.714C193.232 18.494 192.608 19.1 191.816 19.532C191.036 19.952 190.172 20.162 189.224 20.162ZM189.224 18.38C189.752 18.38 190.244 18.254 190.7 18.002C191.168 17.75 191.546 17.372 191.834 16.868C192.122 16.364 192.266 15.752 192.266 15.032C192.266 14.312 192.128 13.706 191.852 13.214C191.576 12.71 191.21 12.332 190.754 12.08C190.298 11.828 189.806 11.702 189.278 11.702C188.75 11.702 188.258 11.828 187.802 12.08C187.358 12.332 187.004 12.71 186.74 13.214C186.476 13.706 186.344 14.312 186.344 15.032C186.344 16.1 186.614 16.928 187.154 17.516C187.706 18.092 188.396 18.38 189.224 18.38ZM205.383 10.082V20H203.331V18.83C203.007 19.238 202.581 19.562 202.053 19.802C201.537 20.03 200.985 20.144 200.397 20.144C199.617 20.144 198.915 19.982 198.291 19.658C197.679 19.334 197.193 18.854 196.833 18.218C196.485 17.582 196.311 16.814 196.311 15.914V10.082H198.345V15.608C198.345 16.496 198.567 17.18 199.011 17.66C199.455 18.128 200.061 18.362 200.829 18.362C201.597 18.362 202.203 18.128 202.647 17.66C203.103 17.18 203.331 16.496 203.331 15.608V10.082H205.383ZM210.142 11.522C210.442 11.018 210.838 10.628 211.33 10.352C211.834 10.064 212.428 9.92 213.112 9.92V12.044H212.59C211.786 12.044 211.174 12.248 210.754 12.656C210.346 13.064 210.142 13.772 210.142 14.78V20H208.09V10.082H210.142V11.522ZM218.598 20.162C217.818 20.162 217.116 20.024 216.492 19.748C215.88 19.46 215.394 19.076 215.034 18.596C214.674 18.104 214.482 17.558 214.458 16.958H216.582C216.618 17.378 216.816 17.732 217.176 18.02C217.548 18.296 218.01 18.434 218.562 18.434C219.138 18.434 219.582 18.326 219.894 18.11C220.218 17.882 220.38 17.594 220.38 17.246C220.38 16.874 220.2 16.598 219.84 16.418C219.492 16.238 218.934 16.04 218.166 15.824C217.422 15.62 216.816 15.422 216.348 15.23C215.88 15.038 215.472 14.744 215.124 14.348C214.788 13.952 214.62 13.43 214.62 12.782C214.62 12.254 214.776 11.774 215.088 11.342C215.4 10.898 215.844 10.55 216.42 10.298C217.008 10.046 217.68 9.92 218.436 9.92C219.564 9.92 220.47 10.208 221.154 10.784C221.85 11.348 222.222 12.122 222.27 13.106H220.218C220.182 12.662 220.002 12.308 219.678 12.044C219.354 11.78 218.916 11.648 218.364 11.648C217.824 11.648 217.41 11.75 217.122 11.954C216.834 12.158 216.69 12.428 216.69 12.764C216.69 13.028 216.786 13.25 216.978 13.43C217.17 13.61 217.404 13.754 217.68 13.862C217.956 13.958 218.364 14.084 218.904 14.24C219.624 14.432 220.212 14.63 220.668 14.834C221.136 15.026 221.538 15.314 221.874 15.698C222.21 16.082 222.384 16.592 222.396 17.228C222.396 17.792 222.24 18.296 221.928 18.74C221.616 19.184 221.172 19.532 220.596 19.784C220.032 20.036 219.366 20.162 218.598 20.162ZM233.704 14.798C233.704 15.17 233.68 15.506 233.632 15.806H226.054C226.114 16.598 226.408 17.234 226.936 17.714C227.464 18.194 228.112 18.434 228.88 18.434C229.984 18.434 230.764 17.972 231.22 17.048H233.434C233.134 17.96 232.588 18.71 231.796 19.298C231.016 19.874 230.044 20.162 228.88 20.162C227.932 20.162 227.08 19.952 226.324 19.532C225.58 19.1 224.992 18.5 224.56 17.732C224.14 16.952 223.93 16.052 223.93 15.032C223.93 14.012 224.134 13.118 224.542 12.35C224.962 11.57 225.544 10.97 226.288 10.55C227.044 10.13 227.908 9.92 228.88 9.92C229.816 9.92 230.65 10.124 231.382 10.532C232.114 10.94 232.684 11.516 233.092 12.26C233.5 12.992 233.704 13.838 233.704 14.798ZM231.562 14.15C231.55 13.394 231.28 12.788 230.752 12.332C230.224 11.876 229.57 11.648 228.79 11.648C228.082 11.648 227.476 11.876 226.972 12.332C226.468 12.776 226.168 13.382 226.072 14.15H231.562ZM237.775 6.68V20H235.723V6.68H237.775ZM244.627 11.756H242.791V20H240.721V11.756H239.551V10.082H240.721V9.38C240.721 8.24 241.021 7.412 241.621 6.896C242.233 6.368 243.187 6.104 244.483 6.104V7.814C243.859 7.814 243.421 7.934 243.169 8.174C242.917 8.402 242.791 8.804 242.791 9.38V10.082H244.627V11.756Z" fill="#03466E"/>
</svg>
