<svg width="274" height="35" viewBox="0 0 274 35" fill="none" xmlns="http://www.w3.org/2000/svg">
<path d="M19 13.5H5C3.89543 13.5 3 14.3954 3 15.5V29.5C3 30.6046 3.89543 31.5 5 31.5H19C20.1046 31.5 21 30.6046 21 29.5V15.5C21 14.3954 20.1046 13.5 19 13.5Z" stroke="#1E1E1E" stroke-width="2" stroke-linecap="round" stroke-linejoin="round"/>
<path d="M9 13.5V31.5" stroke="#1E1E1E" stroke-width="2" stroke-linecap="round" stroke-linejoin="round"/>
<path d="M43.432 7.49V9.164H40.102V20H38.05V9.164H34.702V7.49H43.432ZM44.8262 14.996C44.8262 14 45.0302 13.118 45.4382 12.35C45.8582 11.582 46.4222 10.988 47.1302 10.568C47.8502 10.136 48.6422 9.92 49.5062 9.92C50.2862 9.92 50.9642 10.076 51.5402 10.388C52.1282 10.688 52.5962 11.066 52.9442 11.522V10.082H55.0142V20H52.9442V18.524C52.5962 18.992 52.1222 19.382 51.5222 19.694C50.9222 20.006 50.2382 20.162 49.4702 20.162C48.6182 20.162 47.8382 19.946 47.1302 19.514C46.4222 19.07 45.8582 18.458 45.4382 17.678C45.0302 16.886 44.8262 15.992 44.8262 14.996ZM52.9442 15.032C52.9442 14.348 52.8002 13.754 52.5122 13.25C52.2362 12.746 51.8702 12.362 51.4142 12.098C50.9582 11.834 50.4662 11.702 49.9382 11.702C49.4102 11.702 48.9182 11.834 48.4622 12.098C48.0062 12.35 47.6342 12.728 47.3462 13.232C47.0702 13.724 46.9322 14.312 46.9322 14.996C46.9322 15.68 47.0702 16.28 47.3462 16.796C47.6342 17.312 48.0062 17.708 48.4622 17.984C48.9302 18.248 49.4222 18.38 49.9382 18.38C50.4662 18.38 50.9582 18.248 51.4142 17.984C51.8702 17.72 52.2362 17.336 52.5122 16.832C52.8002 16.316 52.9442 15.716 52.9442 15.032ZM61.6334 15.05L66.2054 20H63.4334L59.7614 15.734V20H57.7094V6.68H59.7614V14.42L63.3614 10.082H66.2054L61.6334 15.05ZM76.7662 14.798C76.7662 15.17 76.7422 15.506 76.6942 15.806H69.1162C69.1762 16.598 69.4702 17.234 69.9982 17.714C70.5262 18.194 71.1742 18.434 71.9422 18.434C73.0462 18.434 73.8262 17.972 74.2822 17.048H76.4962C76.1962 17.96 75.6502 18.71 74.8582 19.298C74.0782 19.874 73.1062 20.162 71.9422 20.162C70.9942 20.162 70.1422 19.952 69.3862 19.532C68.6422 19.1 68.0542 18.5 67.6222 17.732C67.2022 16.952 66.9922 16.052 66.9922 15.032C66.9922 14.012 67.1962 13.118 67.6042 12.35C68.0242 11.57 68.6062 10.97 69.3502 10.55C70.1062 10.13 70.9702 9.92 71.9422 9.92C72.8782 9.92 73.7122 10.124 74.4442 10.532C75.1762 10.94 75.7462 11.516 76.1542 12.26C76.5622 12.992 76.7662 13.838 76.7662 14.798ZM74.6242 14.15C74.6122 13.394 74.3422 12.788 73.8142 12.332C73.2862 11.876 72.6322 11.648 71.8522 11.648C71.1442 11.648 70.5382 11.876 70.0342 12.332C69.5302 12.776 69.2302 13.382 69.1342 14.15H74.6242ZM82.7773 14.996C82.7773 14 82.9813 13.118 83.3893 12.35C83.8093 11.582 84.3733 10.988 85.0813 10.568C85.8013 10.136 86.5933 9.92 87.4573 9.92C88.2373 9.92 88.9153 10.076 89.4913 10.388C90.0793 10.688 90.5473 11.066 90.8953 11.522V10.082H92.9653V20H90.8953V18.524C90.5473 18.992 90.0733 19.382 89.4733 19.694C88.8733 20.006 88.1893 20.162 87.4213 20.162C86.5693 20.162 85.7893 19.946 85.0813 19.514C84.3733 19.07 83.8093 18.458 83.3893 17.678C82.9813 16.886 82.7773 15.992 82.7773 14.996ZM90.8953 15.032C90.8953 14.348 90.7513 13.754 90.4633 13.25C90.1873 12.746 89.8213 12.362 89.3653 12.098C88.9093 11.834 88.4173 11.702 87.8893 11.702C87.3613 11.702 86.8693 11.834 86.4133 12.098C85.9573 12.35 85.5853 12.728 85.2973 13.232C85.0213 13.724 84.8833 14.312 84.8833 14.996C84.8833 15.68 85.0213 16.28 85.2973 16.796C85.5853 17.312 85.9573 17.708 86.4133 17.984C86.8813 18.248 87.3733 18.38 87.8893 18.38C88.4173 18.38 88.9093 18.248 89.3653 17.984C89.8213 17.72 90.1873 17.336 90.4633 16.832C90.7513 16.316 90.8953 15.716 90.8953 15.032ZM102.388 11.54C102.736 11.084 103.21 10.7 103.81 10.388C104.41 10.076 105.088 9.92 105.844 9.92C106.708 9.92 107.494 10.136 108.202 10.568C108.922 10.988 109.486 11.582 109.894 12.35C110.302 13.118 110.506 14 110.506 14.996C110.506 15.992 110.302 16.886 109.894 17.678C109.486 18.458 108.922 19.07 108.202 19.514C107.494 19.946 106.708 20.162 105.844 20.162C105.088 20.162 104.416 20.012 103.828 19.712C103.24 19.4 102.76 19.016 102.388 18.56V24.716H100.336V10.082H102.388V11.54ZM108.418 14.996C108.418 14.312 108.274 13.724 107.986 13.232C107.71 12.728 107.338 12.35 106.87 12.098C106.414 11.834 105.922 11.702 105.394 11.702C104.878 11.702 104.386 11.834 103.918 12.098C103.462 12.362 103.09 12.746 102.802 13.25C102.526 13.754 102.388 14.348 102.388 15.032C102.388 15.716 102.526 16.316 102.802 16.832C103.09 17.336 103.462 17.72 103.918 17.984C104.386 18.248 104.878 18.38 105.394 18.38C105.922 18.38 106.414 18.248 106.87 17.984C107.338 17.708 107.71 17.312 107.986 16.796C108.274 16.28 108.418 15.68 108.418 14.996ZM113.58 8.768C113.208 8.768 112.896 8.642 112.644 8.39C112.392 8.138 112.266 7.826 112.266 7.454C112.266 7.082 112.392 6.77 112.644 6.518C112.896 6.266 113.208 6.14 113.58 6.14C113.94 6.14 114.246 6.266 114.498 6.518C114.75 6.77 114.876 7.082 114.876 7.454C114.876 7.826 114.75 8.138 114.498 8.39C114.246 8.642 113.94 8.768 113.58 8.768ZM114.588 10.082V20H112.536V10.082H114.588ZM116.598 15.032C116.598 14.012 116.802 13.118 117.21 12.35C117.63 11.57 118.206 10.97 118.938 10.55C119.67 10.13 120.51 9.92 121.458 9.92C122.658 9.92 123.648 10.208 124.428 10.784C125.22 11.348 125.754 12.158 126.03 13.214H123.816C123.636 12.722 123.348 12.338 122.952 12.062C122.556 11.786 122.058 11.648 121.458 11.648C120.618 11.648 119.946 11.948 119.442 12.548C118.95 13.136 118.704 13.964 118.704 15.032C118.704 16.1 118.95 16.934 119.442 17.534C119.946 18.134 120.618 18.434 121.458 18.434C122.646 18.434 123.432 17.912 123.816 16.868H126.03C125.742 17.876 125.202 18.68 124.41 19.28C123.618 19.868 122.634 20.162 121.458 20.162C120.51 20.162 119.67 19.952 118.938 19.532C118.206 19.1 117.63 18.5 117.21 17.732C116.802 16.952 116.598 16.052 116.598 15.032ZM130.469 11.756V17.246C130.469 17.618 130.553 17.888 130.721 18.056C130.901 18.212 131.201 18.29 131.621 18.29H132.881V20H131.261C130.337 20 129.629 19.784 129.137 19.352C128.645 18.92 128.399 18.218 128.399 17.246V11.756H127.229V10.082H128.399V7.616H130.469V10.082H132.881V11.756H130.469ZM143.754 10.082V20H141.702V18.83C141.378 19.238 140.952 19.562 140.424 19.802C139.908 20.03 139.356 20.144 138.768 20.144C137.988 20.144 137.286 19.982 136.662 19.658C136.05 19.334 135.564 18.854 135.204 18.218C134.856 17.582 134.682 16.814 134.682 15.914V10.082H136.716V15.608C136.716 16.496 136.938 17.18 137.382 17.66C137.826 18.128 138.432 18.362 139.2 18.362C139.968 18.362 140.574 18.128 141.018 17.66C141.474 17.18 141.702 16.496 141.702 15.608V10.082H143.754ZM148.513 11.522C148.813 11.018 149.209 10.628 149.701 10.352C150.205 10.064 150.799 9.92 151.483 9.92V12.044H150.961C150.157 12.044 149.545 12.248 149.125 12.656C148.717 13.064 148.513 13.772 148.513 14.78V20H146.461V10.082H148.513V11.522ZM162.46 14.798C162.46 15.17 162.436 15.506 162.388 15.806H154.81C154.87 16.598 155.164 17.234 155.692 17.714C156.22 18.194 156.868 18.434 157.636 18.434C158.74 18.434 159.52 17.972 159.976 17.048H162.19C161.89 17.96 161.344 18.71 160.552 19.298C159.772 19.874 158.8 20.162 157.636 20.162C156.688 20.162 155.836 19.952 155.08 19.532C154.336 19.1 153.748 18.5 153.316 17.732C152.896 16.952 152.686 16.052 152.686 15.032C152.686 14.012 152.89 13.118 153.298 12.35C153.718 11.57 154.3 10.97 155.044 10.55C155.8 10.13 156.664 9.92 157.636 9.92C158.572 9.92 159.406 10.124 160.138 10.532C160.87 10.94 161.44 11.516 161.848 12.26C162.256 12.992 162.46 13.838 162.46 14.798ZM160.318 14.15C160.306 13.394 160.036 12.788 159.508 12.332C158.98 11.876 158.326 11.648 157.546 11.648C156.838 11.648 156.232 11.876 155.728 12.332C155.224 12.776 154.924 13.382 154.828 14.15H160.318ZM173.457 20.162C172.521 20.162 171.675 19.952 170.919 19.532C170.163 19.1 169.569 18.5 169.137 17.732C168.705 16.952 168.489 16.052 168.489 15.032C168.489 14.024 168.711 13.13 169.155 12.35C169.599 11.57 170.205 10.97 170.973 10.55C171.741 10.13 172.599 9.92 173.547 9.92C174.495 9.92 175.353 10.13 176.121 10.55C176.889 10.97 177.495 11.57 177.939 12.35C178.383 13.13 178.605 14.024 178.605 15.032C178.605 16.04 178.377 16.934 177.921 17.714C177.465 18.494 176.841 19.1 176.049 19.532C175.269 19.952 174.405 20.162 173.457 20.162ZM173.457 18.38C173.985 18.38 174.477 18.254 174.933 18.002C175.401 17.75 175.779 17.372 176.067 16.868C176.355 16.364 176.499 15.752 176.499 15.032C176.499 14.312 176.361 13.706 176.085 13.214C175.809 12.71 175.443 12.332 174.987 12.08C174.531 11.828 174.039 11.702 173.511 11.702C172.983 11.702 172.491 11.828 172.035 12.08C171.591 12.332 171.237 12.71 170.973 13.214C170.709 13.706 170.577 14.312 170.577 15.032C170.577 16.1 170.847 16.928 171.387 17.516C171.939 18.092 172.629 18.38 173.457 18.38ZM184.791 11.756H182.955V20H180.885V11.756H179.715V10.082H180.885V9.38C180.885 8.24 181.185 7.412 181.785 6.896C182.397 6.368 183.351 6.104 184.647 6.104V7.814C184.023 7.814 183.585 7.934 183.333 8.174C183.081 8.402 182.955 8.804 182.955 9.38V10.082H184.791V11.756ZM190.602 14.996C190.602 14 190.806 13.118 191.214 12.35C191.634 11.582 192.198 10.988 192.906 10.568C193.626 10.136 194.418 9.92 195.282 9.92C196.062 9.92 196.74 10.076 197.316 10.388C197.904 10.688 198.372 11.066 198.72 11.522V10.082H200.79V20H198.72V18.524C198.372 18.992 197.898 19.382 197.298 19.694C196.698 20.006 196.014 20.162 195.246 20.162C194.394 20.162 193.614 19.946 192.906 19.514C192.198 19.07 191.634 18.458 191.214 17.678C190.806 16.886 190.602 15.992 190.602 14.996ZM198.72 15.032C198.72 14.348 198.576 13.754 198.288 13.25C198.012 12.746 197.646 12.362 197.19 12.098C196.734 11.834 196.242 11.702 195.714 11.702C195.186 11.702 194.694 11.834 194.238 12.098C193.782 12.35 193.41 12.728 193.122 13.232C192.846 13.724 192.708 14.312 192.708 14.996C192.708 15.68 192.846 16.28 193.122 16.796C193.41 17.312 193.782 17.708 194.238 17.984C194.706 18.248 195.198 18.38 195.714 18.38C196.242 18.38 196.734 18.248 197.19 17.984C197.646 17.72 198.012 17.336 198.288 16.832C198.576 16.316 198.72 15.716 198.72 15.032ZM211.995 18.164L214.803 10.082H216.981L213.201 20H210.753L206.991 10.082H209.187L211.995 18.164ZM217.848 14.996C217.848 14 218.052 13.118 218.46 12.35C218.88 11.582 219.444 10.988 220.152 10.568C220.872 10.136 221.664 9.92 222.528 9.92C223.308 9.92 223.986 10.076 224.562 10.388C225.15 10.688 225.618 11.066 225.966 11.522V10.082H228.036V20H225.966V18.524C225.618 18.992 225.144 19.382 224.544 19.694C223.944 20.006 223.26 20.162 222.492 20.162C221.64 20.162 220.86 19.946 220.152 19.514C219.444 19.07 218.88 18.458 218.46 17.678C218.052 16.886 217.848 15.992 217.848 14.996ZM225.966 15.032C225.966 14.348 225.822 13.754 225.534 13.25C225.258 12.746 224.892 12.362 224.436 12.098C223.98 11.834 223.488 11.702 222.96 11.702C222.432 11.702 221.94 11.834 221.484 12.098C221.028 12.35 220.656 12.728 220.368 13.232C220.092 13.724 219.954 14.312 219.954 14.996C219.954 15.68 220.092 16.28 220.368 16.796C220.656 17.312 221.028 17.708 221.484 17.984C221.952 18.248 222.444 18.38 222.96 18.38C223.488 18.38 223.98 18.248 224.436 17.984C224.892 17.72 225.258 17.336 225.534 16.832C225.822 16.316 225.966 15.716 225.966 15.032ZM232.783 6.68V20H230.731V6.68H232.783ZM236.521 8.768C236.149 8.768 235.837 8.642 235.585 8.39C235.333 8.138 235.207 7.826 235.207 7.454C235.207 7.082 235.333 6.77 235.585 6.518C235.837 6.266 236.149 6.14 236.521 6.14C236.881 6.14 237.187 6.266 237.439 6.518C237.691 6.77 237.817 7.082 237.817 7.454C237.817 7.826 237.691 8.138 237.439 8.39C237.187 8.642 236.881 8.768 236.521 8.768ZM237.529 10.082V20H235.477V10.082H237.529ZM239.539 14.996C239.539 14 239.743 13.118 240.151 12.35C240.571 11.582 241.135 10.988 241.843 10.568C242.563 10.136 243.361 9.92 244.237 9.92C244.885 9.92 245.521 10.064 246.145 10.352C246.781 10.628 247.285 11 247.657 11.468V6.68H249.727V20H247.657V18.506C247.321 18.986 246.853 19.382 246.253 19.694C245.665 20.006 244.987 20.162 244.219 20.162C243.355 20.162 242.563 19.946 241.843 19.514C241.135 19.07 240.571 18.458 240.151 17.678C239.743 16.886 239.539 15.992 239.539 14.996ZM247.657 15.032C247.657 14.348 247.513 13.754 247.225 13.25C246.949 12.746 246.583 12.362 246.127 12.098C245.671 11.834 245.179 11.702 244.651 11.702C244.123 11.702 243.631 11.834 243.175 12.098C242.719 12.35 242.347 12.728 242.059 13.232C241.783 13.724 241.645 14.312 241.645 14.996C241.645 15.68 241.783 16.28 242.059 16.796C242.347 17.312 242.719 17.708 243.175 17.984C243.643 18.248 244.135 18.38 244.651 18.38C245.179 18.38 245.671 18.248 246.127 17.984C246.583 17.72 246.949 17.336 247.225 16.832C247.513 16.316 247.657 15.716 247.657 15.032ZM259.15 7.49V20H257.098V7.49H259.15ZM265.93 7.49C267.262 7.49 268.426 7.748 269.422 8.264C270.43 8.768 271.204 9.5 271.744 10.46C272.296 11.408 272.572 12.518 272.572 13.79C272.572 15.062 272.296 16.166 271.744 17.102C271.204 18.038 270.43 18.758 269.422 19.262C268.426 19.754 267.262 20 265.93 20H261.844V7.49H265.93ZM265.93 18.326C267.394 18.326 268.516 17.93 269.296 17.138C270.076 16.346 270.466 15.23 270.466 13.79C270.466 12.338 270.076 11.204 269.296 10.388C268.516 9.572 267.394 9.164 265.93 9.164H263.896V18.326H265.93Z" fill="#03466E"/>
</svg>
