<svg width="390" height="253" viewBox="0 0 390 253" fill="none" xmlns="http://www.w3.org/2000/svg">
<path opacity="0.9" d="M0 0H390V203C390 230.614 367.614 253 340 253H50C22.3858 253 0 230.614 0 203V0Z" fill="#54AFE6"/>
<path fill-rule="evenodd" clip-rule="evenodd" d="M312 20H313C313.552 20 314 20.4477 314 21V27C314 27.5523 313.552 28 313 28H312C311.448 28 311 27.5523 311 27V21C311 20.4477 311.448 20 312 20Z" fill="#D1D1D6"/>
<path fill-rule="evenodd" clip-rule="evenodd" d="M307.5 22H308.5C309.052 22 309.5 22.4477 309.5 23V27C309.5 27.5523 309.052 28 308.5 28H307.5C306.948 28 306.5 27.5523 306.5 27V23C306.5 22.4477 306.948 22 307.5 22Z" fill="#D1D1D6"/>
<path fill-rule="evenodd" clip-rule="evenodd" d="M303 23.5H304C304.552 23.5 305 23.9477 305 24.5V27C305 27.5523 304.552 28 304 28H303C302.448 28 302 27.5523 302 27V24.5C302 23.9477 302.448 23.5 303 23.5Z" fill="#D1D1D6"/>
<path fill-rule="evenodd" clip-rule="evenodd" d="M316.5 18H317.5C318.052 18 318.5 18.4477 318.5 19V27C318.5 27.5523 318.052 28 317.5 28H316.5C315.948 28 315.5 27.5523 315.5 27V19C315.5 18.4477 315.948 18 316.5 18Z" fill="#3C3C43" fill-opacity="0.18"/>
<path fill-rule="evenodd" clip-rule="evenodd" d="M312 20H313C313.552 20 314 20.4477 314 21V27C314 27.5523 313.552 28 313 28H312C311.448 28 311 27.5523 311 27V21C311 20.4477 311.448 20 312 20Z" fill="black"/>
<path fill-rule="evenodd" clip-rule="evenodd" d="M307.5 22H308.5C309.052 22 309.5 22.4477 309.5 23V27C309.5 27.5523 309.052 28 308.5 28H307.5C306.948 28 306.5 27.5523 306.5 27V23C306.5 22.4477 306.948 22 307.5 22Z" fill="black"/>
<path fill-rule="evenodd" clip-rule="evenodd" d="M303 23.5H304C304.552 23.5 305 23.9477 305 24.5V27C305 27.5523 304.552 28 304 28H303C302.448 28 302 27.5523 302 27V24.5C302 23.9477 302.448 23.5 303 23.5Z" fill="black"/>
<path d="M332.133 24.9396C332.772 24.9396 333.394 25.1076 333.941 25.428L334.163 25.5579C334.331 25.6563 334.361 25.8866 334.223 26.0242L332.329 27.913C332.212 28.029 332.024 28.029 331.907 27.913L330.026 26.0363C329.888 25.8994 329.917 25.6702 330.084 25.5711L330.303 25.4406C330.855 25.1121 331.485 24.9396 332.133 24.9396Z" fill="black"/>
<path d="M332.133 21.4698C333.724 21.4698 335.251 21.9976 336.495 22.9749L336.671 23.113C336.811 23.2232 336.824 23.4306 336.697 23.5565L335.567 24.6841C335.462 24.7884 335.297 24.8004 335.178 24.7123L335.04 24.6098C334.2 23.9852 333.186 23.6502 332.133 23.6502C331.073 23.6502 330.053 23.9894 329.21 24.6211L329.072 24.7245C328.953 24.8134 328.787 24.8017 328.682 24.6971L327.552 23.5699C327.426 23.4443 327.438 23.2373 327.578 23.127L327.753 22.9888C329 22.0027 330.534 21.4698 332.133 21.4698Z" fill="black"/>
<path d="M332.133 18C334.657 18 337.072 18.8906 338.983 20.5229L339.146 20.6623C339.278 20.7749 339.285 20.9756 339.163 21.098L338.036 22.2219C337.926 22.3308 337.752 22.3385 337.634 22.2395L337.494 22.1228C335.989 20.8647 334.104 20.1804 332.133 20.1804C330.155 20.1804 328.263 20.8694 326.756 22.1354L326.617 22.2527C326.498 22.3521 326.324 22.3447 326.214 22.2356L325.087 21.1118C324.965 20.9895 324.972 20.7892 325.104 20.6765L325.266 20.5371C327.18 18.8959 329.601 18 332.133 18Z" fill="black"/>
<path d="M368 21C368.552 21 369 21.4477 369 22V24C369 24.5523 368.552 25 368 25V21Z" fill="#3C3C43" fill-opacity="0.6"/>
<path fill-rule="evenodd" clip-rule="evenodd" d="M347 17H364C365.657 17 367 18.3431 367 20V26C367 27.6569 365.657 29 364 29H347C345.343 29 344 27.6569 344 26V20C344 18.3431 345.343 17 347 17ZM347 18C345.895 18 345 18.8954 345 20V26C345 27.1046 345.895 28 347 28H364C365.105 28 366 27.1046 366 26V20C366 18.8954 365.105 18 364 18H347Z" fill="#3C3C43" fill-opacity="0.6"/>
<rect x="346" y="19" width="19" height="8" rx="1" fill="black"/>
<path d="M45.8672 28.0889C48.5552 28.0889 50.1519 25.9868 50.1519 22.4272C50.1519 21.0869 49.8955 19.959 49.4048 19.0874C48.6943 17.7324 47.4712 17 45.9258 17C43.626 17 42 18.5454 42 20.7134C42 22.7495 43.4648 24.229 45.479 24.229C46.7168 24.229 47.7202 23.6504 48.2183 22.647H48.2402C48.2402 22.647 48.2695 22.647 48.2769 22.647C48.2915 22.647 48.3428 22.647 48.3428 22.647C48.3428 25.064 47.4272 26.5068 45.8818 26.5068C44.9736 26.5068 44.2705 26.0088 44.0288 25.2104H42.1465C42.4614 26.9463 43.9336 28.0889 45.8672 28.0889ZM45.9331 22.7275C44.7173 22.7275 43.853 21.8633 43.853 20.6548C43.853 19.4756 44.7612 18.5747 45.9404 18.5747C47.1196 18.5747 48.0278 19.4902 48.0278 20.6841C48.0278 21.8633 47.1416 22.7275 45.9331 22.7275Z" fill="black"/>
<path d="M53.243 27.9863C53.9388 27.9863 54.4148 27.4883 54.4148 26.8291C54.4148 26.1626 53.9388 25.6719 53.243 25.6719C52.5545 25.6719 52.0711 26.1626 52.0711 26.8291C52.0711 27.4883 52.5545 27.9863 53.243 27.9863ZM53.243 22.4932C53.9388 22.4932 54.4148 22.0024 54.4148 21.3433C54.4148 20.6768 53.9388 20.186 53.243 20.186C52.5545 20.186 52.0711 20.6768 52.0711 21.3433C52.0711 22.0024 52.5545 22.4932 53.243 22.4932Z" fill="black"/>
<path d="M61.2706 27.8325H63.0797V25.8623H64.5079V24.2656H63.0797V17.2637H60.4137C58.546 20.0762 57.0592 22.4272 56.107 24.1777V25.8623H61.2706V27.8325ZM57.8575 24.1997C59.088 22.0317 60.1866 20.2959 61.1974 18.8018H61.2999V24.3096H57.8575V24.1997Z" fill="black"/>
<path d="M68.5365 27.8325H70.4262V17.2637H68.5438L65.7826 19.1973V21.0137L68.412 19.168H68.5365V27.8325Z" fill="black"/>
<path d="M164.975 68.248V85H161.615V74.104L157.127 85H154.583L150.071 74.104V85H146.711V68.248H150.527L155.855 80.704L161.183 68.248H164.975ZM181.017 71.704L172.785 91.288H169.209L172.089 84.664L166.761 71.704H170.529L173.961 80.992L177.441 71.704H181.017ZM200.763 73.432C200.763 74.328 200.547 75.168 200.115 75.952C199.699 76.736 199.035 77.368 198.123 77.848C197.227 78.328 196.091 78.568 194.715 78.568H191.907V85H188.547V68.248H194.715C196.011 68.248 197.115 68.472 198.027 68.92C198.939 69.368 199.619 69.984 200.067 70.768C200.531 71.552 200.763 72.44 200.763 73.432ZM194.571 75.856C195.499 75.856 196.187 75.648 196.635 75.232C197.083 74.8 197.307 74.2 197.307 73.432C197.307 71.8 196.395 70.984 194.571 70.984H191.907V75.856H194.571ZM206.508 73.768C206.94 73.064 207.5 72.512 208.188 72.112C208.892 71.712 209.692 71.512 210.588 71.512V75.04H209.7C208.644 75.04 207.844 75.288 207.3 75.784C206.772 76.28 206.508 77.144 206.508 78.376V85H203.148V71.704H206.508V73.768ZM218.755 85.216C217.475 85.216 216.323 84.936 215.299 84.376C214.275 83.8 213.467 82.992 212.875 81.952C212.299 80.912 212.011 79.712 212.011 78.352C212.011 76.992 212.307 75.792 212.899 74.752C213.507 73.712 214.331 72.912 215.371 72.352C216.411 71.776 217.571 71.488 218.851 71.488C220.131 71.488 221.291 71.776 222.331 72.352C223.371 72.912 224.187 73.712 224.779 74.752C225.387 75.792 225.691 76.992 225.691 78.352C225.691 79.712 225.379 80.912 224.755 81.952C224.147 82.992 223.315 83.8 222.259 84.376C221.219 84.936 220.051 85.216 218.755 85.216ZM218.755 82.288C219.363 82.288 219.931 82.144 220.459 81.856C221.003 81.552 221.435 81.104 221.755 80.512C222.075 79.92 222.235 79.2 222.235 78.352C222.235 77.088 221.899 76.12 221.227 75.448C220.571 74.76 219.763 74.416 218.803 74.416C217.843 74.416 217.035 74.76 216.379 75.448C215.739 76.12 215.419 77.088 215.419 78.352C215.419 79.616 215.731 80.592 216.355 81.28C216.995 81.952 217.795 82.288 218.755 82.288ZM234.252 74.464H231.924V85H228.516V74.464H227.004V71.704H228.516V71.032C228.516 69.4 228.98 68.2 229.908 67.432C230.836 66.664 232.236 66.304 234.108 66.352V69.184C233.292 69.168 232.724 69.304 232.404 69.592C232.084 69.88 231.924 70.4 231.924 71.152V71.704H234.252V74.464ZM238.133 70.12C237.541 70.12 237.045 69.936 236.645 69.568C236.261 69.184 236.069 68.712 236.069 68.152C236.069 67.592 236.261 67.128 236.645 66.76C237.045 66.376 237.541 66.184 238.133 66.184C238.725 66.184 239.213 66.376 239.597 66.76C239.997 67.128 240.197 67.592 240.197 68.152C240.197 68.712 239.997 69.184 239.597 69.568C239.213 69.936 238.725 70.12 238.133 70.12ZM239.789 71.704V85H236.429V71.704H239.789ZM246.469 67.24V85H243.109V67.24H246.469ZM262.149 78.064C262.149 78.544 262.117 78.976 262.053 79.36H252.333C252.413 80.32 252.749 81.072 253.341 81.616C253.933 82.16 254.661 82.432 255.525 82.432C256.773 82.432 257.661 81.896 258.189 80.824H261.813C261.429 82.104 260.693 83.16 259.605 83.992C258.517 84.808 257.181 85.216 255.597 85.216C254.317 85.216 253.165 84.936 252.141 84.376C251.133 83.8 250.341 82.992 249.765 81.952C249.205 80.912 248.925 79.712 248.925 78.352C248.925 76.976 249.205 75.768 249.765 74.728C250.325 73.688 251.109 72.888 252.117 72.328C253.125 71.768 254.285 71.488 255.597 71.488C256.861 71.488 257.989 71.76 258.981 72.304C259.989 72.848 260.765 73.624 261.309 74.632C261.869 75.624 262.149 76.768 262.149 78.064ZM258.669 77.104C258.653 76.24 258.341 75.552 257.733 75.04C257.125 74.512 256.381 74.248 255.501 74.248C254.669 74.248 253.965 74.504 253.389 75.016C252.829 75.512 252.485 76.208 252.357 77.104H258.669Z" fill="#03466E"/>
<path d="M170.88 214.04V216.3H167.16V228H164.36V216.3H160.64V214.04H170.88ZM183.223 222.22C183.223 222.62 183.196 222.98 183.143 223.3H175.043C175.11 224.1 175.39 224.727 175.883 225.18C176.376 225.633 176.983 225.86 177.703 225.86C178.743 225.86 179.483 225.413 179.923 224.52H182.943C182.623 225.587 182.01 226.467 181.103 227.16C180.196 227.84 179.083 228.18 177.763 228.18C176.696 228.18 175.736 227.947 174.883 227.48C174.043 227 173.383 226.327 172.903 225.46C172.436 224.593 172.203 223.593 172.203 222.46C172.203 221.313 172.436 220.307 172.903 219.44C173.37 218.573 174.023 217.907 174.863 217.44C175.703 216.973 176.67 216.74 177.763 216.74C178.816 216.74 179.756 216.967 180.583 217.42C181.423 217.873 182.07 218.52 182.523 219.36C182.99 220.187 183.223 221.14 183.223 222.22ZM180.323 221.42C180.31 220.7 180.05 220.127 179.543 219.7C179.036 219.26 178.416 219.04 177.683 219.04C176.99 219.04 176.403 219.253 175.923 219.68C175.456 220.093 175.17 220.673 175.063 221.42H180.323ZM199.027 216.76C200.387 216.76 201.48 217.18 202.307 218.02C203.147 218.847 203.567 220.007 203.567 221.5V228H200.767V221.88C200.767 221.013 200.547 220.353 200.107 219.9C199.667 219.433 199.067 219.2 198.307 219.2C197.547 219.2 196.94 219.433 196.487 219.9C196.047 220.353 195.827 221.013 195.827 221.88V228H193.027V221.88C193.027 221.013 192.807 220.353 192.367 219.9C191.927 219.433 191.327 219.2 190.567 219.2C189.793 219.2 189.18 219.433 188.727 219.9C188.287 220.353 188.067 221.013 188.067 221.88V228H185.267V216.92H188.067V218.26C188.427 217.793 188.887 217.427 189.447 217.16C190.02 216.893 190.647 216.76 191.327 216.76C192.193 216.76 192.967 216.947 193.647 217.32C194.327 217.68 194.853 218.2 195.227 218.88C195.587 218.24 196.107 217.727 196.787 217.34C197.48 216.953 198.227 216.76 199.027 216.76ZM207.644 215.6C207.15 215.6 206.737 215.447 206.404 215.14C206.084 214.82 205.924 214.427 205.924 213.96C205.924 213.493 206.084 213.107 206.404 212.8C206.737 212.48 207.15 212.32 207.644 212.32C208.137 212.32 208.544 212.48 208.864 212.8C209.197 213.107 209.364 213.493 209.364 213.96C209.364 214.427 209.197 214.82 208.864 215.14C208.544 215.447 208.137 215.6 207.644 215.6ZM209.024 216.92V228H206.224V216.92H209.024ZM215.05 219.22V224.58C215.05 224.953 215.137 225.227 215.31 225.4C215.497 225.56 215.803 225.64 216.23 225.64H217.53V228H215.77C213.41 228 212.23 226.853 212.23 224.56V219.22H210.91V216.92H212.23V214.18H215.05V216.92H217.53V219.22H215.05ZM224.464 228.18C223.397 228.18 222.437 227.947 221.584 227.48C220.731 227 220.057 226.327 219.564 225.46C219.084 224.593 218.844 223.593 218.844 222.46C218.844 221.327 219.091 220.327 219.584 219.46C220.091 218.593 220.777 217.927 221.644 217.46C222.511 216.98 223.477 216.74 224.544 216.74C225.611 216.74 226.577 216.98 227.444 217.46C228.311 217.927 228.991 218.593 229.484 219.46C229.991 220.327 230.244 221.327 230.244 222.46C230.244 223.593 229.984 224.593 229.464 225.46C228.957 226.327 228.264 227 227.384 227.48C226.517 227.947 225.544 228.18 224.464 228.18ZM224.464 225.74C224.971 225.74 225.444 225.62 225.884 225.38C226.337 225.127 226.697 224.753 226.964 224.26C227.231 223.767 227.364 223.167 227.364 222.46C227.364 221.407 227.084 220.6 226.524 220.04C225.977 219.467 225.304 219.18 224.504 219.18C223.704 219.18 223.031 219.467 222.484 220.04C221.951 220.6 221.684 221.407 221.684 222.46C221.684 223.513 221.944 224.327 222.464 224.9C222.997 225.46 223.664 225.74 224.464 225.74ZM235.098 218.52C235.458 218.013 235.951 217.593 236.578 217.26C237.218 216.913 237.945 216.74 238.758 216.74C239.705 216.74 240.558 216.973 241.318 217.44C242.091 217.907 242.698 218.573 243.138 219.44C243.591 220.293 243.818 221.287 243.818 222.42C243.818 223.553 243.591 224.56 243.138 225.44C242.698 226.307 242.091 226.98 241.318 227.46C240.558 227.94 239.705 228.18 238.758 228.18C237.945 228.18 237.225 228.013 236.598 227.68C235.985 227.347 235.485 226.927 235.098 226.42V233.28H232.298V216.92H235.098V218.52ZM240.958 222.42C240.958 221.753 240.818 221.18 240.538 220.7C240.271 220.207 239.911 219.833 239.458 219.58C239.018 219.327 238.538 219.2 238.018 219.2C237.511 219.2 237.031 219.333 236.578 219.6C236.138 219.853 235.778 220.227 235.498 220.72C235.231 221.213 235.098 221.793 235.098 222.46C235.098 223.127 235.231 223.707 235.498 224.2C235.778 224.693 236.138 225.073 236.578 225.34C237.031 225.593 237.511 225.72 238.018 225.72C238.538 225.72 239.018 225.587 239.458 225.32C239.911 225.053 240.271 224.673 240.538 224.18C240.818 223.687 240.958 223.1 240.958 222.42ZM256.153 222.22C256.153 222.62 256.126 222.98 256.073 223.3H247.973C248.039 224.1 248.319 224.727 248.813 225.18C249.306 225.633 249.913 225.86 250.633 225.86C251.673 225.86 252.413 225.413 252.853 224.52H255.873C255.553 225.587 254.939 226.467 254.033 227.16C253.126 227.84 252.013 228.18 250.693 228.18C249.626 228.18 248.666 227.947 247.813 227.48C246.973 227 246.313 226.327 245.833 225.46C245.366 224.593 245.133 223.593 245.133 222.46C245.133 221.313 245.366 220.307 245.833 219.44C246.299 218.573 246.953 217.907 247.793 217.44C248.633 216.973 249.599 216.74 250.693 216.74C251.746 216.74 252.686 216.967 253.513 217.42C254.353 217.873 254.999 218.52 255.453 219.36C255.919 220.187 256.153 221.14 256.153 222.22ZM253.253 221.42C253.239 220.7 252.979 220.127 252.473 219.7C251.966 219.26 251.346 219.04 250.613 219.04C249.919 219.04 249.333 219.253 248.853 219.68C248.386 220.093 248.099 220.673 247.993 221.42H253.253Z" fill="#03466E"/>
</svg>
