<svg width="391" height="166" viewBox="0 0 391 166" fill="none" xmlns="http://www.w3.org/2000/svg">
<path opacity="0.9" d="M1 0H391V116C391 143.614 368.614 166 341 166H51C23.3858 166 1 143.614 1 116V0Z" fill="#54AFE6"/>
<path fill-rule="evenodd" clip-rule="evenodd" d="M304 20H305C305.552 20 306 20.4477 306 21V27C306 27.5523 305.552 28 305 28H304C303.448 28 303 27.5523 303 27V21C303 20.4477 303.448 20 304 20Z" fill="#D1D1D6"/>
<path fill-rule="evenodd" clip-rule="evenodd" d="M299.5 22H300.5C301.052 22 301.5 22.4477 301.5 23V27C301.5 27.5523 301.052 28 300.5 28H299.5C298.948 28 298.5 27.5523 298.5 27V23C298.5 22.4477 298.948 22 299.5 22Z" fill="#D1D1D6"/>
<path fill-rule="evenodd" clip-rule="evenodd" d="M295 23.5H296C296.552 23.5 297 23.9477 297 24.5V27C297 27.5523 296.552 28 296 28H295C294.448 28 294 27.5523 294 27V24.5C294 23.9477 294.448 23.5 295 23.5Z" fill="#D1D1D6"/>
<path fill-rule="evenodd" clip-rule="evenodd" d="M308.5 18H309.5C310.052 18 310.5 18.4477 310.5 19V27C310.5 27.5523 310.052 28 309.5 28H308.5C307.948 28 307.5 27.5523 307.5 27V19C307.5 18.4477 307.948 18 308.5 18Z" fill="#3C3C43" fill-opacity="0.18"/>
<path fill-rule="evenodd" clip-rule="evenodd" d="M304 20H305C305.552 20 306 20.4477 306 21V27C306 27.5523 305.552 28 305 28H304C303.448 28 303 27.5523 303 27V21C303 20.4477 303.448 20 304 20Z" fill="black"/>
<path fill-rule="evenodd" clip-rule="evenodd" d="M299.5 22H300.5C301.052 22 301.5 22.4477 301.5 23V27C301.5 27.5523 301.052 28 300.5 28H299.5C298.948 28 298.5 27.5523 298.5 27V23C298.5 22.4477 298.948 22 299.5 22Z" fill="black"/>
<path fill-rule="evenodd" clip-rule="evenodd" d="M295 23.5H296C296.552 23.5 297 23.9477 297 24.5V27C297 27.5523 296.552 28 296 28H295C294.448 28 294 27.5523 294 27V24.5C294 23.9477 294.448 23.5 295 23.5Z" fill="black"/>
<path d="M324.133 24.9396C324.772 24.9396 325.394 25.1076 325.941 25.428L326.163 25.5579C326.331 25.6563 326.361 25.8866 326.223 26.0242L324.329 27.913C324.212 28.029 324.024 28.029 323.907 27.913L322.026 26.0363C321.888 25.8994 321.917 25.6702 322.084 25.5711L322.303 25.4406C322.855 25.1121 323.485 24.9396 324.133 24.9396Z" fill="black"/>
<path d="M324.133 21.4698C325.724 21.4698 327.251 21.9976 328.495 22.9749L328.671 23.113C328.811 23.2232 328.824 23.4306 328.697 23.5565L327.567 24.6841C327.462 24.7884 327.297 24.8004 327.178 24.7123L327.04 24.6098C326.2 23.9852 325.186 23.6502 324.133 23.6502C323.073 23.6502 322.053 23.9894 321.21 24.6211L321.072 24.7245C320.953 24.8134 320.787 24.8017 320.682 24.6971L319.552 23.5699C319.426 23.4443 319.438 23.2373 319.578 23.127L319.753 22.9888C321 22.0027 322.534 21.4698 324.133 21.4698Z" fill="black"/>
<path d="M324.133 18C326.657 18 329.072 18.8906 330.983 20.5229L331.146 20.6623C331.278 20.7749 331.285 20.9756 331.163 21.098L330.036 22.2219C329.926 22.3308 329.752 22.3385 329.634 22.2395L329.494 22.1228C327.989 20.8647 326.104 20.1804 324.133 20.1804C322.155 20.1804 320.263 20.8694 318.756 22.1354L318.617 22.2527C318.498 22.3521 318.324 22.3447 318.214 22.2356L317.087 21.1118C316.965 20.9895 316.972 20.7892 317.104 20.6765L317.266 20.5371C319.18 18.8959 321.601 18 324.133 18Z" fill="black"/>
<path d="M360 21C360.552 21 361 21.4477 361 22V24C361 24.5523 360.552 25 360 25V21Z" fill="#3C3C43" fill-opacity="0.6"/>
<path fill-rule="evenodd" clip-rule="evenodd" d="M339 17H356C357.657 17 359 18.3431 359 20V26C359 27.6569 357.657 29 356 29H339C337.343 29 336 27.6569 336 26V20C336 18.3431 337.343 17 339 17ZM339 18C337.895 18 337 18.8954 337 20V26C337 27.1046 337.895 28 339 28H356C357.105 28 358 27.1046 358 26V20C358 18.8954 357.105 18 356 18H339Z" fill="#3C3C43" fill-opacity="0.6"/>
<rect x="338" y="19" width="19" height="8" rx="1" fill="black"/>
<path d="M37.8672 28.0889C40.5552 28.0889 42.1519 25.9868 42.1519 22.4272C42.1519 21.0869 41.8955 19.959 41.4048 19.0874C40.6943 17.7324 39.4712 17 37.9258 17C35.626 17 34 18.5454 34 20.7134C34 22.7495 35.4648 24.229 37.479 24.229C38.7168 24.229 39.7202 23.6504 40.2183 22.647H40.2402C40.2402 22.647 40.2695 22.647 40.2769 22.647C40.2915 22.647 40.3428 22.647 40.3428 22.647C40.3428 25.064 39.4272 26.5068 37.8818 26.5068C36.9736 26.5068 36.2705 26.0088 36.0288 25.2104H34.1465C34.4614 26.9463 35.9336 28.0889 37.8672 28.0889ZM37.9331 22.7275C36.7173 22.7275 35.853 21.8633 35.853 20.6548C35.853 19.4756 36.7612 18.5747 37.9404 18.5747C39.1196 18.5747 40.0278 19.4902 40.0278 20.6841C40.0278 21.8633 39.1416 22.7275 37.9331 22.7275Z" fill="black"/>
<path d="M45.243 27.9863C45.9388 27.9863 46.4148 27.4883 46.4148 26.8291C46.4148 26.1626 45.9388 25.6719 45.243 25.6719C44.5545 25.6719 44.0711 26.1626 44.0711 26.8291C44.0711 27.4883 44.5545 27.9863 45.243 27.9863ZM45.243 22.4932C45.9388 22.4932 46.4148 22.0024 46.4148 21.3433C46.4148 20.6768 45.9388 20.186 45.243 20.186C44.5545 20.186 44.0711 20.6768 44.0711 21.3433C44.0711 22.0024 44.5545 22.4932 45.243 22.4932Z" fill="black"/>
<path d="M53.2706 27.8325H55.0797V25.8623H56.5079V24.2656H55.0797V17.2637H52.4137C50.546 20.0762 49.0592 22.4272 48.107 24.1777V25.8623H53.2706V27.8325ZM49.8575 24.1997C51.088 22.0317 52.1866 20.2959 53.1974 18.8018H53.2999V24.3096H49.8575V24.1997Z" fill="black"/>
<path d="M60.5365 27.8325H62.4262V17.2637H60.5438L57.7826 19.1973V21.0137L60.412 19.168H60.5365V27.8325Z" fill="black"/>
<path d="M142.169 77.248L136.025 94H131.945L125.801 77.248H129.401L134.009 90.568L138.593 77.248H142.169ZM156.543 87.064C156.543 87.544 156.511 87.976 156.447 88.36H146.727C146.807 89.32 147.143 90.072 147.735 90.616C148.327 91.16 149.055 91.432 149.919 91.432C151.167 91.432 152.055 90.896 152.583 89.824H156.207C155.823 91.104 155.087 92.16 153.999 92.992C152.911 93.808 151.575 94.216 149.991 94.216C148.711 94.216 147.559 93.936 146.535 93.376C145.527 92.8 144.735 91.992 144.159 90.952C143.599 89.912 143.319 88.712 143.319 87.352C143.319 85.976 143.599 84.768 144.159 83.728C144.719 82.688 145.503 81.888 146.511 81.328C147.519 80.768 148.679 80.488 149.991 80.488C151.255 80.488 152.383 80.76 153.375 81.304C154.383 81.848 155.159 82.624 155.703 83.632C156.263 84.624 156.543 85.768 156.543 87.064ZM153.063 86.104C153.047 85.24 152.735 84.552 152.127 84.04C151.519 83.512 150.775 83.248 149.895 83.248C149.063 83.248 148.359 83.504 147.783 84.016C147.223 84.512 146.879 85.208 146.751 86.104H153.063ZM162.356 82.768C162.788 82.064 163.348 81.512 164.036 81.112C164.74 80.712 165.54 80.512 166.436 80.512V84.04H165.548C164.492 84.04 163.692 84.288 163.148 84.784C162.62 85.28 162.356 86.144 162.356 87.376V94H158.996V80.704H162.356V82.768ZM170.403 79.12C169.811 79.12 169.315 78.936 168.915 78.568C168.531 78.184 168.339 77.712 168.339 77.152C168.339 76.592 168.531 76.128 168.915 75.76C169.315 75.376 169.811 75.184 170.403 75.184C170.995 75.184 171.483 75.376 171.867 75.76C172.267 76.128 172.467 76.592 172.467 77.152C172.467 77.712 172.267 78.184 171.867 78.568C171.483 78.936 170.995 79.12 170.403 79.12ZM172.059 80.704V94H168.699V80.704H172.059ZM181.475 83.464H179.147V94H175.739V83.464H174.227V80.704H175.739V80.032C175.739 78.4 176.203 77.2 177.131 76.432C178.059 75.664 179.459 75.304 181.331 75.352V78.184C180.515 78.168 179.947 78.304 179.627 78.592C179.307 78.88 179.147 79.4 179.147 80.152V80.704H181.475V83.464ZM185.356 79.12C184.764 79.12 184.268 78.936 183.868 78.568C183.484 78.184 183.292 77.712 183.292 77.152C183.292 76.592 183.484 76.128 183.868 75.76C184.268 75.376 184.764 75.184 185.356 75.184C185.948 75.184 186.436 75.376 186.82 75.76C187.22 76.128 187.42 76.592 187.42 77.152C187.42 77.712 187.22 78.184 186.82 78.568C186.436 78.936 185.948 79.12 185.356 79.12ZM187.012 80.704V94H183.652V80.704H187.012ZM189.468 87.352C189.468 85.976 189.748 84.776 190.308 83.752C190.868 82.712 191.644 81.912 192.636 81.352C193.628 80.776 194.764 80.488 196.044 80.488C197.692 80.488 199.052 80.904 200.124 81.736C201.212 82.552 201.94 83.704 202.308 85.192H198.684C198.492 84.616 198.164 84.168 197.7 83.848C197.252 83.512 196.692 83.344 196.02 83.344C195.06 83.344 194.3 83.696 193.74 84.4C193.18 85.088 192.9 86.072 192.9 87.352C192.9 88.616 193.18 89.6 193.74 90.304C194.3 90.992 195.06 91.336 196.02 91.336C197.38 91.336 198.268 90.728 198.684 89.512H202.308C201.94 90.952 201.212 92.096 200.124 92.944C199.036 93.792 197.676 94.216 196.044 94.216C194.764 94.216 193.628 93.936 192.636 93.376C191.644 92.8 190.868 92 190.308 90.976C189.748 89.936 189.468 88.728 189.468 87.352ZM203.905 87.304C203.905 85.96 204.169 84.768 204.697 83.728C205.241 82.688 205.969 81.888 206.881 81.328C207.809 80.768 208.841 80.488 209.977 80.488C210.969 80.488 211.833 80.688 212.569 81.088C213.321 81.488 213.921 81.992 214.369 82.6V80.704H217.753V94H214.369V92.056C213.937 92.68 213.337 93.2 212.569 93.616C211.817 94.016 210.945 94.216 209.953 94.216C208.833 94.216 207.809 93.928 206.881 93.352C205.969 92.776 205.241 91.968 204.697 90.928C204.169 89.872 203.905 88.664 203.905 87.304ZM214.369 87.352C214.369 86.536 214.209 85.84 213.889 85.264C213.569 84.672 213.137 84.224 212.593 83.92C212.049 83.6 211.465 83.44 210.841 83.44C210.217 83.44 209.641 83.592 209.113 83.896C208.585 84.2 208.153 84.648 207.817 85.24C207.497 85.816 207.337 86.504 207.337 87.304C207.337 88.104 207.497 88.808 207.817 89.416C208.153 90.008 208.585 90.464 209.113 90.784C209.657 91.104 210.233 91.264 210.841 91.264C211.465 91.264 212.049 91.112 212.593 90.808C213.137 90.488 213.569 90.04 213.889 89.464C214.209 88.872 214.369 88.168 214.369 87.352ZM224.947 83.464V89.896C224.947 90.344 225.051 90.672 225.259 90.88C225.483 91.072 225.851 91.168 226.363 91.168H227.923V94H225.811C222.979 94 221.563 92.624 221.563 89.872V83.464H219.979V80.704H221.563V77.416H224.947V80.704H227.923V83.464H224.947ZM232.044 79.12C231.452 79.12 230.956 78.936 230.556 78.568C230.172 78.184 229.98 77.712 229.98 77.152C229.98 76.592 230.172 76.128 230.556 75.76C230.956 75.376 231.452 75.184 232.044 75.184C232.636 75.184 233.124 75.376 233.508 75.76C233.908 76.128 234.108 76.592 234.108 77.152C234.108 77.712 233.908 78.184 233.508 78.568C233.124 78.936 232.636 79.12 232.044 79.12ZM233.7 80.704V94H230.34V80.704H233.7ZM242.923 94.216C241.643 94.216 240.491 93.936 239.467 93.376C238.443 92.8 237.635 91.992 237.043 90.952C236.467 89.912 236.179 88.712 236.179 87.352C236.179 85.992 236.475 84.792 237.067 83.752C237.675 82.712 238.499 81.912 239.539 81.352C240.579 80.776 241.739 80.488 243.019 80.488C244.299 80.488 245.459 80.776 246.499 81.352C247.539 81.912 248.355 82.712 248.947 83.752C249.555 84.792 249.859 85.992 249.859 87.352C249.859 88.712 249.547 89.912 248.923 90.952C248.315 91.992 247.483 92.8 246.427 93.376C245.387 93.936 244.219 94.216 242.923 94.216ZM242.923 91.288C243.531 91.288 244.099 91.144 244.627 90.856C245.171 90.552 245.603 90.104 245.923 89.512C246.243 88.92 246.403 88.2 246.403 87.352C246.403 86.088 246.067 85.12 245.395 84.448C244.739 83.76 243.931 83.416 242.971 83.416C242.011 83.416 241.203 83.76 240.547 84.448C239.907 85.12 239.587 86.088 239.587 87.352C239.587 88.616 239.899 89.592 240.523 90.28C241.163 90.952 241.963 91.288 242.923 91.288ZM259.692 80.512C261.276 80.512 262.556 81.016 263.532 82.024C264.508 83.016 264.996 84.408 264.996 86.2V94H261.636V86.656C261.636 85.6 261.372 84.792 260.844 84.232C260.316 83.656 259.596 83.368 258.684 83.368C257.756 83.368 257.02 83.656 256.476 84.232C255.948 84.792 255.684 85.6 255.684 86.656V94H252.324V80.704H255.684V82.36C256.132 81.784 256.7 81.336 257.388 81.016C258.092 80.68 258.86 80.512 259.692 80.512Z" fill="#03466E"/>
</svg>
